SplineFontDB: 3.2
FontName: linjaEnki
FullName: linja Enki
FamilyName: linjaEnki
Weight: Regular
Copyright: Copyright (c) 2023, p
UComments: "2023-10-14: Created with FontForge (http://fontforge.org)"
Version: 0.1
ItalicAngle: 0
UnderlinePosition: -100
UnderlineWidth: 50
Ascent: 800
Descent: 200
InvalidEm: 0
LayerCount: 2
Layer: 0 0 "+BBcEMAQ0BD0EOAQ5 +BD8EOwQwBD0A" 1
Layer: 1 0 "+BB8ENQRABDUENAQ9BDgEOQAA +BD8EOwQwBD0A" 0
XUID: [1021 547 -761801329 11503]
FSType: 0
OS2Version: 0
OS2_WeightWidthSlopeOnly: 0
OS2_UseTypoMetrics: 1
CreationTime: 1697305622
ModificationTime: 1713696357
PfmFamily: 17
TTFWeight: 400
TTFWidth: 5
LineGap: 90
VLineGap: 0
OS2TypoAscent: 0
OS2TypoAOffset: 1
OS2TypoDescent: 0
OS2TypoDOffset: 1
OS2TypoLinegap: 90
OS2WinAscent: 0
OS2WinAOffset: 1
OS2WinDescent: 0
OS2WinDOffset: 1
HheadAscent: 0
HheadAOffset: 1
HheadDescent: 0
HheadDOffset: 1
OS2Vendor: 'PfEd'
MarkAttachClasses: 1
DEI: 91125

StartChar: exclam
Encoding: 33 33 0
Width: 146
Flags: HW
VStem: 48.2803 44.9648<186.631 575.345>
LayerCount: 2
Back
Fore
SplineSet
71.67578125 617.309570312 m 0
 93.42578125 671.052734375 99.41796875 637.696289062 93.6455078125 495 c 0
 90.58984375 419.400390625 94.271484375 422.87890625 93.2451171875 345.16015625 c 0
 90.9892578125 174.434570312 92.3369140625 185.900390625 74.52734375 185.900390625 c 0
 52.7724609375 185.900390625 47.146484375 224.123046875 48.2802734375 364.271484375 c 0
 49.5888671875 526.079101562 57.181640625 581.500976562 71.67578125 617.309570312 c 0
48.140625 58.591796875 m 0
 56.6220703125 74.888671875 64.505859375 80.0732421875 80.8017578125 80.0732421875 c 0
 109.213867188 80.0732421875 113.575195312 63.037109375 94.6455078125 26 c 0
 75.3369140625 -11.7783203125 67.3603515625 -17.8212890625 49.6904296875 -8.0634765625 c 0
 33.373046875 0.9482421875 32.7216796875 28.962890625 48.140625 58.591796875 c 0
EndSplineSet
EndChar

StartChar: quotedbl
Encoding: 34 34 1
Width: 246
Flags: HW
HStem: 521.195 269.126<169.506 185.933>
VStem: 49.7305 28.5469<674.253 787.772> 157.731 38.6006<526.017 784.894>
LayerCount: 2
Back
Fore
SplineSet
157.731445312 674.857421875 m 0
 153.780273438 770.353515625 154.750976562 790.321289062 163.346679688 790.321289062 c 0
 187.513671875 790.321289062 193.650390625 762.540039062 196.33203125 641 c 0
 198.668945312 535.0859375 197.598632812 521.1953125 187.098632812 521.1953125 c 0
 168.37890625 521.1953125 162.903320312 549.84375 157.731445312 674.857421875 c 0
49.73046875 781.474609375 m 0
 55.244140625 791.892578125 73.0859375 792.977539062 78.27734375 783.2109375 c 0
 83.6830552922 773.038076967 91.2617436349 597.961789906 94.33203125 569 c 0
 98.7490234375 527.329101562 88.78515625 515.40625 68.94140625 538.615234375 c 0
 47.0384288335 564.230391713 46.7406812255 775.825819329 49.73046875 781.474609375 c 0
EndSplineSet
EndChar

StartChar: numbersign
Encoding: 35 35 2
Width: 661
Flags: HW
HStem: 161.63 31.0439<57.691 90.5605>
VStem: 60.7773 243.277<410.184 482.54> 407.263 42.0215<469.306 516.646>
LayerCount: 2
Back
Fore
SplineSet
376.30078125 421.822265625 m 0
 351.973632812 428.830078125 311.1953125 429.365234375 295.9453125 422.876953125 c 0
 285.772460938 418.547851562 276.483398438 406.744140625 272.723632812 393.364257812 c 0
 269.258789062 381.034179688 255.391601562 346.85546875 241.705078125 316.91015625 c 0
 187.540039062 198.408203125 188.125 192.37109375 253.1875 198.587890625 c 0
 311.426757812 204.15234375 333.086914062 213.032226562 338.221679688 233.44921875 c 0
 340.514648438 242.559570312 350.71484375 278.684570312 360.889648438 313.724609375 c 0
 386.234375 401.009765625 388.693359375 418.251953125 376.30078125 421.822265625 c 0
440.79296875 633.5546875 m 0
 444.407558502 643.170625281 486.268918465 655.745996201 467.344726562 592.461914062 c 0
 462.6796875 576.858398438 456.711914062 542.766601562 454.076171875 516.645507812 c 2
 449.284179688 469.180664062 l 1
 520.055664062 473.637695312 l 2
 606.30859375 479.069335938 630.409179688 474.91015625 627.092773438 455.163085938 c 0
 624.89453125 442.08203125 619.578125 440.821289062 547.33203125 436.258789062 c 0
 446.334960938 429.880859375 431.6640625 424.602539062 421.001953125 390.815429688 c 0
 412.416992188 363.611328125 388.124023438 267.216796875 380.05859375 228.352539062 c 2
 375.563476562 206.690429688 l 1
 426.430664062 211.109375 l 2
 593.775390625 225.645507812 556.428710938 221.688476562 556.428710938 198.830078125 c 0
 556.428710938 187.014648438 550.530273438 185.971679688 475.3359375 184.494140625 c 0
 430.3671875 183.611328125 474.110351562 180.989257812 433.43359375 178.338867188 c 2
 360.08203125 173.560546875 l 1
 350.499023438 135.333984375 l 2
 333.037987168 65.6936268746 361.400160003 28.588663918 334.279296875 20.97265625 c 0
 326.170898438 18.6953125 312.901367188 19.8349609375 304.791992188 23.505859375 c 0
 289.40234375 30.47265625 289.424804688 35.3076171875 305.237304688 118.131835938 c 0
 309.495117188 140.431640625 310.95703125 159.96875 308.525390625 162.092773438 c 0
 302.45703125 167.395507812 183.890625 164.705078125 177.255859375 159.114257812 c 0
 169.352539062 152.455078125 156.28125 90.099609375 155.576171875 55.6953125 c 0
 154.845703125 20.0166015625 145.768554688 -1.64453125 131.548828125 -1.64453125 c 0
 108.506835938 -1.64453125 95.4814453125 53.7841796875 112.235351562 80.54296875 c 0
 115.971679688 86.5107421875 120.009765625 105.389648438 121.228515625 122.591796875 c 2
 123.440429688 153.810546875 l 1
 83.630859375 161.629882812 l 2
 45.296875 169.158203125 28.73046875 179.506835938 33.9326171875 192.673828125 c 0
 35.4326171875 196.471679688 58.9345703125 198.14453125 92.1083984375 196.815429688 c 2
 147.767578125 194.5859375 l 1
 162.978515625 232.174804688 l 2
 223.3046875 381.258789062 236.28515625 415.966796875 233.266601562 420.123046875 c 0
 227.311523438 428.317382812 162.51171875 425.297851562 130.811523438 415.34765625 c 0
 88.0537109375 401.92578125 60.77734375 402.79296875 60.77734375 417.57421875 c 0
 60.77734375 435.814453125 119.75390625 455.217773438 192 460.747070312 c 0
 262.685546875 466.157226562 259.916015625 463.446289062 281.295898438 548.182617188 c 0
 297.047851562 610.619140625 311.921875 635.466796875 333.54296875 635.466796875 c 0
 354.146484375 635.466796875 352.650390625 618.264648438 326.12109375 550.09375 c 0
 313.971679688 518.875 304.0546875 486.661132812 304.0546875 478.41796875 c 0
 304.0546875 464.444335938 307.002929688 463.446289062 348.287109375 463.446289062 c 0
 395.467773438 463.446289062 407.262695312 471.346679688 407.262695312 502.947265625 c 0
 407.262695312 515.666992188 430.494140625 606.159179688 440.79296875 633.5546875 c 0
EndSplineSet
EndChar

StartChar: dollar
Encoding: 36 36 3
Width: 365
Flags: HW
HStem: 7.81934 29.752<80.7361 137.818>
VStem: 19 35.415<449.237 531.45> 29.0557 34.5693<52.1569 114.472> 153.873 46.5908<-144.679 -64.3906 -64.3441 7.81934 48.0759 94.8323 176.072 274.451> 168.743 44.5518<378.324 561.176> 193.729 46.5869<641.982 761.332> 239.808 40.7266<176.607 274.229>
LayerCount: 2
Back
Fore
SplineSet
216.904296875 176.052734375 m 0
 226.935096723 176.052734375 239.807617188 189.527297463 239.807617188 220.805664062 c 0
 239.807617188 237.72265625 233.393554688 274.4765625 218.557617188 274.4765625 c 0
 204.381835938 274.4765625 202.801757812 239.250976562 202.801757812 223.549804688 c 0
 202.801757812 202.219726562 203.462890625 176.052734375 216.904296875 176.052734375 c 0
151.2265625 378.319335938 m 0
 157.905273438 378.319335938 159.067382812 384.084960938 160.279296875 390.090820312 c 0
 167.845703125 427.599609375 168.743164062 524.731445312 168.743164062 526.094726562 c 0
 168.743164062 563.796875 166.3515625 588.543945312 149.176757812 588.543945312 c 0
 136.560546875 588.543945312 119.555664062 574.921875 94.19140625 553.034179688 c 0
 68.2919921875 530.684570312 54.4150390625 513.313476562 54.4150390625 492.73828125 c 0
 54.4150390625 447.828125 131.556640625 378.319335938 151.2265625 378.319335938 c 0
270.479492188 799.432617188 m 0
 270.479492188 765.813242669 240.315429688 727.849029348 240.315429688 677.125 c 0
 240.315429688 649.318359375 246.452148438 641.204101562 275.72265625 627.477539062 c 0
 307.732421875 610.029296875 346.461914062 569.780273438 346.461914062 556.149414062 c 0
 346.461914062 551.012695312 335.9453125 536.46484375 317.517578125 536.46484375 c 0
 288.249023438 536.46484375 268.854492188 565.71484375 247.186523438 565.71484375 c 0
 221.922851562 565.71484375 216.141601562 524.959960938 213.294921875 438.563476562 c 2
 209.940429688 336.799804688 l 1
 246.163085938 305.438476562 l 2
 278.34375 278.95703125 280.534179688 274.408203125 280.534179688 227.161132812 c 0
 280.534179688 182.5390625 276.624023438 171.62890625 247.197265625 134.586914062 c 0
 212.100585938 88.341796875 197.924804688 40.791015625 197.924804688 -27.1904296875 c 0
 197.924804688 -56.31640625 200.463867188 -76.6953125 200.463867188 -98.5439453125 c 0
 200.463867188 -126.783203125 197.275390625 -131.045898438 185.05859375 -140.540039062 c 0
 177.484375 -146.356445312 171.8125 -148.994140625 168.369140625 -148.994140625 c 0
 160.188476562 -148.994140625 154.52734375 -131.432617188 153.873046875 -64.390625 c 1
 153.873046875 -64.4443359375 153.073242188 3.1396484375 153.073242188 7.8193359375 c 1
 107.509765625 7.8193359375 l 2
 49.2041015625 7.8193359375 29.0556640625 31.8486328125 29.0556640625 84.5439453125 c 0
 29.0556640625 116.170898438 32.3203125 118.702148438 36.84375 118.702148438 c 0
 65.8627828483 118.702148438 66.5094919498 37.5712890625 104.505859375 37.5712890625 c 0
 112.756835938 37.5712890625 121.299804688 41.240234375 131.11328125 47.2978515625 c 0
 157.302734375 64.0654296875 157.635742188 69.3671875 157.635742188 191.95703125 c 2
 157.635742188 315.489257812 l 1
 117.442382812 345.614257812 l 2
 51.7607421875 392.365234375 19 443.59765625 19 496.145507812 c 0
 19 536.930664062 22.0107421875 543.325195312 53.9326171875 570.411132812 c 0
 73.1591796875 588.145507812 114.5703125 614.90625 142.702148438 627.9296875 c 0
 177.34765625 642.506835938 193.728515625 653.25390625 193.728515625 669.453125 c 0
 193.728515625 678.655273438 199.959960938 714.836914062 207.56640625 747.529296875 c 0
 215.263671875 780.009765625 223.416992188 815.46484375 225.72265625 826.508789062 c 0
 228.633789062 842.3984375 234.962890625 847.064453125 241.119140625 847.064453125 c 0
 253.022460938 847.064453125 270.479492188 829.010742188 270.479492188 799.432617188 c 0
EndSplineSet
EndChar

StartChar: slash
Encoding: 47 47 6
Width: 529
Flags: HW
LayerCount: 2
Back
Fore
SplineSet
440.73046875 693.111328125 m 0
 482.181283702 746.594463482 517.859561236 700.863963003 473.09375 654.887695312 c 0
 419.868082844 600.229158342 347.268005351 367.845936811 143.703125 46.888671875 c 0
 120.587890625 10.443359375 92.5693359375 -38.314453125 81.8974609375 -60.6669921875 c 0
 61.1025390625 -104.221679688 40.755859375 -117.92578125 33.0673828125 -93.5556640625 c 0
 26.2587890625 -71.98046875 52.5166015625 -11.77734375 97.4248046875 54 c 0
 231.228190303 249.980434742 393.455667064 632.112844547 440.73046875 693.111328125 c 0
EndSplineSet
EndChar

StartChar: percent
Encoding: 37 37 7
Width: 746
Flags: HW
HStem: 569.36 54.3535<309.742 487.757> 634.37 58.916<617.035 698.732>
VStem: 32.0117 46.2236<403.267 530.411>
LayerCount: 2
Back
Fore
SplineSet
212.368164062 540.228515625 m 0
 212.12226244 540.994240583 189.93088587 600.881093034 160.206054688 601.442382812 c 0
 130.3046875 602.006835938 78.2353515625 509.770507812 78.2353515625 456.23828125 c 0
 78.2353515625 387.282226562 113.631835938 382.221679688 214.231445312 436.797851562 c 0
 271.051757812 467.623046875 283.5703125 478.40234375 281.297851562 494.541015625 c 0
 275.935952549 532.618993726 224.86550816 501.309405908 212.368164062 540.228515625 c 0
711.640625 675.903320312 m 0
 711.640625 643.955911292 597.46113952 611.295898438 596.137695312 611.295898438 c 0
 579.706054688 611.295898438 550.127929688 577.146484375 516.1953125 519 c 0
 459.102539062 421.166015625 381.916992188 356.579101562 344.645507812 307.662109375 c 0
 289.669935776 235.509580451 237.598519611 143.800503633 177.1953125 64 c 0
 154.140625 33.5419921875 126.350585938 -7.9912109375 115.439453125 -28.296875 c 0
 86.1767578125 -82.751953125 60.298828125 -92.5478515625 61.8017578125 -48.6015625 c 0
 62.5380859375 -27.0947265625 69.68359375 -14.4521484375 130.655273438 73.2294921875 c 0
 132.114646508 75.3280999456 239.450926167 235.161614574 274.415039062 284.587890625 c 0
 380.8359375 435.030273438 497.475585938 568.765625 489.017578125 577.146484375 c 0
 476.192118405 589.853748683 404.13047415 560.372608835 350.227539062 569.360351562 c 0
 306.447265625 576.662109375 298.221679688 568.05078125 316.224609375 533.767578125 c 0
 339.48828125 489.46484375 334.08984375 455.720703125 300.858398438 437.725585938 c 0
 285.108398438 429.196289062 244.0390625 404.454101562 210.505859375 383.291015625 c 0
 133.192382812 334.500976562 105.778320312 332.959960938 63.33203125 375.017578125 c 0
 36.7001953125 401.40625 31.7177734375 412.859375 32.01171875 447.008789062 c 0
 32.4013671875 492.172851562 53.1279296875 542.07421875 94.8818359375 598.375 c 0
 118.853515625 630.697265625 129.466796875 637.090820312 167.657226562 642.215820312 c 0
 257.711658928 654.297340606 237.766894266 612.481542997 380.034179688 623.713867188 c 0
 520.6875 634.819335938 541.716796875 641.16796875 568.193359375 680.518554688 c 0
 584.959960938 705.438476562 599.86328125 709.129882812 616.629882812 692.516601562 c 0
 641.788614463 667.588657828 711.640625 734.917750434 711.640625 675.903320312 c 0
599.154296875 260.590820312 m 0
 585.397460938 274.22265625 582.387695312 273.994140625 560.032226562 257.62109375 c 0
 549.786132812 250.1171875 534.696289062 246.086914062 526.499023438 248.665039062 c 0
 503.533203125 255.889648438 466.245117188 208.905273438 448.065429688 149.834960938 c 0
 415.116210938 42.771484375 468.827148438 20.666015625 551.225585938 107.37890625 c 0
 604.725585938 163.6796875 626.549804688 233.4453125 599.154296875 260.590820312 c 0
498.5546875 299.75390625 m 0
 575.868164062 340.56640625 656.90625 306.826171875 656.90625 233.825195312 c 0
 656.90625 181.126953125 625.236328125 119.376953125 570.279296875 64.9228515625 c 0
 509.732421875 4.9296875 465.190429688 -8.9541015625 425.899414062 19.9208984375 c 0
 386.520507812 48.859375 382.4140625 93.5341796875 411.413085938 177.524414062 c 0
 438.818359375 256.8984375 451.759765625 275.051757812 498.5546875 299.75390625 c 0
EndSplineSet
EndChar

StartChar: ampersand
Encoding: 38 38 8
Width: 597
Flags: HW
VStem: 548.646 13.6113<250.603 254.757>
LayerCount: 2
Back
Fore
SplineSet
265.333984375 94.7705078125 m 0
 265.333984375 102.120600854 174.594726562 176.99799346 174.594726562 187.53125 c 0
 174.594726562 191.491210938 169.552734375 194.791015625 163.50390625 194.791015625 c 0
 151.193359375 194.791015625 96.5166015625 101.22265625 87.14453125 64.119140625 c 2
 80.8291015625 39.11328125 l 1
 123.174804688 44.482421875 l 2
 164.51171875 49.7236328125 265.333984375 85.388671875 265.333984375 94.7705078125 c 0
396.404296875 580.354492188 m 0
 396.404296875 591.39185472 289.844247666 647.037566707 198.916015625 552.122070312 c 0
 173.090820312 525.1640625 169.126953125 513.405273438 166.024414062 454.521484375 c 0
 164.068359375 417.41796875 165.641601562 370.671875 169.552734375 349.661132812 c 2
 176.610351562 311.75 l 1
 196.518554688 331.916015625 l 2
 302.43359375 439.196289062 396.404296875 555.9921875 396.404296875 580.354492188 c 0
249.203125 640.099609375 m 0
 286.450195312 656.684570312 302.639648438 657.38671875 364.140625 645.0859375 c 0
 436.733398438 630.56640625 459.479492188 615.754882812 452.397460938 587.614257812 c 0
 441.947265625 546.091796875 386.149414062 462.587890625 339.748046875 419.030273438 c 0
 275.301757812 358.534179688 204.840820312 270.90625 204.840820312 251.25390625 c 0
 204.840820312 226.260742188 239.120117188 178.060546875 278.44140625 147.767578125 c 2
 313.729492188 120.58203125 l 1
 430.68359375 182.69140625 l 2
 498.234375 218.565429688 548.063476562 250.422851562 548.646484375 258.110351562 c 0
 549.963971629 275.489825674 568.326024988 228.574672528 562.2578125 216.166015625 c 0
 556.015297154 203.40629481 422.689161856 129.986846614 377.751953125 100.8203125 c 2
 351.034179688 83.4775390625 l 1
 411.52734375 33.8701171875 l 2
 444.971679688 6.4453125 478.943359375 -25.578125 494.095703125 -33.6181640625 c 0
 523.461914062 -49.201171875 529.478515625 -80.865234375 504.86328125 -90.2822265625 c 0
 473.792739188 -102.166998379 334.987354728 57.6650390625 313.224609375 57.6650390625 c 0
 307.95703125 57.6650390625 267.350585938 43.224609375 222.989257812 25.5751953125 c 0
 139.305664062 -7.7177734375 104.872070312 -12.8525390625 58.6474609375 1.0693359375 c 0
 32.609375 8.912109375 31.6220703125 11.28515625 35.962890625 55.6484375 c 0
 39.228515625 89.04296875 53.9091796875 124.615234375 88.3896484375 182.69140625 c 2
 136.28125 263.353515625 l 1
 125.299804688 322.236328125 l 2
 106.34765625 423.870117188 110.999023438 485.75390625 141.9140625 543.25 c 0
 169.237304688 594.06640625 192.036132812 614.647460938 249.203125 640.099609375 c 0
EndSplineSet
EndChar

StartChar: quotesingle
Encoding: 39 39 9
Width: 137
Flags: HW
HStem: 491.481 270.223
VStem: 50.6836 37.7646<493.502 762.723>
LayerCount: 2
Back
Fore
SplineSet
51.4072265625 761.704101562 m 0
 51.7265625 762.900390625 56.4453125 763.92578125 61.630859375 763.92578125 c 0
 84.4697265625 763.92578125 88.939453125 746.1484375 88.4482421875 657.258789062 c 0
 87.8017578125 540.22265625 81.64453125 494.595703125 66.0751953125 491.481445312 c 0
 56.9794921875 489.662109375 53.400390625 496.518554688 50.68359375 520.962890625 c 0
 48.0498046875 544.666992188 48.6708984375 751.470703125 51.4072265625 761.704101562 c 0
EndSplineSet
EndChar

StartChar: parenleft
Encoding: 40 40 10
Width: 331
Flags: HW
HStem: -4.89355 35.8936<120.143 158.679>
LayerCount: 2
Back
Fore
SplineSet
210.510742188 773.575195312 m 0
 215.131554276 782.701422241 230.953773685 811.102086774 251.9921875 817.888671875 c 0
 257.176757812 819.563476562 299.399414062 793.62109375 299.399414062 788.759765625 c 0
 299.399414062 785.043945312 289.399414062 776.84765625 276.806640625 770.2421875 c 0
 262.409179688 762.689453125 236.263671875 730.982421875 204.728515625 682.833984375 c 0
 126.298828125 563.084960938 85.640625 414.349609375 76.587890625 228.759765625 c 0
 72.587890625 146.759765625 78.587890625 162.759765625 86.587890625 126.759765625 c 0
 100.725585938 63.1396484375 123.8125 35.94921875 145.04296875 31 c 0
 170.228515625 25.12890625 170.7734375 -1.3046875 145.783203125 -4.8935546875 c 0
 114.720703125 -9.35546875 92.0380859375 9.4638671875 70.447265625 57.6123046875 c 0
 35.1162109375 136.400390625 30.587890625 140.759765625 40.7353515625 280.360351562 c 0
 52.888671875 447.5625 89.546875 588.506835938 158.856445312 690.2421875 c 0
 179.041992188 719.87109375 202.392578125 757.54296875 210.510742188 773.575195312 c 0
EndSplineSet
EndChar

StartChar: parenright
Encoding: 41 41 11
Width: 282
Flags: HW
VStem: 198.384 28.2275<290.333 456.259>
LayerCount: 2
Back
Fore
SplineSet
99.0654296875 760.703125 m 0
 83.4161511577 783.224656753 113.1602075 797.187004312 122.166992188 795.431640625 c 0
 136.133789062 792.7109375 192.380859375 702.184570312 203.577148438 664.407226562 c 0
 250.779296875 505.147460938 255.686523438 464.49609375 238.625976562 374.037109375 c 0
 232.060546875 339.221679688 226.611328125 301.263671875 226.611328125 290.333007812 c 0
 226.611328125 244.334960938 169.70703125 105.888671875 130.40234375 56.2587890625 c 0
 96.962890625 14.037109375 55.1640625 -25.22265625 43.6484375 -25.22265625 c 0
 23.5458984375 -25.22265625 27.5029296875 -8.185546875 54.830078125 22.92578125 c 0
 86.451171875 58.9248046875 126.805664062 131.07421875 152.1953125 197 c 0
 173.543945312 252.436523438 197.715820312 388.110351562 198.383789062 456.258789062 c 0
 199.248046875 544.407226562 154.901367188 680.344726562 99.0654296875 760.703125 c 0
EndSplineSet
EndChar

StartChar: asterisk
Encoding: 42 42 12
Width: 344
Flags: HW
HStem: 582.37 44.4443<205.314 299.342>
VStem: 136.815 67.7773<652 714.593> 141.178 53.9414<725.762 749.66>
LayerCount: 2
Back
Fore
SplineSet
141.177734375 759.407226562 m 0
 154.208007812 780.569335938 200.08203125 753.481445312 195.119140625 727.555664062 c 0
 192.170898438 712.1484375 194.22265625 712.592773438 232.741210938 735.704101562 c 0
 264.592773438 754.814453125 275.744140625 758.208984375 283.852539062 751.258789062 c 0
 292.422851562 743.913085938 286.4453125 735.427734375 249.408203125 702.370117188 c 0
 224.962890625 680.551757812 204.592773438 657.65625 204.592773438 652 c 0
 204.592773438 636.708984375 229.037109375 626.814453125 266.815429688 626.814453125 c 0
 295.704101562 626.814453125 300.889648438 624.560546875 300.889648438 612 c 0
 300.889648438 593.38671875 279.408203125 582.370117188 243.111328125 582.370117188 c 0
 217.185546875 582.370117188 212.37109375 579.592773438 204.592773438 560.1484375 c 0
 199.555664062 547.555664062 191.209960938 537.92578125 185.333984375 537.92578125 c 0
 172.741210938 537.92578125 160.1484375 561.629882812 160.1484375 585.333007812 c 0
 160.1484375 595.704101562 157.21484375 605.657226562 153.481445312 607.954101562 c 0
 147.884765625 611.3984375 107.006835938 567.555664062 79.9013671875 529.037109375 c 0
 74.689453125 521.629882812 65.91015625 515.704101562 60.1484375 515.704101562 c 0
 39.7041015625 515.704101562 48.9951171875 545.333007812 83.376953125 589.77734375 c 0
 102.287109375 614.22265625 114.900390625 637.235351562 112 642 c 0
 103.941691366 655.241968005 38.7751423573 674.608820897 43.1572265625 687.555664062 c 0
 47.9404296875 701.688476562 92 703.470703125 112 690.338867188 c 0
 121.629882812 684.016601562 131.645507812 678.666992188 133.852539062 678.666992188 c 0
 139.92461663 678.666992188 133.209466847 746.466453625 141.177734375 759.407226562 c 0
EndSplineSet
EndChar

StartChar: plus
Encoding: 43 43 13
Width: 513
Flags: HW
HStem: 339.924 41.4658<278.226 466.04>
VStem: 225.811 44.7852<134.051 321.506> 239.356 38.7451<384.08 594.944>
LayerCount: 2
Back
Fore
SplineSet
239.356445312 517.611328125 m 0
 231.704771486 560.950472352 250.008432193 616.771491272 280.518554688 594.9375 c 0
 293.483398438 585.659179688 293.7109375 574.388671875 282.879882812 478.677734375 c 0
 278.657226562 441.3671875 276.466796875 386.692382812 278.1015625 384.8515625 c 0
 279.725585938 383.025390625 347.879882812 380.36328125 390.1015625 381.389648438 c 0
 470.842773438 383.3515625 488.983398438 377.046875 466.3984375 354.872070312 c 0
 447.647993673 336.462272393 358.255066542 345.424621757 274.595703125 322 c 1
 273.595703125 312 270.927734375 267.842773438 270.595703125 223 c 0
 269.981445312 140.037109375 269.2578125 136.239257812 253.657226562 134.124023438 c 0
 231.4453125 131.112304688 226.166992188 151.888671875 225.810546875 243.741210938 c 2
 225.509765625 321.518554688 l 1
 172.694335938 316.92578125 l 2
 126.25390625 312.887695312 79.8837890625 311.279296875 70.1015625 307.541992188 c 0
 36.0283203125 294.525390625 27.1962890625 320.102539062 57.509765625 344.013671875 c 0
 90.685182039 370.183838646 203.264476324 355.570140387 224.028320312 376.333984375 c 0
 233.958007812 386.263671875 244.415039062 488.951171875 239.356445312 517.611328125 c 0
EndSplineSet
EndChar

StartChar: comma
Encoding: 44 44 14
Width: 183
Flags: HW
VStem: 42.4365 28.1484<-171.483 -125.476>
LayerCount: 2
Back
Fore
SplineSet
73.5478515625 -10.37109375 m 0
 73.6814283872 -9.5161893926 93.8274081989 98.7169748129 129.58984375 55.5556640625 c 0
 158.486200702 20.6800320962 70.5849609375 -144.76333783 70.5849609375 -162.962890625 c 0
 70.5849609375 -171.111328125 48.1708984375 -180.548828125 42.4365234375 -174.815429688 c 0
 37.3384746492 -169.717380898 67.689630311 -47.8625891051 73.5478515625 -10.37109375 c 0
EndSplineSet
EndChar

StartChar: hyphen
Encoding: 45 45 15
Width: 489
Flags: HW
HStem: 304.824 42.3555<62.6734 432.371>
LayerCount: 2
Back
Fore
SplineSet
65.3681640625 347.1796875 m 0
 74.359375 350.551757812 158.702148438 352.98828125 253.516601562 352.616210938 c 0
 432.03515625 351.9140625 455.043945312 348.151367188 430.553710938 323.661132812 c 0
 394.58966767 287.699204706 172.152679583 316.087609928 108.331054688 304.032226562 c 0
 32.2098077831 289.651703895 42.4720741798 338.593653794 65.3681640625 347.1796875 c 0
EndSplineSet
EndChar

StartChar: period
Encoding: 46 46 16
Width: 147
Flags: HW
VStem: 45.0303 56.0195<10.6752 58.2723>
LayerCount: 2
Back
Fore
SplineSet
50.287109375 67.111328125 m 0
 56.1123046875 76.5546875 101.049804688 61.4072265625 101.049804688 50 c 0
 101.049804688 41.2548828125 88.01171875 18.80859375 76.6044921875 7.9130859375 c 0
 65.197265625 -2.9814453125 64.41015625 -3.1240234375 53.7900390625 3.759765625 c 0
 43.3134765625 10.5498046875 42.896484375 12.111328125 45.0302734375 36.5556640625 c 0
 46.275390625 50.8154296875 48.611328125 64.3955078125 50.287109375 67.111328125 c 0
EndSplineSet
EndChar

StartChar: zero
Encoding: 48 48 17
Width: 395
Flags: HW
LayerCount: 2
Back
Fore
SplineSet
283.379882812 578.5625 m 0
 224.501953125 609.799804688 156.025390625 587.65625 154.65234375 544.514648438 c 0
 154.129882812 528.116210938 154.247070312 532.259765625 125.041015625 522.22265625 c 0
 111.475585938 517.561523438 105.665039062 508.525390625 96.5263671875 477.873046875 c 0
 76.33203125 410.150390625 75.6796875 195.4921875 92.9775390625 135 c 0
 113.557617188 63.03125 134.7890625 40.49609375 164.657226562 51.580078125 c 0
 177.403320312 56.310546875 236.141601562 135.724609375 235.220703125 145.452148438 c 0
 234.97265625 148.069335938 251.196289062 167.725585938 259.508789062 193.35546875 c 0
 292.6796875 295.627929688 324.926757812 456.420898438 318.826171875 523.848632812 c 0
 316.016601562 554.895507812 313.150390625 562.768554688 283.379882812 578.5625 c 0
145.383789062 598.8828125 m 0
 165.762602352 619.932101518 215.891049104 643.96073181 242.958984375 646.56640625 c 0
 287.310546875 650.8359375 342.533203125 601.765625 356.236328125 545.904296875 c 0
 364.537109375 512.05859375 343.577148438 394.193359375 338.254882812 348 c 0
 316.715300408 161.05641964 197.43350979 -55.9949087254 108.309570312 14.0126953125 c 0
 97.435546875 22.5556640625 80.3916015625 45.126953125 70.23046875 64.4384765625 c 0
 53.818359375 95.634765625 50.95703125 109.05859375 43.6513671875 189.0859375 c 0
 35.7158203125 276.012695312 34.185546875 385.48046875 52.046875 471.190429688 c 0
 73.4228515625 573.767578125 80.3671875 587.518554688 109.352539062 584.641601562 c 0
 123.938476562 583.193359375 134.073242188 587.198242188 145.383789062 598.8828125 c 0
EndSplineSet
EndChar

StartChar: one
Encoding: 49 49 18
Width: 332
Flags: HW
HStem: 294.082 60.043<41.85 92.543>
VStem: 34.3301 261.008
LayerCount: 2
Back
Fore
SplineSet
255.065429688 620.29296875 m 0
 259.044921875 639.318359375 293.46484375 644.133789062 295.337890625 625.926757812 c 0
 299.021425304 590.125828298 208.435260245 99.2642127027 230.705078125 23.1435546875 c 0
 237.73828125 -0.896484375 236.92578125 -4.4189453125 224.05078125 -5.7431640625 c 0
 215.779296875 -6.5947265625 205.088867188 -4.09765625 199.524414062 -0.013671875 c 0
 184.634765625 10.9150390625 181.005859375 76.5009765625 192.219726562 132 c 0
 201.29109049 176.894666299 193.900349935 227.013244105 232.54296875 432.930664062 c 0
 237.815429688 461.024414062 239.510742188 485.424804688 236.293945312 486.930664062 c 0
 233.086914062 488.432617188 213.192382812 462.586914062 192.41015625 429.916015625 c 0
 154.90234375 370.952148438 81.787109375 296.409179688 59.1787109375 294.08203125 c 0
 45.1787109375 292.642578125 28.0703125 313.953125 34.330078125 325.03515625 c 0
 36.783203125 329.375976562 54.94140625 342.495117188 74.59375 354.125 c 0
 100.97265625 369.733398438 121.244140625 391.318359375 151.634765625 436.146484375 c 0
 197.758789062 504.1875 250.37109375 597.858398438 255.065429688 620.29296875 c 0
EndSplineSet
EndChar

StartChar: two
Encoding: 50 50 19
Width: 499
Flags: HW
LayerCount: 2
Back
Fore
SplineSet
303.798828125 633.547851562 m 0
 336.192382812 641.323242188 358.470703125 637.73828125 382.427734375 620.893554688 c 0
 410.432617188 601.202148438 414.931640625 580.20703125 405.331054688 514.005859375 c 0
 399.237304688 471.982421875 392.231445312 436.22265625 372.434570312 375.328125 c 0
 356.9140625 327.58203125 247.310546875 163.075195312 227.025390625 140.374023438 c 0
 206.915039062 117.869140625 189.676757812 94.4814453125 189.354492188 89.2685546875 c 0
 189.01953125 83.8623046875 198.780273438 73.681640625 211.6640625 66 c 0
 291.573464448 18.3451506668 466.586318927 131.805717127 463.63671875 84.1806640625 c 0
 463.362304688 79.7294921875 426.60546875 61.404296875 382.466796875 43.7109375 c 0
 279.727539062 2.529296875 241.076171875 -0.1630859375 185.689453125 30.005859375 c 0
 142.05078125 53.775390625 150.942382812 56.181640625 81.529296875 1.8203125 c 0
 62.810546875 -12.8388671875 44.158203125 -22.802734375 39.31640625 -20.7275390625 c 0
 29.3271484375 -16.447265625 34.0654296875 17.9775390625 48.099609375 43.0859375 c 0
 58.927734375 62.4541015625 113.270507812 97.8291015625 131.213867188 97.1875 c 0
 153.51953125 96.392578125 184.364257812 125.201171875 224.500976562 184.318359375 c 0
 301.390625 297.564453125 390.896484375 539.111328125 370.444335938 574.79296875 c 0
 350.529296875 609.536132812 284.471679688 597.038085938 210.721679688 544.57421875 c 0
 179.669921875 522.482421875 178.258789062 519.974609375 181.116210938 491.877929688 c 0
 183.775390625 465.739257812 182.34765625 462.486328125 168.588867188 463.336914062 c 0
 153.802734375 464.250976562 124.671875 497.223632812 125.5859375 512.009765625 c 0
 125.921106296 517.427514879 212.056919856 611.52331869 303.798828125 633.547851562 c 0
EndSplineSet
EndChar

StartChar: three
Encoding: 51 51 20
Width: 439
Flags: HW
LayerCount: 2
Back
Fore
SplineSet
139.568359375 625.443359375 m 0
 200.393554688 641.489257812 301.795898438 618.748046875 320.369140625 584.896484375 c 0
 335.802734375 556.767578125 331.141601562 530.370117188 301.962890625 480.627929688 c 0
 287.126953125 455.334960938 276.452148438 430.489257812 278.478515625 425.96484375 c 0
 280.567382812 421.301757812 292.350585938 417.330078125 305.411132812 416.889648438 c 0
 351.84375 415.325195312 405.6796875 278.412109375 403.89453125 225.45703125 c 0
 402.8828125 195.400390625 370.041992188 126.14453125 343.688476562 98.4892578125 c 0
 314.323242188 67.6708984375 241.79296875 4.5302734375 223.21484375 -6.390625 c 0
 214.541015625 -11.4892578125 188.064453125 -14.876953125 163.397460938 -14.0478515625 c 0
 110.434570312 -12.2626953125 91.431640625 5.7880859375 93.015625 52.8046875 c 0
 94.51953125 97.4599609375 113.149414062 100.436523438 141.915039062 60.615234375 c 0
 172.559570312 18.1943359375 192.823242188 18.58984375 244.424804688 62.61328125 c 0
 287.799804688 99.62109375 347.307617188 174.793945312 356.232421875 203.849609375 c 0
 364.958984375 232.264648438 352.126953125 337.51953125 328.063476562 356.284179688 c 0
 244.986141725 421.064667838 190.548084786 292.222825441 164.135742188 319.813476562 c 0
 148.575195312 336.06640625 153.432617188 347.073242188 197.163085938 394.655273438 c 0
 219.782226562 419.264648438 238.737304688 442.896484375 238.862304688 446.643554688 c 0
 238.993164062 450.498046875 249.059570312 468.654296875 261.793945312 488 c 0
 292.797851562 535.099609375 292.208007812 552.483398438 259.008789062 570.270507812 c 0
 216.03125 593.297851562 143.3203125 585.90625 96.4775390625 553.74609375 c 0
 53.3525390625 524.139648438 50.4951171875 523.561523438 38.3857421875 541.952148438 c 0
 31.3544921875 552.629882812 32.4423828125 558.48828125 44.09375 572.7109375 c 0
 63.3896484375 596.265625 94.865234375 613.651367188 139.568359375 625.443359375 c 0
EndSplineSet
EndChar

StartChar: four
Encoding: 52 52 21
Width: 424
Flags: HW
HStem: 307 36.4814<300.813 389.916>
VStem: 248.463 45<37.768 301.597>
LayerCount: 2
Back
Fore
SplineSet
87.095703125 607.481445312 m 0
 89.792247613 628.454245723 97.2616969964 654.483314555 117.8359375 650.197265625 c 0
 134.620117188 646.700195312 131.883789062 610.444335938 108.462890625 526 c 0
 88.3291015625 453.407226562 81.302734375 360.646484375 83.46484375 346.834960938 c 0
 84.94140625 337.40234375 224.356445312 346.987304688 237.7109375 357.438476562 c 0
 246.040039062 363.95703125 241.146484375 513.05859375 253.051757812 598.984375 c 0
 256.438476562 623.428710938 261.32421875 633.009765625 271.373046875 634.91015625 c 0
 278.78125 636.311523438 287.799804688 634.610351562 291.002929688 631.20703125 c 0
 294.276367188 627.728515625 292.375 590.095703125 286.755859375 547.1328125 c 0
 273.190429688 443.428710938 281.770507812 341.322265625 309.104492188 343.481445312 c 0
 321.252929688 344.440429688 345.787109375 341.841796875 362.578125 337.81640625 c 0
 390.319335938 331.166015625 392.99609375 328.932617188 387.85546875 316.724609375 c 0
 383.256835938 305.801757812 369.670898438 306.28515625 319.462890625 307 c 0
 307.543945312 307.169921875 300.331054688 312.754882812 293.462890625 246 c 0
 280.456054688 119.58984375 283.547851562 -15.5029296875 266.233398438 -15.5029296875 c 0
 250.572265625 -15.5029296875 246.462890625 10 248.462890625 44 c 0
 249.33984375 58.921875 247.462890625 192 248.267578125 222.666992188 c 0
 249.147460938 256.220703125 251.67578125 271.2890625 251.767578125 283.303710938 c 0
 251.943359375 306.369140625 184.752929688 309.658203125 142.65234375 303.202148438 c 0
 125.11328125 300.512695312 95.1005859375 298.118164062 75.703125 297.860351562 c 0
 40.94921875 297.399414062 40.4921875 297.591796875 36.0283203125 314.56640625 c 0
 23.7716410224 361.169601498 78.4041432396 539.882489712 87.095703125 607.481445312 c 0
EndSplineSet
EndChar

StartChar: five
Encoding: 53 53 22
Width: 439
Flags: HW
VStem: 56.1924 44.7187<396.212 572.838>
LayerCount: 2
Back
Fore
SplineSet
128.079101562 623.999023438 m 0
 167.512006021 619.145742889 409.419441658 678.42015556 404.05859375 634.837890625 c 0
 402.711914062 623.887695312 376.620117188 618.061523438 252.881835938 601.078125 c 0
 192.909179688 592.846679688 122.41796875 588.962890625 110.19921875 559 c 0
 105.58203125 547.677734375 99.2333984375 438.26953125 100.911132812 423.381835938 c 2
 103.97265625 396.211914062 l 1
 135.178710938 408.537109375 l 2
 178.869140625 425.79296875 220.041015625 413.545898438 241.19921875 377 c 0
 255.154296875 352.896484375 339.739257812 224.802734375 330.19921875 177 c 0
 311.928710938 85.4482421875 178.770507812 14.2021484375 118.467773438 2.9150390625 c 0
 84.8154296875 -3.3837890625 56.4443359375 15.2607421875 44.8828125 51.2724609375 c 0
 33.96875 85.2646484375 52.4833984375 87.8193359375 80.259765625 56.150390625 c 0
 100.956054688 32.5546875 104.072265625 31.4423828125 122.850585938 40.9365234375 c 0
 153.108398438 56.234375 256.975585938 92.6181640625 279.231445312 135.391601562 c 0
 320.033203125 213.80859375 214.18359375 385.869140625 157.586914062 370.701171875 c 0
 142.810546875 366.741210938 117.325195312 352.103515625 101.76171875 338.637695312 c 0
 59.2041015625 301.818359375 49.8564453125 311.159179688 56.1923828125 384.17578125 c 0
 60.7568359375 436.779296875 63.8046875 530.663085938 49.4443359375 546.170898438 c 0
 2.53321035748 596.829144102 103.51453572 627.019662169 128.079101562 623.999023438 c 0
EndSplineSet
EndChar

StartChar: six
Encoding: 54 54 23
Width: 338
Flags: HW
VStem: 38.0176 40.8047<337.274 502.153>
LayerCount: 2
Back
Fore
SplineSet
202.391601562 289.288085938 m 0
 117.948242188 307.551757812 61.0126953125 306.171875 98.365234375 149.306640625 c 0
 112.178710938 91.2978515625 121.963867188 70.3916015625 132.813476562 63.4990234375 c 0
 147.639648438 54.080078125 186.684570312 42 212.916992188 76.7568359375 c 0
 227.400390625 95.9462890625 221.576171875 108.79296875 233.012695312 134.787109375 c 0
 256.325195312 187.774414062 270.263671875 255.385742188 256.48828125 269.834960938 c 0
 228.684570312 299 222.930664062 284.845703125 202.391601562 289.288085938 c 0
81.255859375 577.736328125 m 0
 100.368164062 617.250976562 108.848632812 626.579101562 131.078125 632.53515625 c 0
 163.25390625 641.15625 255.168945312 642.81640625 277.751953125 610.063476562 c 0
 299.821289062 578.055664062 294.221679688 569.831054688 260.684570312 585 c 0
 235.274414062 596.493164062 157.841796875 586.825195312 142.061523438 570.705078125 c 0
 105.924804688 533.788085938 85.1435546875 484.416015625 80.3291015625 424.038085938 c 0
 77.669921875 390.6953125 76.9951171875 358.133789062 78.822265625 351.317382812 c 0
 82.5771484375 337.30078125 99.537109375 333.5390625 128.00390625 340.404296875 c 0
 159.466796875 347.9921875 241.102539062 335.026367188 269.053710938 308.477539062 c 0
 305.120117188 274.220703125 314.940429688 242.283203125 280.1484375 146.53515625 c 0
 264.172851562 102.568359375 249.743164062 58.3310546875 247.684570312 47 c 0
 242.688476562 19.5107421875 156.920898438 -2.6552734375 129.375 7.875 c 0
 48.2597812974 38.8851949653 -3.75014238853 401.997420274 81.255859375 577.736328125 c 0
EndSplineSet
EndChar

StartChar: seven
Encoding: 55 55 24
Width: 452
Flags: HW
VStem: 227.019 37.3145<0.624053 245.893>
LayerCount: 2
Back
Fore
SplineSet
85.0537109375 654.267578125 m 0
 90.8818359375 666.981445312 122.87890625 662.5078125 132.322265625 647.661132812 c 0
 141.729492188 632.872070312 145.518554688 632.627929688 209.361328125 642.702148438 c 0
 323.563987142 660.720709139 328.785703028 689.685801593 349.643554688 672.548828125 c 0
 359.641601562 664.334960938 359.33203125 654.004882812 347.3203125 595.076171875 c 0
 339.62109375 557.301757812 329.724609375 511.918945312 325.0546875 492.966796875 c 0
 320.383789062 474.013671875 316.022460938 446.083984375 315.239257812 430.125976562 c 0
 313.99609375 404.759765625 298.296875 345.654296875 310.391601562 350.319335938 c 0
 450.726627759 404.460498842 432.463611771 290.649868099 375.63671875 315.176757812 c 0
 359.470703125 322.154296875 296.73828125 308.494140625 287.571289062 296 c 0
 280.36328125 286.177734375 262.796875 60.3701171875 264.333007812 42.6591796875 c 0
 265.100585938 33.8037109375 261.426757812 20.609375 255.7578125 11.873046875 c 0
 245.838867188 -3.4140625 245.838867188 -3.4140625 229.594726562 13.115234375 c 0
 209.34375 33.72265625 209.25390625 36.7490234375 227.018554688 99.8544921875 c 0
 247.993164062 174.366210938 242.626953125 289.4140625 237.047851562 291.98828125 c 0
 234.056640625 293.3671875 210.459960938 289.948242188 184.158203125 284.321289062 c 0
 75.3037109375 261.033203125 97.5166015625 270.741210938 81.83984375 280.5 c 0
 53.3310546875 298.245117188 75.638671875 311.442382812 164.131835938 329.186523438 c 0
 199.243141721 336.225874435 174.807725721 329.915725584 243.84375 341.533203125 c 0
 248.443359375 342.30859375 274.235351562 427.576171875 280.022460938 461.481445312 c 0
 285.811523438 495.387695312 294.428710938 543.70703125 298.98046875 567.78515625 c 0
 303.544921875 591.931640625 305.892578125 612.991210938 304.163085938 614.275390625 c 0
 299.139372788 618.002020774 216.633744 593.176265212 157.483398438 594.690429688 c 0
 115.782226562 595.760742188 115.383789062 595.571289062 112.389648438 573.233398438 c 0
 107.985600517 540.357521114 65.9550496114 452.825073436 67.79296875 429.943359375 c 0
 69.4541015625 409.270507812 57.7802734375 400.884765625 42.4990234375 411.775390625 c 0
 10.0016021341 434.941650486 72.8419645437 556.381578267 79.3095703125 619.623046875 c 0
 80.9208984375 635.358398438 83.490234375 650.856445312 85.0537109375 654.267578125 c 0
EndSplineSet
EndChar

StartChar: eight
Encoding: 56 56 25
Width: 349
Flags: HW
LayerCount: 2
Back
Fore
SplineSet
139.708007812 363.587890625 m 0
 159.612304688 349.880859375 179.034179688 338.4921875 181.852539062 338.94921875 c 0
 185.938721844 339.610338689 268.50475679 446.491294977 261.622070312 489 c 0
 251.056640625 554.248046875 195.223632812 569.381835938 180.998046875 567.078125 c 0
 172.264648438 565.6640625 131.627929688 559.231445312 104.622070312 521 c 0
 77.005859375 481.90625 90.7216796875 449.96484375 95.2099609375 422.247070312 c 0
 99.3583984375 396.625 107.3515625 385.87109375 139.708007812 363.587890625 c 0
105.950195312 98.4208984375 m 0
 129.384765625 28.8876953125 164.545898438 38.162109375 227.823242188 83.630859375 c 0
 261.333007812 107.709960938 265.931640625 114.381835938 265.048828125 128.427734375 c 0
 261.982421875 177.2109375 195.53125 271.239257812 166.264648438 265.794921875 c 0
 154.162109375 263.543945312 136.067382812 241.984375 105.384765625 180.921875 c 0
 83.12109375 136.615234375 93.6220703125 135 105.950195312 98.4208984375 c 0
247.380859375 34.16015625 m 0
 221.190429688 13.7099609375 194.375 -1.42578125 177.044921875 -4.232421875 c 0
 147.389648438 -9.0341796875 103.206054688 15.41796875 64.30078125 71.7890625 c 0
 52.8015203029 88.4504943842 39.2333277494 108.109628746 60.5888671875 195.693359375 c 0
 64.662109375 212.403320312 61.8798828125 218.287109375 86.1513671875 244.640625 c 0
 130.676757812 292.984375 120.17578125 311.518554688 93.302734375 336.211914062 c 0
 30.515625 393.904296875 22.201171875 470.442382812 58.6220703125 540 c 0
 121.534179688 660.15234375 266.508789062 651.467773438 305.622070312 520 c 0
 325.467773438 453.293945312 285.875 407.955078125 236.555664062 338.208007812 c 0
 218.279296875 312.361328125 217.3671875 308.055664062 247.771484375 274.060546875 c 0
 288.193359375 228.864257812 302.046875 203.9609375 305.688476562 158.161132812 c 0
 310.131835938 102.26953125 294.9140625 71.2744140625 247.380859375 34.16015625 c 0
EndSplineSet
EndChar

StartChar: nine
Encoding: 57 57 26
Width: 322
Flags: HW
HStem: -0.538086 45.332<51.1386 177.625>
VStem: 228.27 53<115.674 391.332>
LayerCount: 2
Back
Fore
SplineSet
192.596679688 601.396484375 m 0
 178.028320312 614.627929688 135.137695312 596.899414062 115.34765625 582.033203125 c 0
 93.642578125 565.728515625 86.20703125 512.948242188 84.1357421875 460.24609375 c 0
 81.66796875 397.467773438 85.697265625 371.713867188 107.26953125 361 c 0
 121.024414062 354.166992188 128.098632812 350.282226562 152.58203125 379.38671875 c 0
 225.45703125 466.018554688 248.288085938 550.817382812 192.596679688 601.396484375 c 0
71.1591796875 586.676757812 m 0
 105.647460938 639.22265625 154.137695312 661.713867188 201.409179688 637.19921875 c 0
 228.73828125 623.026367188 235.27734375 614.854492188 254.447265625 570.912109375 c 0
 270.622070312 533.834960938 277.598632812 495.51953125 277.56640625 468.59375 c 0
 277.544921875 449.854492188 275.82421875 471.232421875 281.26953125 335 c 0
 287.901367188 169.084960938 286.581054688 -4.58203125 105.090820312 -0.5380859375 c 0
 67.7529296875 0.2939453125 48.646484375 18.361328125 44.5263671875 33.7392578125 c 0
 34.9766737955 69.3759185191 111.043494516 32.3892759649 151.63671875 43.267578125 c 0
 177.71484375 50.255859375 218.860351562 106.6328125 228.26953125 159 c 0
 235.796875 200.89453125 227.916015625 353.021484375 229.655273438 392.5390625 c 0
 231.548828125 435.557617188 188.505859375 364.711914062 176.255859375 348.272460938 c 0
 157.677734375 323.341796875 108.072265625 307.776367188 94.26953125 316 c 0
 43.4189453125 346.297851562 2.75390625 482.456054688 71.1591796875 586.676757812 c 0
EndSplineSet
EndChar

StartChar: colon
Encoding: 58 58 27
Width: 167
Flags: HW
HStem: -7.44434 89.3496<64.7366 100.906>
VStem: 42.7607 63.2568<-4.67889 79.243>
LayerCount: 2
Back
Fore
SplineSet
57.3662109375 291.4453125 m 0
 44.6362795921 313.995165201 69.5703327545 403.708964122 106.279296875 367 c 0
 117.389648438 355.889648438 118.31640625 326.7421875 107.760742188 320.364257812 c 0
 103.830078125 317.990234375 100.352539062 307.37109375 100.352539062 297.741210938 c 0
 100.352539062 283.666992188 96.279296875 279.592773438 82.205078125 279.592773438 c 0
 72.5751953125 279.592773438 60.916015625 285.15625 57.3662109375 291.4453125 c 0
64.3359375 79.962890625 m 0
 72.9384765625 90.8984375 77.9453125 91.154296875 102.390625 81.9052734375 c 0
 125.723632812 73.076171875 126.176757812 65.888671875 106.017578125 24.4072265625 c 0
 93.05859375 -2.2587890625 86.9814453125 -7.4443359375 68.6865234375 -7.4443359375 c 0
 56.09375 -7.4443359375 45.1083984375 -2.736328125 42.7607421875 3.6669921875 c 0
 38.5458984375 15.1611328125 52.681640625 65.1484375 64.3359375 79.962890625 c 0
EndSplineSet
EndChar

StartChar: semicolon
Encoding: 59 59 28
Width: 264
Flags: HW
LayerCount: 2
Back
Fore
SplineSet
149.696289062 346.533203125 m 0
 167.096679688 377.64453125 185.813476562 383.396484375 209.784179688 365 c 0
 230.048828125 349.448242188 225.059570312 328.014648438 193.067382812 293.200195312 c 2
 163.1171875 260.607421875 l 1
 148.051757812 278.385742188 l 2
 129.548828125 300.217773438 129.80859375 310.977539062 149.696289062 346.533203125 c 0
142.646484375 43.5927734375 m 0
 147.135125457 59.7009146895 161.039692537 98.3289326033 185.321289062 69.5185546875 c 0
 196.3671875 56.4130859375 188.927734375 1.37109375 173.806640625 -15.666015625 c 0
 157.954101263 -33.5276736125 86.5210315731 -201.815809349 52.8349609375 -207.078125 c 0
 35.216365589 -209.831030523 28.7780044516 -210.837024451 74.9541015625 -119.370117188 c 0
 105.990234375 -57.888671875 131.438476562 3.3759765625 142.646484375 43.5927734375 c 0
EndSplineSet
EndChar

StartChar: less
Encoding: 60 60 29
Width: 482
Flags: HW
LayerCount: 2
Back
Fore
SplineSet
215.703125 511.259765625 m 0
 299.407226562 591.87890625 329.046875 616.135742188 343.8515625 616.135742188 c 0
 389.893554688 616.135742188 347.221679688 557.12890625 245 465 c 0
 146.481445312 376.208984375 76.3536762338 325.85561786 105 295 c 0
 115.889648438 283.270507812 176.333984375 248.409179688 203 240 c 0
 229.321289062 231.69921875 266.500878904 213.054394531 295.852539062 203.270507812 c 0
 358.852539062 182.270507812 384.962890625 180 418.962890625 157 c 0
 443.620117188 140.3203125 454.184570312 131.168945312 431.962890625 121 c 0
 417.69921875 114.47265625 392.60546875 113.422851562 363.852539062 126.270507812 c 0
 316.852539062 147.270507812 329.115234375 140.450195312 233.555664062 170.916015625 c 0
 110.962890625 210 62.5556640625 265.627929688 48.861328125 286.505859375 c 0
 23.8037109375 324.708007812 28.2958984375 330.758789062 215.703125 511.259765625 c 0
EndSplineSet
EndChar

StartChar: equal
Encoding: 61 61 30
Width: 474
Flags: HW
HStem: 227.268 42.0098<66.0708 392.859> 250.893 27.3047<369.575 419.351> 383 47.6934<46.4918 354.813> 390.407 42.1094<105.022 391.39>
LayerCount: 2
Back
Fore
SplineSet
93.7705078125 430.693359375 m 0
 120.190429688 434.424804688 316.733398438 435.640625 388.584960938 432.516601562 c 0
 391.74609375 432.37890625 393.474609375 424.481445312 392.2890625 415.591796875 c 0
 390.236328125 400.1953125 384.140625 398.276367188 312.2890625 390.407226562 c 0
 269.35546875 385.705078125 193.030273438 382.38671875 141.918945312 383 c 0
 58.21484375 384.00390625 49.0712890625 385.461914062 46.6708984375 398.184570312 c 0
 43.0048828125 417.61328125 53.7705078125 425.043945312 93.7705078125 430.693359375 c 0
184.881835938 269.27734375 m 0
 289.816794866 261.406311673 368.488580084 283.23863119 402.659179688 278.197265625 c 0
 423.400390625 275.13671875 436.983398438 255.879882812 421.918945312 250.892578125 c 0
 317.852022627 216.437234099 150.182616195 231.611632936 103.400390625 217.215820312 c 0
 78.9560546875 209.694335938 55.7158203125 224.216796875 62.73046875 242.62890625 c 0
 71.751953125 266.3125 110.807617188 274.833007812 184.881835938 269.27734375 c 0
EndSplineSet
EndChar

StartChar: greater
Encoding: 62 62 31
Width: 449
Flags: HW
LayerCount: 2
Back
Fore
SplineSet
41.9931640625 582 m 0
 55.828125 604.372070312 113.435546875 573.908203125 209.732421875 493.295898438 c 0
 374.118019143 355.685070969 408.250976562 327.111615676 408.250976562 322 c 0
 408.250976562 315.857421875 368.250976562 285.704101562 360.102539062 285.704101562 c 0
 339.560546875 285.704101562 224.916992188 203.481445312 175.227539062 153.111328125 c 0
 116.76953125 93.8515625 89.732421875 79.09375 89.732421875 106.444335938 c 0
 89.732421875 139.438476562 200.102539062 250.896484375 308.250976562 327.114257812 c 0
 322.545898438 337.189453125 321.583984375 338.931640625 280.84375 376.76171875 c 0
 207.509765625 444.857421875 142.673828125 495.87109375 97.1396484375 521.302734375 c 0
 53.435546875 545.711914062 33.2744140625 567.90234375 41.9931640625 582 c 0
EndSplineSet
EndChar

StartChar: question
Encoding: 63 63 32
Width: 341
Flags: HW
HStem: 581 51.0947<144.201 253.295>
VStem: 124.911 32.8125<209.517 270.464>
LayerCount: 2
Back
Fore
SplineSet
73.58203125 556.555664062 m 0
 120.857394119 606.632847364 155.662192586 630.349866566 234.094726562 632.094726562 c 0
 273.353515625 632.966796875 298.817382812 611.8203125 301.501953125 581.740234375 c 0
 307.723632812 512.025390625 257.620117188 456.056640625 207.134765625 346.82421875 c 0
 184.564453125 297.990234375 162.365234375 243.717773438 157.723632812 226.025390625 c 0
 148.758789062 191.853515625 129.368164062 192.61328125 124.911132812 227.311523438 c 0
 111.982574821 327.903531039 256.470546897 551.66715057 256.864257812 571.370117188 c 0
 256.995117188 577.911132812 244.46484375 581 217.797851562 581 c 0
 171.131835938 581 117.119140625 551.189453125 98.3486328125 515.07421875 c 0
 85.2587890625 489.888671875 60.7958984375 479.594726562 45.205078125 492.709960938 c 0
 29.0439453125 506.306640625 31.623046875 512.110351562 73.58203125 556.555664062 c 0
126.168945312 55.4189453125 m 0
 134.0234375 63.2744140625 161.724609375 60.25 175.797851562 50 c 0
 191.63671875 38.4658203125 189.131835938 9.21484375 171.353515625 -1.896484375 c 0
 161.279296875 -8.1923828125 155.057617188 -6.2802734375 140.2421875 7.6630859375 c 0
 121.724609375 25.091796875 115.833007812 45.0830078125 126.168945312 55.4189453125 c 0
EndSplineSet
EndChar

StartChar: at
Encoding: 64 64 33
Width: 696
Flags: HW
HStem: -188.841 36.0762<158.438 397.55>
VStem: 43.3867 42.9629<-78.2835 162.588> 385.806 73.8779<126.834 200.648>
LayerCount: 2
Back
Fore
SplineSet
413.38671875 234.000976562 m 0
 408.15625 254.000976562 403.706054688 258.049804688 387.090820312 257.928710938 c 0
 337.606445312 257.567382812 296.725585938 193.629882812 282.986328125 95.111328125 c 0
 276.375 47.7041015625 276.868164062 37.9267578125 286.349609375 28.4453125 c 0
 296.321289062 18.4736328125 299.982421875 20.296875 322.046875 46.22265625 c 0
 352.307617188 81.7783203125 386.061523438 145.700195312 385.805664062 166.963867188 c 0
 385.694335938 176.174804688 393.016601562 189.056640625 402.646484375 196.592773438 c 0
 417.32421875 208.080078125 418.811523438 213.259765625 413.38671875 234.000976562 c 0
351.53515625 492.594726562 m 0
 395.979492188 503.940429688 474.13671875 499.586914062 504.127929688 484.095703125 c 0
 552.134765625 459.298828125 641.478515625 342.51953125 654.947265625 286.963867188 c 0
 665.733739098 242.468448565 547.318677054 4.92797726086 417.4609375 48.595703125 c 2
 384.868164062 59.556640625 l 1
 347.4609375 18.0751953125 l 2
 316.733398438 -15.9990234375 305.688476562 -23.4072265625 285.609375 -23.4072265625 c 0
 247.10546875 -23.4072265625 235.631835938 -4.1474609375 241.040039062 51.408203125 c 0
 259.2109375 238.075195312 339.140625 349.0859375 415.979492188 294.376953125 c 0
 448.655273438 271.112304688 459.68359375 243.259765625 459.68359375 184.000976562 c 0
 459.68359375 134.37109375 458.857421875 131.944335938 440.423828125 127.385742188 c 0
 418.942382812 122.073242188 418.102539062 98.033203125 438.942382812 85 c 0
 480.483398438 59.01953125 616.012695312 198.815429688 615.352539062 266.963867188 c 0
 614.966796875 306.772460938 551.53515625 398.6015625 499.68359375 434.416992188 c 0
 473.362304688 452.59765625 464.868164062 454.37109375 404.127929688 454.37109375 c 0
 344.127929688 454.37109375 333.53515625 452.194335938 298.202148438 432.607421875 c 0
 250.34765625 406.080078125 175.41796875 324.000976562 150.368164062 270.666992188 c 0
 140.416992188 249.482421875 121.775390625 205.482421875 108.942382812 172.889648438 c 0
 87.73046875 119.017578125 85.67578125 106.22265625 86.349609375 32.1484375 c 0
 86.7607421875 -13.0361328125 84.875 -20.861328125 89.5859375 -37.703125 c 0
 101.810546875 -81.4072265625 137.263671875 -126.737304688 173.68359375 -145.232421875 c 0
 203.569335938 -160.408203125 209.239257812 -160.873046875 265.53515625 -152.764648438 c 0
 347.016601562 -141.028320312 390.647460938 -141.663085938 401.4609375 -154.740234375 c 0
 413.46875 -169.260742188 394.423828125 -177.650390625 324.053710938 -188.840820312 c 0
 213.68359375 -206.390625 205.4921875 -206.291992188 163.3125 -186.905273438 c 0
 109.239257812 -162.05078125 80 -135.268554688 57.8447265625 -90.2958984375 c 0
 40.765625 -55.62890625 44.7197265625 -84.1474609375 43.38671875 2.51953125 c 0
 41.9970703125 92.8896484375 43.3232421875 102.91796875 64.9384765625 165.482421875 c 0
 126.87109375 344.741210938 229.009765625 461.319335938 351.53515625 492.594726562 c 0
EndSplineSet
EndChar

StartChar: A
Encoding: 65 65 34
Width: 448
Flags: HW
HStem: 280.297 51.8516<194.932 288.715>
LayerCount: 2
Back
Fore
SplineSet
266.817382812 410.926757812 m 0
 252.095703125 461.296875 238.572265625 496.56640625 233.3046875 498.333984375 c 0
 220.960983877 502.473940707 219.958658666 430.408217597 198.045898438 362.778320312 c 0
 180.286132812 307.962890625 180.858398438 320.754882812 203.759765625 327.595703125 c 0
 212.192382812 330.114257812 234.559570312 332.1484375 253.819335938 332.1484375 c 0
 280.485351562 332.1484375 288.80078125 335.182617188 289.345703125 345.111328125 c 0
 289.73828125 352.275390625 280.45703125 364.259765625 266.817382812 410.926757812 c 0
213.866210938 648.362304688 m 0
 223.341796875 658.939453125 236.767578125 655.217773438 247.43359375 639.057617188 c 0
 253.751953125 629.484375 254.948242188 607.66015625 251.571289062 563.579101562 c 0
 248.250976562 520.24609375 273.078125 504.344726562 288.948242188 468.111328125 c 0
 301.465820312 439.53515625 312.978515625 407.22265625 338.87890625 315.37109375 c 0
 364.778320312 223.518554688 374.98828125 121.770507812 386.447265625 89.111328125 c 0
 417.375976562 0.9638671875 420.813476562 -18.2958984375 405.616210938 -18.2958984375 c 0
 398.208007812 -18.2958984375 388.103515625 -15.880859375 382.879882812 -12.86328125 c 0
 371.8828125 -6.5107421875 346.662109375 79.5185546875 329.903320312 152.111328125 c 0
 314.853515625 217.296875 305.32421875 299.078125 250.596679688 288.352539062 c 0
 227.919921875 283.908203125 199.200195312 280.296875 186.530273438 280.296875 c 0
 165.268554688 280.296875 162.05078125 197.296875 123.0703125 104.704101562 c 0
 85.0263671875 14.333984375 78.9033203125 4.7041015625 59.490234375 4.7041015625 c 0
 24.162109375 4.7041015625 23.125 22.4814453125 54.9921875 81.7412109375 c 0
 97.4306640625 160.659179688 125.502929688 276.852539062 150.709960938 370.926757812 c 0
 188.619140625 512.408203125 194.608398438 501.041992188 201.7421875 584.2578125 c 0
 204.362304688 614.826171875 209.859375 643.88671875 213.866210938 648.362304688 c 0
EndSplineSet
EndChar

StartChar: B
Encoding: 66 66 35
Width: 414
Flags: HW
VStem: 336.804 43.8428<461.691 567.005>
LayerCount: 2
Back
Fore
SplineSet
298.655273438 224.043945312 m 0
 279.923111636 253.878372049 101.538202818 331.837286865 87.9482421875 296.266601562 c 0
 81.439453125 279.229492188 87.3798828125 71.6162109375 94.58203125 64.4150390625 c 0
 97.8740234375 61.1220703125 109.397460938 63.919921875 120.5078125 70.7109375 c 0
 131.583984375 77.48046875 189.989257812 80.6640625 216.655273438 95.2265625 c 0
 269.248046875 123.947265625 273.546875 133.78515625 297.729492188 181 c 0
 318.729492188 222 307.822265625 209.4453125 298.655273438 224.043945312 c 0
114.729492188 580 m 1
 106.729492188 493 92.6240234375 408.500976562 93.8408203125 389.229492188 c 0
 93.8134765625 388.98046875 96.0634765625 354.043945312 96.0634765625 354.043945312 c 1
 135.322265625 355.155273438 l 2
 166.349609375 356.033203125 184.2109375 362.0703125 220.5078125 383.948242188 c 0
 296.063476562 429.48828125 336.803710938 474.803710938 336.803710938 513.303710938 c 0
 336.803710938 532.5625 316.236328125 573.252929688 300.5078125 585.109375 c 0
 292.05078125 591.484375 137.322265625 601.400390625 114.729492188 580 c 1
67.7294921875 628 m 1
 80.7294921875 668 245.977539062 644.915039062 257.544921875 645.545898438 c 0
 284.2109375 647 333.489257812 621.848632812 345.388671875 600.7109375 c 0
 362.901367188 569.599609375 380.940429688 517.299804688 380.646484375 498.48828125 c 0
 380.228515625 471.73828125 324.952148438 404.541992188 275.322265625 370.453125 c 0
 252.359375 354.680664062 233.100585938 338.749023438 233.100585938 335.525390625 c 0
 233.100585938 326.30104078 287.258313522 312.219841339 325.322265625 267.377929688 c 0
 349.844726562 238.48828125 351.899414062 232.76953125 347.420898438 205.896484375 c 0
 341.2890625 169.103515625 309.819335938 109.077148438 230.729492188 52 c 0
 185.063476562 19.0439453125 179.063476562 42.044921875 139.063476562 23.0439453125 c 0
 111.850585938 10.1171875 96.916015625 3.3095703125 81.3603515625 5.0068359375 c 0
 61.4990234375 7.173828125 54.3603515625 1.0068359375 52.13671875 26.673828125 c 0
 38.53125 183.72265625 44.7294921875 421 67.7294921875 628 c 1
EndSplineSet
EndChar

StartChar: C
Encoding: 67 67 36
Width: 413
Flags: HW
VStem: 41.7227 44.7002<146.081 469.441>
LayerCount: 2
Back
Fore
SplineSet
156.921875 614.661132812 m 0
 195.440429688 634.926757812 330.064453125 637.698242188 356.422851562 606 c 0
 382.598410504 574.522930708 303.764287717 570.944278946 288.422851562 580 c 0
 239.55859375 608.84375 143.01953125 572.07421875 115.788085938 495.778320312 c 0
 86.5224609375 413.78125 81.59765625 377.259765625 86.4228515625 278 c 0
 90.2392578125 199.482421875 94.1455078125 176.822265625 110.044921875 140.963867188 c 0
 143.875 64.6669921875 182.948242188 26.8896484375 228.033203125 26.8896484375 c 0
 238.555664062 26.8896484375 278.879882812 44.4228515625 319.143554688 60.4052734375 c 0
 382.361328125 85.4990234375 387.21484375 68.7734375 368.7734375 53.6533203125 c 0
 349.244140625 37.640625 316.180664062 19.1669921875 295.440429688 9.337890625 c 0
 187.1875 -41.962890625 127.006835938 -10.1474609375 68.8779296875 129.111328125 c 0
 48.697265625 177.45703125 44.5595703125 198 41.72265625 263.926757812 c 0
 34.5185546875 431.333984375 81.7421875 575.106445312 156.921875 614.661132812 c 0
EndSplineSet
EndChar

StartChar: asciicircum
Encoding: 94 94 37
Width: 350
Flags: HW
VStem: 44.0723 261.619
LayerCount: 2
Back
Fore
SplineSet
194.681640625 801.341796875 m 0
 216.392578125 813.182617188 214.786132812 815.016601562 237.264648438 752.731445312 c 0
 245.641601562 729.516601562 260.077148438 701.104492188 269.104492188 690.057617188 c 0
 285.6171875 669.850585938 308.018554688 616.567382812 305.69140625 603.02734375 c 0
 301.900390625 580.973632812 269.133789062 599.939453125 258.177734375 630.52734375 c 0
 247.48246692 660.401660697 222.887059279 683.500649858 211.791015625 716.090820312 c 0
 206.571289062 731.423828125 200.416015625 738.870117188 192.853515625 739.006835938 c 0
 180.380859375 739.23046875 108.000976562 655.186523438 90.083984375 619.677734375 c 0
 81.2900390625 602.24609375 74.9560546875 596.931640625 62.3798828125 596.4296875 c 0
 51.29296875 595.986328125 45.4345703125 599.310546875 44.072265625 606.819335938 c 0
 40.59765625 625.970703125 163.000976562 784.063476562 194.681640625 801.341796875 c 0
EndSplineSet
EndChar

StartChar: D
Encoding: 68 68 38
Width: 470
Flags: HW
VStem: 45.3125 46.8408<46.5818 333.035>
LayerCount: 2
Back
Fore
SplineSet
250.02734375 572.752929688 m 0
 212.005859375 586.946289062 149.333984375 590.610351562 119.235351562 580.400390625 c 0
 104.374023438 575.359375 102.641601562 567.286132812 94.2724609375 464 c 0
 78.41796875 268.334960938 91.931640625 157.571289062 92.1533203125 123.048828125 c 0
 92.670225098 41.9147675934 99.1697205066 40.8489423558 128.862304688 46.474609375 c 0
 142.827042001 49.1202566438 173.157428912 56.676913895 210.110351562 76.3837890625 c 0
 218.951171875 81.0986328125 224.741210938 87.451171875 228.272460938 90 c 0
 239.732421875 98.2724609375 260.252929688 125.2734375 290.700195312 157.991210938 c 0
 318.015625 187.34375 365.645507812 275.391601562 378.500976562 320.298828125 c 0
 392.212890625 368.19921875 390.331054688 417.16796875 372.85546875 467.208007812 c 0
 361.052734375 501.000976562 298.694335938 554.584960938 250.02734375 572.752929688 c 0
55.2939453125 626.947265625 m 0
 55.3887550749 635.253654257 62.1069336223 622.44250871 150.412109375 624.55078125 c 0
 224.93359375 626.330078125 272.920898438 612.255859375 336.71484375 569.91015625 c 0
 385.22265625 537.712890625 406.643554688 506.981445312 425.749023438 442.188476562 c 0
 436.619140625 405.323242188 437.275390625 391.5078125 429.985351562 353.016601562 c 0
 417.747070312 288.383789062 419.083984375 292.071289062 382.263671875 221.502929688 c 0
 350.651367188 160.915039062 349.202148438 147.153320312 275.272460938 83 c 0
 204.299804688 21.4130859375 221.606445312 33.138671875 184.14453125 18.55859375 c 0
 154.827148438 7.1484375 131.05078125 2.181640625 106.022460938 2.236328125 c 0
 50.265625 2.359375 46.984375 6.2294921875 45.3125 73.8310546875 c 0
 44.517578125 106.022460938 45.2880859375 147.719726562 47.046875 167.646484375 c 0
 51.4091796875 217.059570312 53.880859375 503.1328125 55.2939453125 626.947265625 c 0
EndSplineSet
EndChar

StartChar: E
Encoding: 69 69 39
Width: 492
Flags: HW
HStem: 0 57.293<91.6046 436.645> 298.078 41.9219<99.9094 364.187>
VStem: 36.2422 53.5879<60.33 290.301> 46.5664 52.1006<344.014 582.965>
LayerCount: 2
Back
Fore
SplineSet
176.040039062 593 m 0
 139.040039062 590 106.040039062 601 105.282226562 539.732421875 c 0
 104.2734375 458.147460938 94.498046875 338.796875 103.666992188 338.796875 c 0
 111.43359375 338.796875 137.653320312 342.749023438 154.040039062 340 c 0
 176.034179688 336.310546875 231.50390625 342.669921875 318.41015625 339.633789062 c 0
 346.096679688 338.666992188 356.133789062 334.823242188 364.583984375 321.95703125 c 0
 370.752929688 312.561523438 372.393554688 303.502929688 368.41015625 300.819335938 c 0
 357.898130634 293.73991777 170.342875169 298.022986467 168.342773438 298.078125 c 2
 98.6669921875 292.796875 l 1
 93.0146484375 232.942382812 l 2
 88.4335198727 184.445914943 87.4480622617 138.990229269 89.830078125 95.1748046875 c 2
 91.890625 57.29296875 l 1
 136.709960938 60.1533203125 l 2
 157.244140625 61.46484375 226.043945312 53.9345703125 289.92578125 56.5654296875 c 0
 423.279296875 62.0625 460.009765625 57.236328125 454.452148438 34.955078125 c 0
 448.365757839 10.5556721955 358.631753962 19.3235891931 314.009765625 10.5478515625 c 0
 305.663440759 8.90551309407 180.058663416 -1.71130683662 120 0 c 0
 21.4697265625 2.80859375 37.373046875 24.5693359375 36.2421875 150.4140625 c 0
 35.2783203125 257.703125 47.8262510157 396.988282651 46.56640625 468.13671875 c 0
 45.3095703125 539.115234375 46.697265625 627.0546875 64.0400390625 629 c 0
 171.040039062 641 357.758789062 649.557617188 401.334960938 624.69140625 c 0
 436.844726562 604.428710938 441.693359375 599.004882812 428.653320312 590.358398438 c 0
 425.740234375 588.426757812 404.952148438 596.8671875 381.345703125 598.784179688 c 0
 294.748046875 605.815429688 279.631835938 601.399414062 176.040039062 593 c 0
EndSplineSet
EndChar

StartChar: F
Encoding: 70 70 40
Width: 395
Flags: HW
HStem: 306.279 41.0693<103.542 362.365> 604.009 25.959<265.588 355.752>
VStem: 55.001 45.5088<-3.37464 312.218 347.866 570.101>
LayerCount: 2
Back
Fore
SplineSet
44.4189453125 614.298828125 m 0
 54.4543761321 617.416597826 191.699786779 648.110627986 193.178710938 648.48828125 c 0
 204.572265625 651.3984375 325.333984375 636.349609375 341.80859375 629.967773438 c 0
 349.653320312 626.928710938 356.583007812 619.271484375 357.400390625 612.737304688 c 0
 358.920898438 600.575195312 355.963867188 600.341796875 246.515625 604.008789062 c 0
 185.793945312 606.043945312 126.26171875 593.883789062 103.841796875 574.870117188 c 0
 91.28125 564.215820312 90.244140625 552.467773438 94.7216796875 471.659179688 c 0
 97.5146484375 421.24609375 97.693359375 398.78125 99.775390625 380.469726562 c 2
 103.541992188 347.348632812 l 1
 144.565429688 347.623046875 l 2
 201.185589984 348.005334043 290.430596762 338.852806785 334.70703125 337.42578125 c 0
 355.693359375 336.748046875 362.995117188 333.33984375 362.454101562 324.470703125 c 0
 361.827148438 314.208007812 351.380859375 311.52734375 291.5703125 306.279296875 c 0
 220.436112913 300.035899974 166.946155448 305.90693689 103.909179688 314.547851562 c 0
 87.1859626333 316.839519232 110.091212847 151.897263456 98.12109375 80.1689453125 c 0
 94.431640625 58.0595703125 94.40625 34.2822265625 98.0625 26.4130859375 c 0
 105.596679688 10.1953125 84.9365234375 -8.447265625 64.91015625 -3.5029296875 c 0
 54.1259765625 -0.83984375 51.7958984375 6.4462890625 51.7080078125 37.7880859375 c 0
 51.53125 100.47265625 52.0126953125 307.561523438 55.0009765625 359.942382812 c 0
 60.5675411005 457.596741583 25.9799592733 608.573838406 44.4189453125 614.298828125 c 0
EndSplineSet
EndChar

StartChar: G
Encoding: 71 71 41
Width: 439
Flags: HW
HStem: -7.54492 45.5449<105.68 219.915> 312 37.7041<174.25 344.763> 591.407 49.502<277.857 319.463>
LayerCount: 2
Back
Fore
SplineSet
277.857421875 591.407226562 m 0
 251.693610192 606.635261048 242.221560215 612.148246138 207.857421875 592.407226562 c 0
 172.671875 572.194335938 138.466796875 547.77734375 112.857421875 477.407226562 c 0
 71.3427734375 363.333007812 82.634765625 305.732421875 82.634765625 219.888671875 c 0
 82.634765625 168.037109375 88.421875 93.4677734375 98.24609375 73 c 0
 110.397460938 47.68359375 115.579101562 38 142.24609375 38 c 0
 158.268554688 38 178.081054688 48.8681640625 196.807617188 52.8408203125 c 0
 334.24609375 82 315.840820312 246.874023438 344.24609375 290 c 0
 346.96176906 294.123024233 348.954815611 296.257403862 350.251738462 297.288393964 c 1
 348.705175664 297.343125142 346.193323027 298.275426973 342.764648438 301.704101562 c 0
 332.936523438 311.532226562 337.654296875 312.2890625 290.24609375 312 c 0
 256.913085938 311.796875 243.918945312 313.290039062 227.252929688 310.444335938 c 0
 206.51171875 306.903320312 192.419921875 308.565429688 182.80859375 315.684570312 c 0
 161.267578125 331.640625 181.327148438 349.704101562 220.5859375 349.704101562 c 0
 280.32878035 349.704101562 362.090481209 386.823517769 396.09765625 352.814453125 c 0
 406.927734375 341.984375 406.768554688 337.258789062 394.24609375 298 c 0
 386.685546875 274.295898438 378.145507812 266.806640625 373.857421875 257.407226562 c 0
 358.895507812 224.604492188 352.24609375 20 205.696289062 5.9599609375 c 0
 187.349609375 4.2021484375 159.029296875 -7.544921875 136.807617188 -7.544921875 c 0
 69.80078125 -7.544921875 50.8857421875 85.07421875 43.3779296875 211 c 0
 37.8203125 304.209960938 26.66015625 358.147460938 92.1826171875 532.221679688 c 0
 105.76953125 568.319335938 146.170898438 618.092773438 192.194335938 647.295898438 c 0
 212.857421875 660.407226562 288.857421875 647.407226562 297.450195312 640.909179688 c 0
 355.860351562 596.73828125 339.450195312 555.55859375 277.857421875 591.407226562 c 0
EndSplineSet
EndChar

StartChar: H
Encoding: 72 72 42
Width: 461
Flags: HW
VStem: 59.5215 33.9414<462.297 619.474> 65.0078 41.1104<348.935 602.957> 313.217 43.6982<17.2003 213.685> 378.494 41.3916<468.426 640.978>
LayerCount: 2
Back
Fore
SplineSet
378.494140625 609.407226562 m 0
 378.676757812 629.407226562 383.591796875 641 399.216796875 641 c 0
 429.141601562 641 433.16796875 610.888671875 419.885742188 549.407226562 c 0
 394.600585938 432.370117188 384.133789062 375.249023438 378.216796875 322 c 0
 374.833007812 291.54296875 370.517578125 161.481445312 362.599609375 121.481445312 c 0
 349.40234375 54.814453125 350.58203125 91.888671875 353.58203125 51.888671875 c 0
 355.700195312 23.640625 361.853515625 8.30859375 356.915039062 3.3701171875 c 0
 344.837890625 -8.70703125 312.173828125 3.06640625 313.216796875 50 c 0
 314.216796875 95 309.854492188 52.3701171875 326.7109375 156.07421875 c 0
 337.788085938 224.22265625 333.157226562 333.48046875 328.340820312 338.296875 c 0
 323.479492188 343.157226562 312.78515625 341.375 297.229492188 333.111328125 c 0
 260.787436449 313.751411792 141.923675772 316.66410701 114.266601562 306.213867188 c 0
 97.0576171875 299.712890625 102.384765625 229.259765625 86.8125 81.111328125 c 0
 77.625 -6.2958984375 68.0693359375 -27.294921875 45.93359375 -8.716796875 c 0
 32.80078125 2.3046875 32.3310546875 -4.814453125 56.896484375 157.407226562 c 0
 74.2935206716 272.294252508 64.1642279735 521.224140255 59.521484375 603.481445312 c 0
 56.3916015625 658.920898438 79.8271484375 649.139648438 93.462890625 599.037109375 c 0
 99.75390625 575.919921875 106.118164062 550.888671875 106.118164062 458.296875 c 0
 106.118164062 345.704101562 106.325195312 344.270507812 122.043945312 347.92578125 c 0
 130.892578125 349.983398438 167.599609375 354.581054688 204.63671875 358.26953125 c 0
 280.93359375 365.869140625 330.818359375 383.223632812 343.112304688 406.444335938 c 0
 352.416992188 424.020507812 378.149414062 571.629882812 378.494140625 609.407226562 c 0
EndSplineSet
EndChar

StartChar: I
Encoding: 73 73 43
Width: 449
Flags: HW
HStem: 2.91016 57.2744<38.3913 177.921> 587.337 52.4268<73.5582 209.545> 605.812 42.8594<269.183 407.579>
VStem: 193.625 46.2383<67.4795 440.618>
LayerCount: 2
Back
Fore
SplineSet
203.791015625 652.69140625 m 0
 216.994140625 666.875976562 249.649414062 668.435546875 260.09375 655.379882812 c 0
 274.308803345 637.608530746 363.84010742 664.323644553 398.743164062 635.475585938 c 0
 431.129882812 608.709960938 419.6328125 602.118164062 347.00390625 605.8125 c 0
 304.01953125 608 275.676757812 605.891601562 268.846679688 600 c 0
 246.488125309 580.713228994 240.626586445 167.607777632 229.920898438 98.703125 c 0
 226.69921875 77.962890625 224.670898438 59.7099609375 225.4765625 58.703125 c 0
 226.71804415 57.1531270008 354.868711593 51.3699693647 387.71484375 32.4072265625 c 0
 412.86328125 17.888671875 413.86328125 16.888671875 415.86328125 13.888671875 c 2
 415.86328125 13.888671875 418.041015625 2.3681640625 412.86328125 0.888671875 c 0
 405.86328125 -1.111328125 247.69921875 2.91015625 247.69921875 2.91015625 c 2
 62.486328125 5.1767578125 27.0556640625 13.9111328125 31.330078125 44.2587890625 c 0
 33.3193359375 58.3828125 38.0693359375 60.505859375 66.9580078125 60.1845703125 c 0
 85.4765625 59.9794921875 114.283203125 57.1806640625 131.7734375 53.888671875 c 0
 162.883789062 48.0322265625 163.40234375 48.2978515625 175.846679688 76.4814453125 c 0
 185.032226562 97.283203125 189.842773438 139.07421875 193.625 230.92578125 c 0
 193.773106817 234.522567412 216.039511548 583.25749177 209.663085938 590.551757812 c 0
 199.562102027 602.111367558 66.2342003651 554.022113218 73.4228515625 618.732421875 c 0
 75.705078125 639.272460938 81.0869140625 640.745117188 150.290039062 639.763671875 c 0
 179.310546875 639.3515625 194.875 643.112304688 203.791015625 652.69140625 c 0
EndSplineSet
EndChar

StartChar: J
Encoding: 74 74 44
Width: 371
Flags: HW
VStem: 294.029 37.5273<314.501 619.76>
LayerCount: 2
Back
Fore
SplineSet
298.081054688 619.92578125 m 0
 303.534179688 628.787109375 312.943359375 626.591796875 323.486328125 614 c 0
 342.419744401 591.383340629 326.497203938 331.431507121 317.486328125 276 c 0
 297.37890625 152.296875 275.349609375 89.724609375 236.118164062 44.8896484375 c 0
 216.553710938 22.5302734375 206.951171875 17.4814453125 183.98828125 17.4814453125 c 0
 96.5810546875 17.4814453125 7.443359375 118.212890625 39.78125 180.444335938 c 0
 56.5908203125 212.794921875 77.6484375 207.852539062 74.4990234375 172.296875 c 0
 72.4924079797 149.645143904 69.4803157259 115.643061687 148.98828125 75.4814453125 c 0
 182.322265625 58.642578125 198.1171875 63.576171875 208.33984375 75.259765625 c 0
 259.641601562 133.890625 292.138671875 302.147460938 294.029296875 516.962890625 c 0
 294.505859375 571.036132812 296.31640625 617.057617188 298.081054688 619.92578125 c 0
EndSplineSet
EndChar

StartChar: K
Encoding: 75 75 45
Width: 418
Flags: HW
VStem: 41.501 33.1201<-2.99884 135.265> 62.7607 41.8516<341.149 639.497>
LayerCount: 2
Back
Fore
SplineSet
305.788085938 555.184570312 m 0
 338.8125 615.92578125 352.668945312 641 366.500976562 641 c 0
 391.310546875 641 390.509765625 612.963867188 369.909179688 580.370117188 c 0
 359.782226562 564.34765625 341.751953125 531.8515625 329.426757812 507.407226562 c 0
 313.811523438 476.436523438 286.834960938 443.84375 238.686523438 397.77734375 c 2
 170.16796875 332.221679688 l 1
 182.389648438 311.481445312 l 2
 189.1640625 299.986328125 210.919921875 204.741210938 219.952148438 187.704101562 c 0
 250.235466818 130.582044081 344.397460938 35.0983015807 344.397460938 7.3330078125 c 0
 344.397460938 -13.79296875 325.991210938 -6.740234375 294.135742188 26.5927734375 c 0
 221.930664062 102.1484375 195.6484375 135.650390625 178.500976562 174 c 0
 168.233398438 196.962890625 161.500976562 277 118.500976562 292 c 0
 97.8955078125 299.1875 90.255859375 125.8515625 74.62109375 31.7783203125 c 0
 67.234375 -12.6669921875 68.5947265625 -3 51.5009765625 -3 c 0
 33.4765625 -3 34.955078125 -1.677734375 41.5009765625 52 c 0
 46.5009765625 93 54.5009765625 110 59.5009765625 151 c 0
 66.8701171875 211.4296875 62.7607421875 279.62890625 62.7607421875 446.295898438 c 0
 62.7607421875 584.814453125 70.9951171875 641 79.5009765625 641 c 0
 85.30859375 641 93.86328125 632.37109375 100.500976562 622 c 0
 116.386370197 597.179072446 96.9250849773 341.110351562 104.982421875 341.110351562 c 0
 109.399462478 341.110351562 152.663776616 389.864203535 179.797851562 411.29296875 c 0
 257.575195312 472.7265625 266.495117188 482.913085938 305.788085938 555.184570312 c 0
EndSplineSet
EndChar

StartChar: L
Encoding: 76 76 46
Width: 422
Flags: HW
HStem: 0 54.6855<132.32 366.986>
LayerCount: 2
Back
Fore
SplineSet
64.1943359375 628.0546875 m 0
 79.0087890625 637.411132812 82.833984375 636.881835938 93.51953125 624 c 0
 103.765625 611.646484375 98.8271484375 208.907226562 87.4296875 157.795898438 c 0
 79.005859375 120.018554688 78.8193359375 59.662109375 87.1123046875 54.685546875 c 0
 89.6678852769 53.1520449408 356.30611144 69.453035304 383.668945312 25.0146484375 c 0
 394.07421875 8.115234375 378.676757812 -2.810546875 352.51953125 0 c 0
 316.0625 3.9169921875 140.609375 11.3056640625 94.51953125 0 c 0
 85.76171875 -2.1484375 74.1494140625 -9.193359375 64.51953125 -7.759765625 c 0
 47.1123046875 -5.1669921875 47.111328125 -5.1669921875 48.59375 94.8330078125 c 0
 49.408203125 149.774414062 49.640625 330.666015625 50.861328125 433.62890625 c 0
 52.7060546875 589.184570312 54.9716796875 622.229492188 64.1943359375 628.0546875 c 0
EndSplineSet
EndChar

StartChar: M
Encoding: 77 77 47
Width: 510
Flags: HW
VStem: 43.8408 38.0137<-16.5443 211.62> 397.832 38.7803<539.689 619.847>
LayerCount: 2
Back
Fore
SplineSet
397.83203125 604.625 m 0
 417.776367188 657.68359375 433.797851562 648.853515625 436.612304688 603.177734375 c 0
 437.11328125 595.041992188 436.979492188 556.23828125 437.15625 517.48046875 c 0
 437.66796875 404.588867188 440.948242188 345.653320312 456.706054688 166.271484375 c 0
 472.204101562 -10.1572265625 470.19140625 -29.5732421875 440.1171875 6.2392578125 c 0
 427.208007812 21.611328125 424.737304688 39.498046875 414.0625 194.862304688 c 0
 407.5546875 289.560546875 400.14453125 383.3046875 397.528320312 403.983398438 c 2
 392.7890625 441.463867188 l 1
 379.002929688 418.977539062 l 2
 371.447265625 406.654296875 341.6796875 334.087890625 313.140625 258.42578125 c 0
 254.887695312 103.979492188 244.940429688 92.0068359375 213.662109375 138.701171875 c 0
 176.704554982 193.878770584 157.844767355 346.61760213 134.625976562 430 c 0
 103.651367188 541.237304688 85.4248046875 567.515625 95.4931640625 464.834960938 c 0
 97.7060546875 442.266601562 106.024414062 306.260742188 102.625976562 282 c 0
 93.9901427441 220.350569088 103.718199998 244.634177533 91.7724609375 115.923828125 c 0
 87.1533203125 66.1669921875 82.66796875 17.2431640625 81.8544921875 7.75390625 c 0
 80.044921875 -13.3388671875 61.083984375 -24.943359375 50.251953125 -11.5888671875 c 0
 37.37890625 4.283203125 33.68359375 64.0390625 43.8408203125 92.0693359375 c 0
 61.333984375 140.34375 72.908203125 561.216796875 60.8203125 596.522460938 c 0
 55.4189453125 612.298828125 60.9423828125 614.920898438 68.453125 626.495117188 c 0
 79.5068359375 643.529296875 85.8408203125 647.244140625 95.0537109375 628.615234375 c 0
 112.227539062 593.888671875 158.833984375 454.477539062 202.825195312 285.09765625 c 0
 228.95703125 184.482421875 230.390625 180.174804688 237.443359375 180.997070312 c 0
 241.4453125 181.462890625 252.7578125 204.03515625 262.251953125 230.49609375 c 0
 289.782173217 307.237842798 354.091423958 445.138230792 375.923828125 528.616210938 c 0
 384.775390625 562.4609375 394.717773438 596.340820312 397.83203125 604.625 c 0
EndSplineSet
EndChar

StartChar: N
Encoding: 78 78 48
Width: 439
Flags: HW
VStem: 47.293 45.1172<-3.58077 261.571 316.167 468.987> 58.2207 34.1895<398.107 545.05> 309.005 70.1562<47.8659 105.22> 372.573 18<457.499 640.916>
LayerCount: 2
Back
Fore
SplineSet
311.008789062 155.30078125 m 0
 318.4609375 123.571289062 328.536132812 107.612304688 338.17578125 107.657226562 c 0
 377.66796875 107.842773438 368.783203125 635.174804688 372.573242188 639 c 0
 374.879882812 641.328125 389.573242188 642.450195312 390.573242188 638 c 0
 395.440429688 616.336914062 398.376953125 251.333007812 379.573242188 164 c 0
 370.920898438 123.815429688 383.137695312 81.3671875 379.161132812 58.693359375 c 0
 368.021484375 -4.8203125 335.548828125 -3.2890625 309.004882812 62 c 0
 272.576171875 151.600585938 165.038085938 467.28125 140.489257812 508.35546875 c 0
 108.984375 561.067382812 90.349609375 567.012695312 92.41015625 523.6953125 c 0
 96.02734375 447.6953125 93.060546875 294.130859375 87.375 245.201171875 c 0
 78.830078125 171.669921875 79.763671875 94.03125 89.7001953125 51.71875 c 0
 98.845703125 12.77734375 90.2392578125 -5.654296875 63.880859375 -3.5810546875 c 0
 51.7666015625 -2.626953125 47.8701171875 1.9482421875 48.6484375 14.3056640625 c 0
 49.2314453125 23.5732421875 48.6328125 35.7041015625 47.29296875 41.7587890625 c 0
 34.6359489073 98.9333061995 61.3485603849 511.388686462 58.220703125 597.842773438 c 0
 57.15625 627.268554688 62.9375 641.611328125 86.5732421875 641 c 0
 99.1923828125 640.674804688 111.814453125 621.842773438 132.573242188 594 c 0
 167.331054688 547.37890625 303.913085938 185.513671875 311.008789062 155.30078125 c 0
EndSplineSet
EndChar

StartChar: O
Encoding: 79 79 49
Width: 541
Flags: HW
LayerCount: 2
Back
Fore
SplineSet
186.459960938 514.865234375 m 0
 103.59375 418.58984375 89.1416015625 385.025390625 84.2041015625 276.659179688 c 0
 81.8076171875 224.083007812 84.4072265625 207.49609375 103.198242188 155.448242188 c 0
 122.448242188 102.131835938 128.493164062 92.25390625 155.401367188 70.1474609375 c 0
 189.63671875 42.021484375 244.427734375 27.3671875 278.998046875 37.091796875 c 0
 307.6328125 45.1455078125 358.03515625 86.4921875 399.40625 135.862304688 c 0
 430.018554688 172.396484375 433.662109375 181.977539062 447.986328125 263.6171875 c 0
 469.149414062 384.23828125 469.336914062 393.200195312 452.025390625 456.33203125 c 0
 432.80078125 526.4375 400.990234375 563.397460938 345.53515625 580.0703125 c 0
 306.583984375 591.780273438 215.524414062 548.240234375 186.459960938 514.865234375 c 0
239.120117188 609 m 0
 260.954101562 620.481445312 289.4453125 624.857421875 291.342773438 625.54296875 c 0
 306.096679688 630.87890625 349.86328125 620.573242188 381.885742188 600.913085938 c 0
 440.012695312 565.227539062 455.838867188 546.203125 478.514648438 484.758789062 c 0
 505.1640625 412.547851562 508.483398438 380.62890625 496.384765625 312.889648438 c 0
 481.507822606 229.597182838 484.32583498 187.768809624 473.534179688 164.526367188 c 0
 461.067382812 137.677734375 372.771484375 44.92578125 338.905273438 23.1015625 c 0
 296.8984375 -3.96875 282.716796875 -6.6103515625 224.03515625 1.7041015625 c 0
 149.697265625 12.2392578125 109.146484375 42.453125 73.1484375 114.133789062 c 0
 37.4814453125 185.151367188 30.5966796875 258.784179688 48.5634765625 377.106445312 c 0
 60.20703125 453.796875 117.365234375 510.814453125 151.831054688 539.69921875 c 0
 166.021484375 551.592773438 174.032226562 557.110351562 185.810546875 566.737304688 c 0
 204.920898438 582.356445312 215.962890625 596.822265625 239.120117188 609 c 0
EndSplineSet
EndChar

StartChar: P
Encoding: 80 80 50
Width: 441
Flags: HW
VStem: 47.374 45.0977<365.755 594.122>
LayerCount: 2
Back
Fore
SplineSet
318.33203125 547.141601562 m 0
 288.514248443 573.420545625 173.834791569 596.84858989 128.623046875 594.1640625 c 0
 110.954101562 593.1171875 93.4228515625 598.981445312 92.4716796875 575.858398438 c 0
 89.0869140625 493.588867188 107.759765625 315.372070312 110.16015625 309.506835938 c 0
 120.944335938 283.149414062 117.20703125 297.546875 144.690429688 299.966796875 c 0
 188.383789062 303.815429688 279.477539062 342.412109375 304.66015625 367.747070312 c 0
 328.16015625 391.388671875 358.088867188 420.916992188 357.694335938 457.315429688 c 0
 357.415039062 483.0078125 336.219726562 531.375976562 318.33203125 547.141601562 c 0
234.224609375 640.411132812 m 0
 305.576171875 622.10546875 534.854492188 492.999023438 307.479492188 309.938476562 c 0
 267.262695312 277.560546875 162.811523438 248.84375 132.005859375 248.84375 c 0
 110.16015625 248.84375 104.633789062 245.951171875 102.005859375 233.141601562 c 0
 89.0591295137 170.011528419 99.6524498767 19.7787780268 80.373046875 7.3046875 c 0
 66.9833984375 -1.359375 63.2470703125 -0.7802734375 52.9677734375 11.546875 c 0
 43.3544921875 23.076171875 40.6982421875 34.0986328125 54.89453125 153.999023438 c 0
 65.6640625 244.958007812 57.1748046875 367.42578125 47.3740234375 474.443359375 c 1
 49.66015625 625.958984375 l 2
 49.66015625 651.009765625 162.905273438 658.708984375 234.224609375 640.411132812 c 0
EndSplineSet
EndChar

StartChar: Q
Encoding: 81 81 51
Width: 552
Flags: HW
HStem: 594.682 55.9316<243.814 316.642>
VStem: 38.5771 45.2949<83.2134 366.465>
LayerCount: 2
Back
Fore
SplineSet
416.290039062 538.75 m 0
 375.605303486 589.836661976 371.746827172 594.681640625 316.641601562 594.681640625 c 0
 270.598632812 594.681640625 255.583984375 581.419921875 234.057617188 566.366210938 c 0
 180.302734375 528.7734375 131.40234375 449.911132812 98.3759765625 347.552734375 c 0
 92.583984375 329.603515625 86.091796875 276.876953125 83.8720703125 229.759765625 c 0
 80.1591796875 150.958984375 81.232421875 140.994140625 97.9599609375 98.9677734375 c 0
 115.096679688 55.912109375 148.037109375 20.01171875 168.6484375 20.01171875 c 0
 173.100585938 20.01171875 210.069335938 15.7294921875 269.284179688 45.2353515625 c 0
 297.895507812 59.4931640625 351.172851562 70.4599609375 304.297851562 143.6484375 c 0
 272.293945312 193.618164062 280.072265625 229.759765625 299.1015625 229.759765625 c 0
 316.067382812 229.759765625 337.104492188 204.576171875 337.104492188 184.266601562 c 0
 337.104492188 166.39453125 362.997070312 116.02734375 372.184570312 116.02734375 c 0
 383.70703125 116.02734375 423.903320312 169.643554688 442.225585938 209.450195312 c 0
 475.129882812 280.938476562 487.327148438 414.823242188 463.538085938 472.948242188 c 0
 459.716796875 482.287109375 438.287109375 511.12890625 416.290039062 538.75 c 0
92.62890625 449.099609375 m 0
 160.475460783 599.009331205 267.676571126 660.612749884 320.587890625 650.61328125 c 0
 359.68359375 643.225585938 369.260742188 640.848632812 423.342773438 587.659179688 c 0
 504.841796875 507.506835938 529.463867188 415.791992188 504.596679688 285.000976562 c 0
 492.241210938 220.010742188 448.805664062 127.642578125 416.034179688 96.6650390625 c 2
 387.532226562 69.72265625 l 1
 412.74609375 21.79296875 l 2
 447.235874012 -43.7728350447 443.001549804 -71.8761275553 458.421875 -104.9375 c 0
 464.106445312 -117.123046875 468.654296875 -139.869140625 468.654296875 -156.1171875 c 0
 468.654296875 -182.924804688 467.0703125 -185.159179688 449.65234375 -182.924804688 c 0
 433.28125 -180.82421875 428.631835938 -173.176757812 416.064453125 -127.682617188 c 0
 395.1953125 -52.1328125 366.575195312 24.5517578125 355.375 34.9267578125 c 0
 338.035624662 50.9875443438 309.636591075 -2.45385369694 171.206054688 -27.8662109375 c 0
 131.483398438 -35.1572265625 94.2197265625 -5.015625 65.626953125 57.537109375 c 0
 42.853515625 107.357421875 40.9384765625 117.65234375 38.5771484375 202.951171875 c 0
 35.673828125 307.82421875 42.2578125 337.8046875 92.62890625 449.099609375 c 0
EndSplineSet
EndChar

StartChar: R
Encoding: 82 82 52
Width: 400
Flags: HW
HStem: 511.311 87.0537<99.4498 138.471>
VStem: 52.5039 46.5713<357.076 511.51>
LayerCount: 2
Back
Fore
SplineSet
313.1015625 538.443359375 m 0
 306.924742304 582.413793276 215.966373846 580.865287922 173.075195312 566.658203125 c 0
 129.405388508 552.191294507 144.315108374 511.310546875 115.075195312 511.310546875 c 0
 100.118164062 511.310546875 98.7099609375 506.788085938 99.0751953125 459.920898438 c 0
 99.29296875 431.965820312 102.211914062 393.534179688 105.474609375 375.643554688 c 2
 111.474609375 342.75390625 l 1
 154.674804688 343.98828125 l 2
 195.475585938 345.153320312 199.772460938 347.322265625 232.015625 383.043945312 c 0
 272.091796875 427.443359375 316.689453125 512.9140625 313.1015625 538.443359375 c 0
147.475585938 610.387695312 m 0
 176.407226562 624.2421875 193.075195312 626.471679688 241.075195312 622.91015625 c 0
 359.475585938 614.123046875 387.30078125 571.30078125 342.4375 466.91015625 c 0
 322.662109375 420.895507812 278.435546875 332.05078125 232.834960938 304 c 0
 220.834960938 296.618164062 211.234375 287.7890625 211.234375 284.134765625 c 0
 211.234375 276.250976562 218.712890625 254.389648438 273.474609375 165.58984375 c 0
 292.877929688 134.125976562 313.91796875 112.720703125 327.474609375 79.009765625 c 0
 341.032226562 45.298828125 350.399414062 31.333984375 354.474609375 26.83984375 c 0
 370.623225222 9.02768452859 357.879903318 -29.6826325668 326.219726562 -5.9375 c 0
 314.040215344 3.19731357336 314.040215344 3.19731357336 240.16796875 117.079101562 c 0
 211.3671875 161.479492188 190.572265625 185.32421875 178.434570312 209.990234375 c 0
 152.540039062 262.61328125 134.473632812 284.108398438 120.275390625 279.012695312 c 0
 108.98828125 274.961914062 95.69921875 190.110351562 108.834960938 112 c 0
 125.427734375 13.3330078125 125.481445312 11.6025390625 112.104492188 6.4462890625 c 0
 105.466796875 3.888671875 91.705078125 8.6181640625 81.3046875 17.033203125 c 0
 63.826171875 31.1748046875 61.80078125 41.7001953125 52.50390625 166.676757812 c 0
 47 240.677734375 53.953125 321.142578125 49.1484375 355.087890625 c 0
 38.8740234375 427.677734375 38.818359375 430.732421875 46.1689453125 515.420898438 c 0
 53.875 604.220703125 53.875 604.220703125 85.8759765625 598.364257812 c 0
 104.474609375 594.9609375 122.67578125 598.512695312 147.475585938 610.387695312 c 0
EndSplineSet
EndChar

StartChar: S
Encoding: 83 83 53
Width: 413
Flags: HW
HStem: 18 42.3369<32.0804 232.426> 593.02 48.0283<179.276 325.819>
VStem: 314.372 57.4355<139.44 255.345>
LayerCount: 2
Back
Fore
SplineSet
162.165039062 614.396484375 m 0
 200.25390625 642.802734375 205.241210938 644.20703125 256.934570312 641.047851562 c 0
 325.860351562 636.836914062 371.807617188 612.051757812 371.807617188 579.083984375 c 0
 371.807617188 546.435546875 354.463867188 541.486328125 329.942382812 567.138671875 c 0
 312.974609375 584.890625 298.577148438 590.166992188 259.329101562 593.01953125 c 0
 214.3359375 596.2890625 207.477539062 594.516601562 180.83203125 572.713867188 c 0
 161.6875 557.047851562 151.728515625 541.149414062 151.908203125 526.528320312 c 0
 152.325195312 492.440429688 196.762695312 427.78515625 266.290039062 360.098632812 c 0
 348.905273438 279.669921875 371.709960938 243.373046875 371.350585938 192.873046875 c 0
 370.999023438 143.5 349.922851562 109.510742188 300.013671875 77.826171875 c 0
 278.953125 64.4560546875 250.953125 46.4443359375 237.790039062 37.80078125 c 0
 225.762695312 29.90234375 204.739257812 5.2802734375 173.760742188 0 c 0
 136.323242188 -6.3818359375 82.8095703125 14.166015625 59.7607421875 18 c 0
 38.701171875 21.5048828125 32 27.134765625 32 41.3330078125 c 0
 32 59.154296875 36.576171875 74.2275390625 92.3095703125 60.3369140625 c 0
 125.760742188 52 148.760742188 40 185.760742188 52 c 0
 219.674804688 62.9990234375 243.346679688 92.447265625 274.092773438 120.407226562 c 0
 310.176757812 153.221679688 314.372070312 161.01953125 314.372070312 195.260742188 c 0
 314.372070312 237.358398438 308.63671875 245.428710938 211.947265625 339.39453125 c 0
 51.3741101652 495.440971989 91.6339068529 561.795431757 162.165039062 614.396484375 c 0
EndSplineSet
EndChar

StartChar: T
Encoding: 84 84 54
Width: 591
Flags: HW
HStem: 595.748 45.252<34.1735 251.88 303.578 545.105>
VStem: 251.925 45.5654<87.0572 595.062>
LayerCount: 2
Back
Fore
SplineSet
333.490234375 641 m 0
 502.440429688 637.618164062 541.923828125 635.98828125 554.490234375 611 c 0
 564.322265625 591.446289062 553.918945312 596.860351562 504.520507812 598.841796875 c 0
 440.088867188 601.42578125 311.055664062 600.830078125 303.578125 594.93359375 c 0
 294.076410987 587.441372373 304.221272719 28.9507030204 286.23828125 10.623046875 c 0
 273.96484375 -1.88671875 256.807617188 5.6201171875 251.924804688 25.6357421875 c 0
 249.811523438 34.298828125 249.490234375 161 250.236328125 308.72265625 c 2
 251.879882812 595.061523438 l 1
 233.979492188 595.748046875 l 2
 224.112304688 596.127929688 146.619140625 594.022460938 115.396484375 589.671875 c 0
 47.869140625 580.262695312 31.00390625 584.997070312 33.181640625 612.754882812 c 0
 34.4951171875 629.5078125 38.69921875 632.75 65.66796875 637.814453125 c 0
 82.927734375 641.055664062 305.462890625 641.561523438 333.490234375 641 c 0
EndSplineSet
EndChar

StartChar: U
Encoding: 85 85 55
Width: 471
Flags: HW
VStem: 43.9434 50.8652<179.654 592.656> 387.555 45<590.986 640.957>
LayerCount: 2
Back
Fore
SplineSet
410.5546875 641 m 0
 416.630341603 641 435.673828125 637.28304489 435.673828125 590.690429688 c 0
 435.673828125 549.050898735 424.237924876 568.848008278 405.141601562 395.674804688 c 0
 390.905580618 266.634687243 369.803475118 183.655740991 342.583007812 93.8173828125 c 0
 322.126953125 26.30859375 276.12109375 -3.8818359375 207.6875 -3.8818359375 c 0
 107.058898939 -3.8818359375 84.2705106554 66.9266698959 57.9287109375 207.07421875 c 0
 48.24609375 258.58203125 43.943359375 327.122070312 43.943359375 396.337890625 c 0
 43.943359375 409.045898438 31.625 571.673828125 69.0107421875 623.981445312 c 0
 75.97265625 633.720703125 79.2412109375 641.029296875 90.455078125 641.029296875 c 0
 103.637695312 641.029296875 111.5546875 638.169921875 111.5546875 616 c 0
 111.5546875 603.037109375 109.82421875 602.017578125 106.133789062 577.317382812 c 0
 97.5865929263 520.10464863 94.80859375 358.19963382 94.80859375 355.983398438 c 0
 94.80859375 273.211914062 112.05859375 147.512695312 129.997070312 100.271484375 c 0
 142.00390625 68.65234375 209.328125 12.1240234375 255.283203125 51.4580078125 c 0
 327.870117188 113.584960938 340.666015625 244.482421875 346.76171875 292.19921875 c 0
 357.470703125 376.020507812 367.981445312 431.528320312 375.821289062 537.74609375 c 0
 382.940968781 634.204291626 399.63814619 641 410.5546875 641 c 0
EndSplineSet
EndChar

StartChar: V
Encoding: 86 86 56
Width: 496
Flags: HW
LayerCount: 2
Back
Fore
SplineSet
428.631835938 633.875 m 0
 439.3671875 654.037109375 454.641601562 658.618164062 462.236328125 643.955078125 c 0
 464.774414062 639.055664062 463.805664062 631.35546875 459.911132812 625.474609375 c 0
 456.237304688 619.930664062 438.3671875 570.03125 420.197265625 514.586914062 c 0
 401.086341754 456.269064462 377.263136014 404.958123635 353.845703125 329.608398438 c 0
 343.953905236 297.779425674 305.035315684 188.64617071 257.793945312 56.58984375 c 0
 235.25390625 -6.4140625 229.6015625 -14.814453125 209.755859375 -14.814453125 c 0
 198.786132812 -14.814453125 191.28515625 -7.25390625 186.419921875 8.7080078125 c 0
 185.34641766 12.2300992081 116.195285361 272.070014912 101.512695312 366.990234375 c 0
 97.09375 395.551757812 79.0439453125 427.916992188 74.3310546875 450.575195312 c 0
 55.8251953125 539.536132812 30.177734375 593.303710938 32.1025390625 614.384765625 c 0
 33.63671875 631.185546875 38.728515625 637.6171875 51.7451171875 639.192382812 c 0
 90.296875 643.854492188 150.345703125 448.89453125 153.6171875 354.80859375 c 0
 155.481603915 301.134865531 174.557462865 285.172910005 193.044921875 169.997070312 c 0
 214.483398438 36.4296875 211.834960938 39.453125 237.189453125 119.59375 c 0
 257.162109375 182.7265625 296.095703125 280.212890625 389.578125 535.587890625 c 0
 405.569335938 579.271484375 423.24609375 623.758789062 428.631835938 633.875 c 0
EndSplineSet
EndChar

StartChar: W
Encoding: 87 87 57
Width: 595
Flags: HW
VStem: 283.231 39.3564<253.787 438.642> 508.983 51.1201<509.387 624.055>
LayerCount: 2
Back
Fore
SplineSet
508.983398438 573.0078125 m 0
 503.522957754 590.816012244 521.728343863 630.864661525 545.51171875 627.307617188 c 0
 559.286132812 625.248046875 561.1484375 620.225585938 560.103515625 587.959960938 c 0
 558.48046875 537.830078125 558.491210938 562.619140625 427.025390625 239.958984375 c 0
 399.770507812 173.06640625 375.046875 105.5390625 372.283203125 90.43359375 c 0
 361.909179688 33.771484375 332.899414062 11.236328125 308.459960938 40.8544921875 c 0
 283.573167009 71.0159303888 285.707910923 438.670898438 276.35546875 438.670898438 c 0
 265.414619369 438.670898438 245.48069593 322.000835716 208.905273438 213.989257812 c 0
 185.721679688 145.522460938 166.80078125 79.037109375 166.80078125 66.037109375 c 0
 166.80078125 36.919921875 154.596679688 11.736328125 140.485351562 11.736328125 c 0
 116.829101562 11.736328125 91.0849609375 100.6640625 73.279296875 243.893554688 c 0
 66.8232421875 295.834960938 56.5419921875 375.516601562 50.43359375 420.963867188 c 0
 37.318359375 518.547851562 34.32421875 606.58984375 47.595703125 626.91796875 c 0
 54.173828125 636.993164062 62.5517578125 640.162109375 69.279296875 634 c 0
 94.6513671875 610.758789062 81.904296875 623.106445312 86.7265625 525.23828125 c 0
 89.6728515625 465.45703125 94.056640625 395.909179688 98.0048828125 369.809570312 c 0
 101.9140625 343.963867188 109.021484375 288.751953125 113.70703125 247.829101562 c 0
 123.438476562 162.8359375 128.748046875 134.022460938 133.719726562 139.225585938 c 0
 142.708984375 148.635742188 266.305664062 551.208984375 273.108398438 589.770507812 c 0
 278.939453125 622.82421875 296.037109375 644.887695312 315.279296875 641 c 0
 327.767578125 638.477539062 324.67578125 618.102539062 322.587890625 458.345703125 c 0
 320.356445312 287.572265625 321.485351562 129.782226562 332.212890625 129.782226562 c 0
 335.083984375 129.782226562 341.40625 143.5546875 346.122070312 160.081054688 c 0
 350.889648438 176.788085938 386.373046875 265.9296875 425.21875 358.791992188 c 0
 509.165039062 559.470703125 515.2265625 552.630859375 508.983398438 573.0078125 c 0
EndSplineSet
EndChar

StartChar: X
Encoding: 88 88 58
Width: 452
Flags: HW
VStem: 32.1289 55.8848<-0.94208 80.2587> 187.078 60.2793<311.787 394.516>
LayerCount: 2
Back
Fore
SplineSet
77.1748046875 18 m 0
 68.853515625 -1.66015625 62.279296875 -7.7158203125 50.4912109375 -6.578125 c 0
 41.5537109375 -5.71484375 33.68359375 -0.037109375 32.12890625 6.6708984375 c 0
 30.3285203066 14.4326901055 77.7475549545 184.580649224 164.807617188 310.923828125 c 0
 177.467773438 329.298828125 187.451171875 350.862304688 187.078125 359.02734375 c 0
 186.067307091 381.1615959 133.828527546 468.416318681 123.935546875 523.723632812 c 0
 118.278320312 555.350585938 115.927734375 562.12109375 104 582 c 0
 98 592 83 640.034179688 108 640 c 0
 137.90625 639.958984375 140 627 145 615 c 0
 174.144871678 545.058495841 162.322510305 520.619148831 198.876953125 449.661132812 c 2
 223.696289062 401.485351562 l 1
 236.942382812 419.88671875 l 2
 257.737518753 448.769453087 261.931060345 475.720086694 288.383789062 503.064453125 c 0
 338.133712199 554.490650245 368.362722159 640.041566782 389 640 c 0
 424 639.9296875 422.000976562 619 404 591 c 0
 394.260742188 575.850585938 409.6484375 586.465820312 332.142578125 490.975585938 c 0
 289.638671875 438.609375 246.33203125 360.499023438 247.357421875 338.055664062 c 0
 248.590354662 311.067603243 279.011676714 271.967503074 311.240234375 200.087890625 c 0
 333.9765625 149.37890625 344.853515625 130.438476562 384.2734375 72.919921875 c 0
 408.911132812 36.970703125 420.090820312 -9.974609375 404.188476562 -10.7021484375 c 0
 391.89453125 -11.263671875 364.245117188 3.0439453125 352.841796875 15.869140625 c 0
 339.537109375 30.8330078125 278.3828125 145.997070312 277.87890625 157.038085938 c 0
 277.316910842 169.304669654 240.005809735 235.066633425 220.919921875 275.671875 c 0
 212.389648438 293.819335938 207.6953125 297.321289062 200.576171875 290.844726562 c 0
 182.24609375 274.169921875 87.134765625 67.765625 88.013671875 48.5263671875 c 0
 88.1259765625 46.0810546875 83.255859375 32.3662109375 77.1748046875 18 c 0
EndSplineSet
EndChar

StartChar: Y
Encoding: 89 89 59
Width: 350
Flags: HW
VStem: 127.626 45<126.483 232.751>
LayerCount: 2
Back
Fore
SplineSet
301.625976562 641 m 0
 341.625976562 641 296.380859375 570.260742188 281.625976562 536 c 0
 266.87109375 501.740234375 239.673828125 455.2109375 232.787109375 429.21484375 c 1
 177.625976562 356 l 1
 180.586914062 313.8515625 l 2
 192.3671875 146.166015625 176.1484375 36.9296875 172.625976562 22 c 0
 167.907226562 2 148.62890625 -6.1875 135.997070312 6.4443359375 c 0
 128.44921875 13.9921875 122.981445312 226.592773438 127.625976562 334 c 1
 120.107421875 354.741210938 36.841796875 592.888671875 34.1455078125 610.518554688 c 0
 29.8408203125 638.666992188 31.37890625 641 44.6259765625 641 c 0
 69.619140625 641 80.685546875 615.333007812 129.783203125 444.22265625 c 0
 142.323242188 400.518554688 150.403320312 388.283203125 156.19921875 404.22265625 c 0
 158.672851562 411.024414062 196.51953125 443.120117188 233.37109375 522.213867188 c 0
 244.135742188 545.318359375 276.625976562 641 301.625976562 641 c 0
EndSplineSet
EndChar

StartChar: Z
Encoding: 90 90 60
Width: 521
Flags: HW
HStem: 570.72 52.8545<37.7479 316.946>
VStem: 319.883 79.999<544.748 606.613>
LayerCount: 2
Back
Fore
SplineSet
31.5068359375 605.622070312 m 0
 35.9381598836 621.117222672 93.6906955099 630.812184805 114.8359375 626 c 0
 124.48046875 623.8046875 187.881835938 632.743164062 251.881835938 629.14453125 c 0
 359.815429688 623.076171875 399.881835938 615.818359375 399.881835938 597.407226562 c 0
 399.881835938 594.045613502 299.53729631 360.689975674 257.881835938 292.709960938 c 0
 245.965820312 273.262695312 223.416015625 235.458984375 208.681640625 210.229492188 c 0
 193.948242188 185 170.940429688 148.974609375 158.48046875 131.62890625 c 0
 115.415039062 71.6748046875 133.395507812 59.240234375 322.395507812 69.7197265625 c 0
 553.315429688 82.5244140625 467.6953125 96.5537109375 476.8359375 61.8603515625 c 0
 507.270976547 -53.6557808347 175.238722349 38.2624551022 110.282226562 -2.3583984375 c 0
 98.2822265625 -9.8623046875 81.21484375 -15.8671875 71.8828125 -15.8671875 c 0
 32.4638671875 -15.8671875 46.37109375 35.5625 118.857421875 157.829101562 c 0
 200.546875 295.622070312 231.356445312 352.03515625 274.665039062 443.118164062 c 0
 299.581054688 495.518554688 319.8828125 543.87890625 319.8828125 550.829101562 c 0
 319.8828125 580.52957222 18.5567728991 560.351261707 31.5068359375 605.622070312 c 0
EndSplineSet
EndChar

StartChar: bracketleft
Encoding: 91 91 61
Width: 356
Flags: HW
HStem: -21 48.8936<91.547 315.05> 607.799 47.9082<162.964 298.702>
LayerCount: 2
Back
Fore
SplineSet
152.240234375 646.349609375 m 0
 172.981445312 651.008789062 205.05078125 655.228515625 223.3515625 655.70703125 c 0
 260.388671875 656.674804688 307.306640625 637.112304688 310.715820312 619.280273438 c 0
 312.643554688 609.193359375 302.610351562 607.483398438 243.3515625 607.798828125 c 0
 198.166015625 608.0390625 169.821289062 604.91796875 162.610351562 598.909179688 c 0
 154.047851562 591.7734375 150.297851562 562.983398438 146.256835938 473.353515625 c 0
 140.646484375 348.909179688 118.236328125 161.415039062 100.75 92.61328125 c 0
 94.9130859375 69.650390625 90.0185546875 42.7890625 90.0185546875 33.724609375 c 0
 90.0185546875 18.248046875 92.240234375 17.45703125 121.12890625 22.6416015625 c 0
 175.203125 32.34765625 267.251953125 26.2265625 287.106445312 27.8935546875 c 0
 331.918930532 31.6527141224 335.475989478 -8.13077861184 265.380859375 -21 c 0
 232.176757812 -27.09765625 100.388671875 -31.6884765625 66.314453125 -32.3798828125 c 0
 50.0185546875 -32.7109375 28.9580078125 -11.3291015625 33.671875 0.76171875 c 0
 35.5702410026 5.63194755863 106.633938655 273.052850109 93.66796875 520.020507812 c 0
 87.8349609375 631.131835938 88.22265625 631.96875 152.240234375 646.349609375 c 0
EndSplineSet
EndChar

StartChar: backslash
Encoding: 92 92 62
Width: 397
Flags: HW
VStem: 315.041 48.8906<-99.0884 -10.6996>
LayerCount: 2
Back
Fore
SplineSet
52.8212890625 623.592773438 m 0
 52.8212890625 645.003724752 28.3573638853 678.210902097 33.5615234375 691.741210938 c 0
 39.8115234375 707.991210938 66.353515625 702.852539062 79.4716796875 682.852539062 c 0
 91.3544921875 664.735351562 98.2568359375 642.111328125 123.540039062 538.408203125 c 0
 148.823242188 434.704101562 218.649414062 238.169921875 248.28515625 187.296875 c 0
 303.951171875 91.7412109375 363.931640625 -51.5615234375 363.931640625 -89 c 0
 363.931640625 -121.668945312 322.350585938 -117.888671875 315.041015625 -84.5546875 c 0
 306.919921875 -47.5185546875 287.965820312 9.0380859375 281.279296875 16.185546875 c 0
 277.814453125 19.8896484375 275.04296875 28.7783203125 275.04296875 36.185546875 c 0
 275.04296875 43.4833984375 256.709960938 81.37109375 234.5390625 119.889648438 c 0
 172.717773438 227.296875 112.475585938 381.061523438 90.306640625 488.037109375 c 0
 77.819701617 548.291138481 52.8212890625 602.530364178 52.8212890625 623.592773438 c 0
EndSplineSet
EndChar

StartChar: bracketright
Encoding: 93 93 63
Width: 336
Flags: HW
HStem: -23 40.708<195.67 252.781> 621.67 40.4277<39.2215 252.466>
VStem: 226.041 46.7402<18.2283 400.256> 250.874 44.6055<380.567 614.682>
LayerCount: 2
Back
Fore
SplineSet
220.208007812 667.09765625 m 0
 259.836914062 674.934570312 271.701171875 666.497070312 286.162109375 656.506835938 c 0
 297.490234375 648.680664062 298.732421875 640.03515625 295.479492188 591.65625 c 0
 290.822265625 522.413085938 285.25 411.63671875 281.116210938 306.1015625 c 0
 279.33984375 260.765625 275.626953125 207.7109375 272.78125 187 c 0
 269.965820312 166.5 271.66015625 111.07421875 266.78125 57 c 0
 259.162109375 -27.4443359375 266.837890625 -23.3681640625 252.78125 -23 c 0
 215.34953438 -22.0181101349 214.99303245 -22.0087585562 180.78125 -17 c 0
 104.842312262 -5.88138130932 104.842312262 -5.88138130932 65.5224609375 -6.1484375 c 0
 43.30078125 -6.298828125 27.1103515625 8.412109375 35.0478515625 21.2587890625 c 0
 41.7578125 32.119140625 173.010742188 18.541015625 195.669921875 17.7080078125 c 0
 215.963867188 16.9619140625 216.85546875 11.771484375 219.862304688 45.888671875 c 0
 221.232421875 61.4443359375 223.994140625 83.978515625 226.041015625 96.2587890625 c 0
 226.584454394 99.5202009838 224.438067698 158.813372971 242.329101562 426.495117188 c 0
 246.008789062 481.571289062 249.870117188 546.787109375 250.874023438 570.826171875 c 2
 252.704101562 614.681640625 l 1
 222.694335938 621.069335938 l 2
 183.33984375 629.446289062 76.0517578125 615.793945312 56.3525390625 621.669921875 c 0
 40.978515625 626.254882812 37.2333984375 631.163085938 39.5 643.751953125 c 0
 42.2392578125 658.959960938 47.240234375 660.069335938 122.208007812 662.09765625 c 0
 166.002929688 663.282226562 205.024414062 664.094726562 220.208007812 667.09765625 c 0
EndSplineSet
EndChar

StartChar: underscore
Encoding: 95 95 64
Width: 560
Flags: HW
HStem: 12 51.4248<58.7167 305.927>
LayerCount: 2
Back
Fore
SplineSet
410.059570312 72.4072265625 m 0
 491.995117188 76.673828125 515.282226562 71.5419921875 513.723632812 49.560546875 c 0
 512.182617188 27.802734375 488.56640625 17.775390625 453.541015625 24.005859375 c 0
 436.919921875 26.962890625 392.451171875 25.1826171875 353.486328125 20 c 0
 307.743156911 13.9158167402 124.909982182 13.814797054 70.2265625 0.888671875 c 0
 54.671875 -2.7880859375 48.70703125 -0.94921875 44.9912109375 8.6669921875 c 0
 31.9677734375 42.3740234375 83.1904296875 62.0361328125 187.634765625 63.4248046875 c 0
 221.708984375 63.8779296875 287.4140625 61.8310546875 306.873046875 64.361328125 c 0
 325.911132812 66.8369140625 371.771484375 70.4130859375 410.059570312 72.4072265625 c 0
EndSplineSet
EndChar

StartChar: grave
Encoding: 96 96 65
Width: 303
Flags: HW
HStem: 544.566 229.767
VStem: 43 218.109
LayerCount: 2
Back
Fore
SplineSet
43 759.807617188 m 0
 43 766.135249056 43 774.333007812 67.2421875 774.333007812 c 0
 96.9679503792 774.333007812 108.3790295 711.144367594 209.971679688 607.682617188 c 0
 227.365234375 589.967773438 252.2265625 563.325195312 261.109375 547.807617188 c 1
 256.685546875 545.646484375 251.733398438 544.56640625 246.190429688 544.56640625 c 0
 217.965820312 544.56640625 175.297851562 573.91796875 130.969726562 629.134765625 c 2
 68.2646484375 706.922851562 l 2
 51.6552734375 727.408203125 43 747.336914062 43 759.807617188 c 0
EndSplineSet
EndChar

StartChar: a
Encoding: 97 97 66
Width: 353
Flags: HW
HStem: 164.26 34.9902<140.737 246.705> 277.25 44<90.6561 243.495>
VStem: 260.268 34.1016<2.47261 118.25 199.25 255.796> 267.268 40.6826<0.190408 107.723>
LayerCount: 2
Back
Fore
SplineSet
180.950195312 77 m 0
 197.838867188 92.935546875 190.267578125 82.25 207.267578125 99.25 c 0
 218.778320312 110.760742188 211.267578125 106.25 233.267578125 133.25 c 0
 244.880859375 147.502929688 243.267578125 148.25 247.267578125 165.25 c 1
 235.267578125 163.25 223.2109375 164.259765625 208.856445312 164.259765625 c 0
 183.735351562 164.259765625 171.772460938 158.245117188 155.025390625 152.23046875 c 0
 123.614257812 140.94921875 89.5625 130.2890625 82.267578125 102.25 c 0
 65.14453125 36.4365234375 95.267578125 41.25 112.267578125 41.25 c 0
 127.720703125 41.25 151.831054688 49.5244140625 180.950195312 77 c 0
307.950195312 28 m 0
 308.426757812 19.7236328125 319.040039062 5.09765625 300.950195312 -12 c 0
 295.708984375 -16.953125 283.950195312 -5 278.950195312 0 c 0
 268.936394967 10.0138003446 259.722068632 108.430829131 260.267578125 118.25 c 1
 234.267578125 64.25 154.424804688 -2.68359375 126.376953125 -0.615234375 c 0
 69.25390625 3.59765625 29.9931640625 18.0537109375 42.55859375 99.0947265625 c 0
 47.3310546875 129.875 60.740234375 142.296875 98.8017578125 172.280273438 c 0
 116.455907023 186.187524043 186.374390361 214.226779949 255.267578125 199.25 c 1
 253.688476562 225.606445312 264.860351562 236.3046875 240.267578125 259.25 c 0
 215.69921875 282.171875 191.267578125 275.25 159.267578125 277.25 c 0
 139.267578125 278.25 127.807617188 272.387695312 109.657226562 266.552734375 c 0
 91.5078125 260.717773438 85.4580078125 246.129882812 66.09765625 244.184570312 c 0
 54.0302734375 242.973632812 35.84765625 249.047851562 37.0576171875 258.772460938 c 0
 39.3486328125 277.18359375 52.267578125 289.25 70.9375 296.700195312 c 0
 107.982656527 311.483168323 189.197074538 341.147430621 250.267578125 306.25 c 0
 270.0859375 294.92578125 277.267578125 295.25 285.267578125 271.25 c 0
 300.568359375 225.348632812 291.2109375 254.361328125 294.369140625 166.212890625 c 0
 298.376953125 54.361328125 306.9140625 45.998046875 307.950195312 28 c 0
EndSplineSet
EndChar

StartChar: b
Encoding: 98 98 67
Width: 392
Flags: HW
VStem: 46.0117 42<236 376.393>
LayerCount: 2
Back
Fore
SplineSet
298.538085938 255.030273438 m 0
 279.174804688 276.30859375 227.702148438 284.208984375 201.01171875 270 c 0
 173.53515625 255.373046875 100.01171875 215 96.01171875 170 c 0
 90.1005859375 103.500976562 135.749023438 64.19140625 160.517578125 51.072265625 c 0
 186.633789062 37.2392578125 211.721679688 41.896484375 246.928710938 67.1162109375 c 0
 301.33984375 106.091796875 324.908203125 226.049804688 298.538085938 255.030273438 c 0
65.623046875 638.400390625 m 0
 72.8193359375 647.799804688 72.4677734375 647.606445312 89.951171875 636.08984375 c 0
 100.607421875 629.0703125 103.002929688 619.525390625 100.01171875 596 c 0
 92.720703125 538.66015625 83.73046875 241.333007812 88.01171875 236 c 0
 90.6327567745 232.734798397 164.856021688 309.87647116 180.932617188 308.307617188 c 0
 197.065029621 306.734179378 178.418330207 319.550185446 227.526367188 320.541992188 c 0
 276.744140625 321.537109375 325.341796875 294.688476562 342.9453125 256.77734375 c 0
 381.1484375 174.501953125 280.068359375 -5.1435546875 180.5625 4.7861328125 c 0
 127.493164062 10.08203125 111.706054688 17.7548828125 101.62890625 43.1494140625 c 0
 96.7138671875 55.537109375 90.4052734375 65.8271484375 87.55859375 66.10546875 c 0
 76.3287278317 67.1995405862 79.1569708476 -45.525940996 52.2333984375 -0.6533203125 c 0
 39.6357421875 20.3427734375 44.291015625 38.5537109375 43.1142578125 79.55859375 c 0
 40.9072514619 156.446439219 63.9490070979 400.836417643 55.9169921875 420.08203125 c 0
 48.79296875 437.150390625 56.37109375 626.318359375 65.623046875 638.400390625 c 0
EndSplineSet
EndChar

StartChar: c
Encoding: 99 99 68
Width: 340
Flags: HW
LayerCount: 2
Back
Fore
SplineSet
129.299804688 318.478515625 m 0
 159.703125 336.997070312 175.225585938 336.552734375 215.965820312 315.998046875 c 0
 241.151367188 303.29296875 249.063476562 294.92578125 250.78125 279.184570312 c 0
 252.639648438 262.1484375 250.09375 258.814453125 235.225585938 258.814453125 c 0
 195.166955764 258.814453125 204.633877499 313.711357016 138.188476562 271.55859375 c 0
 120.328125 260.227539062 108.623046875 244.740234375 100.56640625 221.77734375 c 0
 67.0380859375 126.221679688 88.5947265625 60 136.594726562 38 c 0
 142.94140625 35.0908203125 195.221679688 29.18359375 234.000976562 45.1513671875 c 0
 268.000976562 59.1513671875 291.52734375 70.3125 298.594726562 63 c 0
 305.69921875 55.6494140625 294.362304688 16.57421875 254.000976562 8.1513671875 c 0
 144.740234375 -14.650390625 126.631835938 -6.5048828125 80.447265625 22.46875 c 0
 -0.7421875 73.4033203125 37.447265625 262.53515625 129.299804688 318.478515625 c 0
EndSplineSet
EndChar

StartChar: d
Encoding: 100 100 69
Width: 379
Flags: HW
VStem: 294.814 36.9629<359.214 640.495> 294.964 28.8135<4.678 126.576 280.873 359.214>
LayerCount: 2
Back
Fore
SplineSet
210.77734375 287 m 0
 197.69921875 298.701171875 155.370117188 292.416992188 137.591796875 279.99609375 c 0
 113.364257812 263.069335938 89.0302734375 275.296875 75.77734375 159 c 0
 70.7361145674 114.762614727 80.7204259263 10.6300476376 154.77734375 60 c 0
 178.77734375 76 191.848632812 88.0205078125 204.77734375 97 c 0
 235.814453125 118.555664062 253.204101562 146.444335938 260.77734375 162 c 0
 273.458984375 188.047851562 288.681640625 205.153320312 263.77734375 245 c 0
 238.77734375 285 248.77734375 253 210.77734375 287 c 0
57.77734375 12 m 0
 48.6361712718 26.4820546349 37.2874818161 44.4614047811 38.77734375 116 c 1
 31.30859375 218.637695312 46.77734375 245 96.64453125 313.147460938 c 0
 102.254882812 320.813476562 150.184570312 343 162.77734375 343 c 0
 174.8984375 343 214.77734375 341 239.77734375 315 c 1
 239.77734375 315 273.77734375 295 287.77734375 279 c 1
 292.77734375 318 293.891601562 419.594726562 294.963867188 432.22265625 c 0
 303.963867188 538.22265625 292.380859375 622.658203125 294.814453125 629.1484375 c 0
 297.302734375 635.78515625 307.40625 641 317.77734375 641 c 0
 344.236328125 641 336.918945312 596.815429688 331.77734375 562 c 0
 317.995117188 468.666992188 320.203125 205.465820312 323.77734375 165 c 0
 329.862304688 96.111328125 326.697265625 5.3408203125 312.77734375 0 c 0
 279.219037795 -12.8748829398 304.837245947 60.4837703479 295.923828125 99.8515625 c 2
 289.77734375 127 l 1
 249.256835938 79.8515625 l 2
 226.702148438 53.607421875 231.77734375 52 179.77734375 27 c 0
 138.234375 7.02734375 76.1103515625 -26.8759765625 57.77734375 12 c 0
EndSplineSet
EndChar

StartChar: e
Encoding: 101 101 70
Width: 378
Flags: HW
VStem: 35.1074 308.826
LayerCount: 2
Back
Fore
SplineSet
232.78515625 286 m 0
 183.376953125 308.4921875 122.13671875 285.629882812 95.107421875 224.888671875 c 0
 82.6484375 196.890625 84.107421875 150.888671875 85.107421875 136.888671875 c 1
 101.107421875 140.888671875 114.180664062 146.451171875 131.107421875 148.888671875 c 0
 164.799804688 153.740234375 271.877929688 227.61328125 263.107421875 260.888671875 c 0
 260.811523438 269.599609375 243.155273438 281.279296875 232.78515625 286 c 0
35.107421875 169.888671875 m 0
 38.955078125 221.536132812 70.5751953125 272.704101562 104.93359375 299.903320312 c 0
 168.806640625 350.465820312 253.823242188 328.444335938 271.166992188 305.71875 c 0
 298.301757812 270.163085938 310.74609375 227.424804688 291.107421875 204.888671875 c 0
 282.0703125 194.518554688 271.237304688 181.15625 266.487304688 174.518554688 c 0
 247.627777699 148.172699666 130.819916069 101.888671875 83.107421875 101.888671875 c 1
 101.78515625 48 124.49609375 40.7724609375 166.155273438 31.607421875 c 0
 185.291015625 27.3974609375 200.229492188 32.98828125 255.78515625 65.15234375 c 0
 315.78515625 99.888671875 343.93359375 107.197265625 343.93359375 88.037109375 c 0
 343.93359375 80.177734375 289.859375 40.2158203125 239.489257812 10.8505859375 c 0
 202.74609375 -10.5703125 116.387695312 -20.69921875 66.78515625 47 c 0
 44.38671875 77.5703125 33.8017578125 152.3671875 35.107421875 169.888671875 c 0
EndSplineSet
EndChar

StartChar: f
Encoding: 102 102 71
Width: 335
Flags: HW
HStem: 319 30.4316<183.883 299.763> 590.516 39.1611<198.405 287.817>
VStem: 134.697 45.7109<-4.55744 307.63 356.028 576.198>
LayerCount: 2
Back
Fore
SplineSet
149.139648438 573.709960938 m 0
 153.174457088 603.295986136 194.745453837 661.419526382 258.387695312 629.676757812 c 0
 283.251953125 617.275390625 291.784179688 613.08203125 292.803710938 593.849609375 c 0
 294.123046875 568.984375 254.16015625 590.374023438 241.913085938 590.515625 c 0
 201.87890625 590.98046875 189.331054688 570.405273438 183.919921875 518.087890625 c 0
 174.56640625 427.653320312 183.625976562 371.592773438 185.078125 349.431640625 c 1
 218.072265625 350.590820312 261.459960938 356.088867188 277.62890625 357.147460938 c 0
 296.84765625 358.40625 311.275390625 325.228515625 296.104492188 319 c 0
 291.373046875 317.057617188 219.5234375 319.734375 182.104492188 312 c 1
 181.547851562 289.916015625 178.545898438 159.758789062 180.408203125 100.75390625 c 0
 182.959960938 19.8828125 175.721679688 -3.4794921875 159.033203125 -4.5732421875 c 0
 135.287109375 -6.12890625 130.309570312 12.103515625 133.747070312 88.0458984375 c 0
 135.559570312 128.091796875 134.190429688 120.452148438 134.697265625 164.048828125 c 2
 136.3671875 307.629882812 l 1
 109.018554688 305.837890625 l 2
 75.755859375 303.658203125 32.208984375 302.147460938 31.1044921875 319 c 0
 29.609375 341.814453125 44.1044921875 340 80.1044921875 344 c 0
 103.881835938 346.641601562 132.415039062 347.897460938 134.111328125 355.743164062 c 0
 140.021353248 383.070126025 128.825342783 445.618455479 138.442382812 504.71484375 c 0
 142.83984375 531.7265625 147.612304688 562.508789062 149.139648438 573.709960938 c 0
EndSplineSet
EndChar

StartChar: g
Encoding: 103 103 72
Width: 402
Flags: HW
VStem: 312.835 41.2637<276.749 312.557> 313.961 33.1377<278.34 324.423>
LayerCount: 2
Back
Fore
SplineSet
274.0859375 252.458007812 m 0
 261.153320312 270.921875 201.221679688 291.23828125 185.03515625 288.204101562 c 0
 123.982421875 276.7578125 77.005859375 228.970703125 82.0986328125 155 c 0
 86.423828125 92.1865234375 98.548828125 97.8623046875 128.098632812 65 c 0
 150.680428008 39.8865365595 235.474559129 6.6716766333 261.098632812 41 c 0
 267.885742188 50.0927734375 282.223632812 67.2890625 292.098632812 94 c 0
 312.138671875 148.206054688 324.224609375 180.875976562 274.0859375 252.458007812 c 0
72.1513671875 -275.765625 m 0
 81.3544921875 -265.116210938 145.237304688 -291.390625 161.924804688 -289.18359375 c 0
 190.672851562 -285.380859375 223.494140625 -248.91015625 242.0703125 -200.126953125 c 0
 257.6484375 -159.212890625 273.944335938 -56.5654296875 269.814453125 -25.349609375 c 0
 267.538085938 -8.138671875 265.533203125 -7.6708984375 237.741210938 -17.861328125 c 0
 153.110351562 -48.892578125 39.6708984375 33.3115234375 35.09765625 153.00390625 c 0
 32.8818359375 210.993164062 68.623046875 275.146484375 107.419921875 300.049804688 c 0
 126.3046875 312.171875 175.350585938 325.138671875 204.9453125 329.052734375 c 0
 233.239257812 332.795898438 296.166992188 293.709960938 312.834960938 276.749023438 c 1
 313.124023438 311.577148438 311.721679688 289.032226562 313.9609375 313.677734375 c 0
 314.552734375 320.190429688 329.403320312 325.807617188 337.3984375 324.84765625 c 0
 345.393554688 323.887695312 346.311523438 316.948242188 347.098632812 311 c 0
 352.758789062 258.287109375 355.640625 231.377929688 354.098632812 211 c 0
 352.185546875 185.71484375 358.5078125 154.012695312 352.098632812 112 c 0
 343.098632812 53 344.098632812 72 341.098632812 16 c 0
 338.995117188 -23.2744140625 328.115234375 -76.2490234375 322.849609375 -98.28515625 c 0
 292.059570312 -227.137695312 285.546875 -242.90234375 243.821289062 -289.55859375 c 0
 205.92578125 -331.930664062 198.4921875 -336.650390625 162.041015625 -341.471679688 c 0
 117.172851562 -347.407226562 40.6591796875 -312.209960938 72.1513671875 -275.765625 c 0
EndSplineSet
EndChar

StartChar: h
Encoding: 104 104 73
Width: 401
Flags: HW
VStem: 47.6396 58.8418<1.41797 216.712> 47.6396 50.9404<253.398 594.514> 305.339 42.4551<-6.40198 261.054>
LayerCount: 2
Back
Fore
SplineSet
60.7138671875 613.637695312 m 0
 73.86328125 658.190429688 91.267578125 655.100585938 96.6630859375 607.256835938 c 0
 103.201572599 549.298693223 90.5966988585 573.167953676 95.6396484375 385 c 0
 97.5517578125 313.654296875 98.0810546875 344.354492188 97.6396484375 312 c 0
 97.2021484375 279.897460938 96.3505859375 255.174804688 98.580078125 253.3984375 c 0
 108.682123937 245.347150347 141.869014636 316.425255469 235.639648438 327 c 0
 289.373046875 333.060546875 323.865234375 319.896484375 344.186523438 285.571289062 c 0
 358.001953125 262.237304688 355.4296875 118.381835938 347.793945312 54.158203125 c 0
 341.865234375 4.2900390625 337.427734375 -5.900390625 320.823242188 -7.7724609375 c 0
 266.035660094 -13.9538117735 349.037086813 242.190245642 287.077148438 280.71875 c 0
 259.919921875 297.604492188 220.263671875 291.483398438 177.174804688 263.75390625 c 0
 126.74609375 231.30078125 107.639648438 211 106.481445312 66.4150390625 c 0
 106.125 21.91015625 97.9013671875 0 77.6396484375 0 c 0
 59.6396484375 0 48.6396484375 16 47.6396484375 48 c 0
 45.2880859375 123.256835938 50.98046875 134.734375 43.1787109375 378.358398438 c 0
 37.8984375 543.249023438 51.541015625 582.559570312 60.7138671875 613.637695312 c 0
EndSplineSet
EndChar

StartChar: k
Encoding: 107 107 76
Width: 398
Flags: HW
HStem: 11.8428 34.4033<292.245 347.843>
VStem: 37.2783 69.6768<433.254 584.25> 54.6055 48.3496<1.44132 181.436 250.662 312.751>
LayerCount: 2
Back
Fore
SplineSet
37.2783203125 642.1328125 m 0
 40 649.099609375 66.93359375 641.391601562 76.181640625 631 c 0
 86.9270805018 618.927768377 105.331946371 391.079879194 106.556640625 285.188476562 c 2
 106.955078125 250.662109375 l 1
 145.181640625 277 l 2
 146.897460938 278.876953125 276.7109375 430.424804688 291.181640625 433 c 0
 311.844726562 436.676757812 314.189453125 383.124023438 295.569335938 360.9296875 c 0
 186.323242188 230.717773438 177.439453125 217.392578125 182.453125 191.247070312 c 0
 186.1171875 172.141601562 201.708984375 150.283203125 240.077148438 110.463867188 c 0
 282.157226562 66.791015625 299.791992188 53.9462890625 328.248046875 46.24609375 c 0
 391.076171875 29.244140625 367.4765625 -0.8466796875 301.265625 11.8427734375 c 0
 219.382907709 27.5373074678 147.152569763 167.867768688 144.955078125 167.662109375 c 0
 142.5078125 167.43359375 130.7890625 206.739257812 121.723632812 172.7734375 c 0
 106.518554688 115.805664062 105.389648438 118.819335938 102.955078125 47.662109375 c 0
 101.763671875 12.8408203125 94.7333984375 0.80859375 75.712890625 1.0390625 c 0
 52.34375 1.3212890625 42.458984375 18.7255859375 54.60546875 100.638671875 c 0
 73.3984375 227.381835938 79.451171875 276.458984375 46.201171875 543.654296875 c 0
 39.8798828125 594.444335938 35.8828125 638.5625 37.2783203125 642.1328125 c 0
EndSplineSet
EndChar

StartChar: l
Encoding: 108 108 77
Width: 153
Flags: HW
VStem: 54.8467 46.8379<3.98695 695.558>
LayerCount: 2
Back
Fore
SplineSet
29.7568359375 700.41015625 m 1048
49.4912109375 695.638671875 m 0
 49.8203125 696.635742188 56.771484375 697.938476562 64.1650390625 698.388671875 c 0
 95.6982421875 700.311523438 97.6044921875 689.295898438 100.642578125 487.625976562 c 0
 102.228515625 382.340820312 102.696289062 257.913085938 101.684570312 210.879882812 c 0
 100.67578125 164.064453125 101.087890625 105.030273438 102.594726562 80.322265625 c 0
 106.426757812 17.4765625 76.7373046875 -20.0361328125 47.6689453125 10.9248046875 c 0
 28.9273045819 30.8853622171 57.319265086 81.8227109075 54.8466796875 206.16796875 c 0
 54.7693098874 210.058114669 54.9335245649 518.347206397 52.2724609375 595.250976562 c 0
 50.40234375 649.311523438 49.1474609375 694.599609375 49.4912109375 695.638671875 c 0
EndSplineSet
EndChar

StartChar: m
Encoding: 109 109 78
Width: 475
Flags: HW
HStem: 259.556 44.4443<185.766 236.741>
VStem: 42.5391 70.8945<37.0593 163.079> 60.0186 44.1904<199.043 321.686> 231.273 51<10.2377 229.29> 373.019 44.1533<-1.35243 273.663>
LayerCount: 2
Back
Fore
SplineSet
57.2109375 315.133789062 m 0
 74.2470703125 326.02734375 91.5634765625 323.760742188 102.975585938 309.778320312 c 0
 110.044921875 301.116210938 103 298 104.208984375 266.111328125 c 0
 105.697265625 226.852539062 104.6640625 196.8515625 108.653320312 196.8515625 c 0
 112.491210938 196.8515625 130.196289062 244.110351562 138.018554688 253 c 0
 160.833007812 278.92578125 201.08203125 304 223.018554688 304 c 0
 237.952148438 304 247.706054688 304.229492188 270.018554688 294 c 1
 288.293945312 266.333007812 l 1
 310.018554688 280 l 2
 342.923828125 300.701171875 363.9296875 344.008789062 421.892578125 308.444335938 c 0
 436.142578125 299.701171875 430.23046875 279.555664062 423.759765625 239.555664062 c 0
 419.244140625 211.639648438 420.045898438 128.704101562 417.171875 94.6298828125 c 0
 414.297851562 60.5556640625 410.616210938 0.3662109375 407.537109375 -1.4814453125 c 0
 404.362304688 -3.3857421875 396.42578125 -2.7509765625 389.018554688 0 c 0
 363.642244646 9.42433457843 373.146232925 214.931602882 382.205078125 257.333007812 c 0
 392.618164062 306.0859375 280.865234375 261.881835938 282.2734375 154.07421875 c 0
 283.279296875 77.07421875 264.305664062 -18.2529296875 246.018554688 7 c 0
 230.823242188 27.9833984375 225.211914062 93.259765625 231.2734375 154.07421875 c 0
 237.118164062 212.715820312 249.592773438 259.555664062 211.908203125 259.555664062 c 0
 189.885742188 259.555664062 119.848632812 146.481445312 113.43359375 116.8515625 c 0
 91.4609375 15.3701171875 68.833984375 -25.9921875 43.837890625 -10.3701171875 c 0
 19.8354799627 4.63172302857 72.5877701175 163.689315409 60.0185546875 282 c 0
 58 301 47.564453125 308.965820312 57.2109375 315.133789062 c 0
EndSplineSet
EndChar

StartChar: n
Encoding: 110 110 79
Width: 376
Flags: HW
HStem: -4.78906 324.805
VStem: 44.2598 45.4277<-3.63141 118.065 218.904 319.128>
LayerCount: 2
Back
Fore
SplineSet
58.798828125 320.015625 m 0
 65.275390625 321.686523438 75.9306640625 316.681640625 83.2431640625 308.533203125 c 0
 93.7158203125 296.864257812 101.223632812 279.127929688 96.2060546875 218.904296875 c 2
 90.798828125 154 l 1
 101.80078125 202.618164062 109.8828125 213.354492188 126.798828125 235 c 0
 167.682617188 287.315429688 278.798828125 358 320.798828125 257 c 0
 335.749023438 221.047851562 336.721679688 214.830078125 322.987304688 140.015625 c 0
 316.459960938 104.459960938 311.020507812 61.025390625 311.020507812 44.4599609375 c 0
 311.020507812 9.64453125 292.2890625 -6.3857421875 270.280273438 9.59375 c 0
 257.63671875 18.7734375 257.606445312 23.7607421875 273.794921875 105.200195312 c 0
 302.788085938 251.052734375 265.642578125 332.241210938 157.6875 204.373046875 c 0
 81.8994112774 114.605120263 106.50874884 7.77396802967 65.8359375 -4.7890625 c 0
 38.107421875 -13.3515625 33.7158203125 1.4970703125 44.259765625 68.1630859375 c 0
 62.1105208968 181.032856484 36.8817685945 314.358412283 58.798828125 320.015625 c 0
EndSplineSet
EndChar

StartChar: o
Encoding: 111 111 80
Width: 360
Flags: HW
HStem: -7.40723 45.9619<107.44 218.008>
VStem: 274.53 46.4697<103.241 253.178>
LayerCount: 2
Back
Fore
SplineSet
240.826171875 265.185546875 m 0
 225.271484375 279.543945312 206.125976562 292.53515625 199.344726562 293.333007812 c 0
 157.774864459 298.223475026 16.6156004928 149.396118257 112.678710938 53.3330078125 c 0
 128.250976562 37.7607421875 136.381835938 35.41015625 163.790039062 38.5546875 c 0
 211.197265625 43.9951171875 230.234375 60.7412109375 269.853515625 131.8515625 c 0
 276.286132812 143.397460938 277.79296875 163.333007812 274.530273438 193.704101562 c 0
 270.232421875 233.704101562 266.611328125 241.383789062 240.826171875 265.185546875 c 0
149.715820312 316.756835938 m 0
 203.636309845 355.183675508 327.246091748 326.580634727 321 181 c 0
 318.385742188 120.080078125 317.863540751 125.925612575 287.048828125 78.5185546875 c 0
 250.9375 22.962890625 202.397460938 -7.4072265625 149.715820312 -7.4072265625 c 0
 113.595703125 -7.4072265625 74.724609375 22.962890625 50.1689453125 70.3701171875 c 0
 10.4599609375 147.030273438 50.4560546875 246.025390625 149.715820312 316.756835938 c 0
EndSplineSet
EndChar

StartChar: gravecomb
Encoding: 768 768 81
Width: 0
Flags: HW
HStem: 596.432 177.901
VStem: 43 178.975
LayerCount: 2
Fore
SplineSet
43 759.807617188 m 0
 43 766.136213502 43 774.333007812 67.2421875 774.333007812 c 0
 79.7763671875 774.333007812 87.9541015625 767.577148438 115.591796875 723.35546875 c 0
 147.156236681 672.851055469 199.383885089 639.132740416 221.974609375 599.672851562 c 1
 217.549804688 597.51171875 212.598632812 596.431640625 207.0546875 596.431640625 c 0
 178.831054688 596.431640625 136.163085938 625.783203125 91.8349609375 681 c 1
 68.2646484375 706.922851562 l 2
 52.1640625 724.630859375 43 747.336914062 43 759.807617188 c 0
EndSplineSet
EndChar

StartChar: acutecomb
Encoding: 769 769 91
Width: 0
Flags: HW
HStem: 609 178.978
VStem: 43.2295 175.592
LayerCount: 2
Fore
SplineSet
194.579101562 787.977539062 m 0
 218.821289062 787.977539062 218.821289062 787.977539062 218.821289062 773.452148438 c 0
 218.821289062 760.981445312 209.657226562 738.275390625 193.556640625 720.567382812 c 2
 169.986328125 694.64453125 l 2
 122.440429688 642.353515625 90.2294921875 617 67.2294921875 609 c 0
 61.9931640625 607.178710938 44.21875 604.782226562 43.2294921875 608 c 0
 39.6376953125 619.682617188 79.1484375 654.278320312 94.2294921875 674 c 0
 120.229492188 708 120.229492188 703 146.229492188 737 c 0
 177.90625 778.423828125 182.044921875 787.977539062 194.579101562 787.977539062 c 0
EndSplineSet
EndChar

StartChar: dotlessi
Encoding: 305 305 110
Width: 143
Flags: HW
HStem: 0 313.5
VStem: 46.5664 45.751<5.55737e-08 314.202>
LayerCount: 2
Fore
SplineSet
72.197265625 313.5 m 0
 105.420898438 297.623046875 89.298828125 279.62890625 90.837890625 137.037109375 c 2
 92.3173828125 0 l 1
 68.5400390625 0 l 2
 46.1201171875 0 44.865234375 1.8515625 46.56640625 32.4072265625 c 0
 57.1193280802 221.951526978 24.4731599773 302.684283271 58.197265625 313.5 c 0
 62.556640625 314.8984375 63.4794921875 317.666015625 72.197265625 313.5 c 0
EndSplineSet
EndChar

StartChar: uni0237
Encoding: 567 567 145
Width: 273
Flags: HW
HStem: 306 20G<201.425 201.425>
VStem: 178.193 45.4531<8.44442 212.74>
LayerCount: 2
Back
Fore
SplineSet
178.091796875 212.740234375 m 2
 178.091796875 212.740234375 173.424804688 277 179.424804688 318 c 0
 180.759765625 327.122070312 201.424804688 326 201.424804688 326 c 1
 201.424804688 326 219.681640625 326.059570312 221.424804688 318 c 0
 229.424804688 281 223.646484375 219.77734375 223.646484375 219.77734375 c 2
 225.923828125 119.087890625 215.831054688 29.03125 200.424804688 -47.6298828125 c 0
 193.578125 -81.7041015625 189.405273438 -88.1865234375 168.83203125 -96.708984375 c 0
 125.869140625 -114.5078125 70.65625 -117.963867188 49.5732421875 -104.173828125 c 0
 15.3134765625 -81.765625 32.5361328125 -37.1669921875 68.091796875 -56.2197265625 c 0
 91.794921875 -68.9208984375 140.713867188 -64.62109375 148.956054688 -49.111328125 c 0
 158.087890625 -31.9287109375 179.790039062 70.888671875 178.193359375 89.4072265625 c 0
 177.52734375 97.1357421875 177.33203125 152.74609375 178.091796875 212.740234375 c 2
EndSplineSet
EndChar

StartChar: uni0302
Encoding: 770 770 148
Width: 0
Flags: HW
VStem: 44.0723 261.619
LayerCount: 2
Fore
SplineSet
194.681640625 801.341796875 m 0
 216.392578125 813.182617188 214.786132812 815.016601562 237.264648438 752.731445312 c 0
 245.641601562 729.516601562 260.077148438 701.104492188 269.104492188 690.057617188 c 0
 285.6171875 669.850585938 308.018554688 616.567382812 305.69140625 603.02734375 c 0
 301.900390625 580.973632812 269.133789062 599.939453125 258.177734375 630.52734375 c 0
 247.48246692 660.401660697 222.887059279 683.500649858 211.791015625 716.090820312 c 0
 206.571289062 731.423828125 200.416015625 738.870117188 192.853515625 739.006835938 c 0
 180.380859375 739.23046875 108.000976562 655.186523438 90.083984375 619.677734375 c 0
 81.2900390625 602.24609375 74.9560546875 596.931640625 62.3798828125 596.4296875 c 0
 51.29296875 595.986328125 45.4345703125 599.310546875 44.072265625 606.819335938 c 0
 40.59765625 625.970703125 163.000976562 784.063476562 194.681640625 801.341796875 c 0
EndSplineSet
EndChar

StartChar: asciitilde
Encoding: 126 126 149
Width: 444
Flags: HW
LayerCount: 2
Back
Fore
SplineSet
104.715820312 345.8671875 m 0
 152.124023438 389.482421875 197.159179688 386.643554688 197.7890625 340 c 0
 197.9296875 329.629882812 204.299804688 313.219726562 211.591796875 304.4453125 c 0
 234.403320312 276.994140625 263.234375 282.829101562 329.901367188 328.390625 c 0
 362.494140625 350.665039062 390.994140625 368.889648438 393.234375 368.889648438 c 0
 395.526367188 368.889648438 397.30859375 363.704101562 397.30859375 357.037109375 c 0
 397.30859375 342.912109375 346.197265625 293.435546875 301.752929688 264.538085938 c 0
 243.975585938 226.971679688 187.544921875 241.172851562 166.72265625 298.518554688 c 0
 161.612304688 312.592773438 153.245117188 324.4453125 148.419921875 324.4453125 c 0
 139.689453125 324.4453125 120.032226562 302.963867188 91.482421875 262.22265625 c 0
 76.427734375 240.741210938 62.66796875 238.087890625 49.2197265625 254.07421875 c 0
 37.361328125 268.170898438 58.7900390625 303.615234375 104.715820312 345.8671875 c 0
EndSplineSet
EndChar

StartChar: tildecomb
Encoding: 771 771 150
Width: 0
Flags: HW
LayerCount: 2
Fore
SplineSet
76.814453125 752.4765625 m 0
 124.22265625 796.091796875 169.2578125 793.252929688 169.887695312 746.609375 c 0
 170.028320312 736.239257812 176.3984375 719.829101562 183.690429688 711.0546875 c 0
 206.501953125 683.603515625 235.333007812 689.438476562 302 735 c 0
 334.592773438 757.274414062 363.092773438 775.499023438 365.333007812 775.499023438 c 0
 367.625 775.499023438 369.407226562 770.313476562 369.407226562 763.646484375 c 0
 369.407226562 749.521484375 318.295898438 700.044921875 273.8515625 671.147460938 c 0
 216.07421875 633.581054688 159.643554688 647.782226562 138.821289062 705.127929688 c 0
 133.7109375 719.202148438 125.34375 731.0546875 120.518554688 731.0546875 c 0
 111.788085938 731.0546875 92.130859375 709.573242188 63.5810546875 668.83203125 c 0
 48.5263671875 647.350585938 34.7666015625 644.697265625 21.318359375 660.68359375 c 0
 9.4599609375 674.780273438 30.888671875 710.224609375 76.814453125 752.4765625 c 0
EndSplineSet
EndChar

StartChar: degree
Encoding: 176 176 151
Width: 287
Flags: HW
LayerCount: 2
Back
Fore
SplineSet
197.484375 784.04296875 m 0
 192.421875 797.526367188 160.555664062 795.176757812 142.64453125 780 c 0
 121.266601562 761.88671875 88.8212890625 717.369140625 81.615234375 696.265625 c 0
 76.8564453125 682.32421875 77.5322265625 674.61328125 84.8984375 658.813476562 c 0
 98.359375 629.944335938 121.844726562 628.448242188 155.35546875 654.326171875 c 0
 195.80078125 685.557617188 208.3125 708.516601562 204.36328125 744.25 c 0
 202.487304688 761.220703125 199.4453125 778.821289062 197.484375 784.04296875 c 0
131.666992188 813.66015625 m 0
 166.55078125 837.494140625 198.328125 829.102539062 226.092773438 788.724609375 c 0
 256.09765625 745.086914062 243.755859375 689.89453125 193.489257812 642.935546875 c 0
 161.1328125 612.708984375 137.583984375 600.294921875 112.600585938 600.294921875 c 0
 77.529296875 600.294921875 45 637.747070312 45 678.125 c 0
 45 703.288085938 80.158203125 777.5234375 98.1552734375 790.36328125 c 0
 105.370117188 795.509765625 120.688476562 806.16015625 131.666992188 813.66015625 c 0
EndSplineSet
EndChar

StartChar: AE
Encoding: 198 198 188
Width: 855
Flags: HW
HStem: 15.8711 55.9961<455.655 809.416> 269.718 51.8516<315.717 404.746> 309.792 41.9219<462.527 726.804>
VStem: 405.877 48.6309<69.0068 278.271> 409.184 58.7158<352.203 487.738>
LayerCount: 2
Fore
SplineSet
410.028320312 424.032226562 m 0
 409.236417479 486.858423973 409.236417479 486.858423973 406.887695312 487.754882812 c 0
 396.050890768 491.894537236 368.809692316 419.813953935 322.290039062 352.19921875 c 0
 284.579101562 297.383789062 289.807617188 310.17578125 315.19921875 317.016601562 c 0
 324.547851562 319.53515625 347.65625 321.569335938 366.916015625 321.569335938 c 0
 393.58203125 321.569335938 403.000976562 324.603515625 407.16015625 334.532226562 c 0
 410.16015625 341.696289062 405.241210938 353.680664062 408.586914062 400.34765625 c 0
 409.184570312 408.68359375 409.665039062 416.606445312 410.028320312 424.032226562 c 0
538.657226562 604.713867188 m 0
 501.657226562 601.713867188 468.657226562 612.713867188 467.899414062 551.446289062 c 0
 466.890625 469.861328125 457.115234375 350.510742188 466.284179688 350.510742188 c 0
 474.05078125 350.510742188 500.270507812 354.462890625 516.657226562 351.713867188 c 0
 538.651367188 348.024414062 594.12109375 354.383789062 681.02734375 351.34765625 c 0
 708.713867188 350.380859375 718.750976562 346.537109375 727.201171875 333.670898438 c 0
 733.370117188 324.275390625 735.010742188 315.216796875 731.02734375 312.533203125 c 0
 720.515318136 305.453784958 532.960062669 309.736853655 530.959960938 309.791992188 c 2
 461.284179688 304.510742188 l 1
 455.631835938 244.65625 l 2
 451.050707373 196.159782126 450.065249762 150.704096454 452.447265625 106.888671875 c 2
 454.5078125 69.0068359375 l 1
 499.327148438 71.8671875 l 2
 519.861328125 73.1787109375 588.661132812 65.6484375 652.54296875 68.279296875 c 0
 785.896484375 73.7763671875 822.626953125 68.9501953125 817.069335938 46.6689453125 c 0
 810.982945339 22.269539383 721.248941462 31.0374563806 676.626953125 22.26171875 c 0
 667.485351562 20.462890625 631.203125 17.587890625 596.000976562 15.87109375 c 0
 560.799804688 14.154296875 541.03515625 5.4990234375 492.62109375 1.0419921875 c 0
 415.158203125 -6.0888671875 403.58984375 -48.416015625 405.876953125 57.4697265625 c 0
 404.966796875 85.298828125 404.877929688 120.919921875 402.901367188 156 c 0
 399.202148438 221.65625 429.901367188 296 347.752929688 277.7734375 c 0
 323.641601562 272.423828125 293.423828125 269.717773438 280.75390625 269.717773438 c 0
 259.4921875 269.717773438 226.065429688 186.717773438 153.383789062 94.125 c 0
 82.447265625 3.7548828125 72.8193359375 -5.875 53.40625 -5.875 c 0
 18.078125 -5.875 23.51171875 11.90234375 76.947265625 71.162109375 c 0
 148.110351562 150.080078125 218.47265625 266.2734375 277.919921875 360.34765625 c 0
 367.32421875 501.829101562 369.176757812 490.462890625 406.598632812 573.678710938 c 0
 407.943359375 576.66796875 409.309570312 579.643554688 410.686523438 582.58203125 c 0
 412.953125 615.528320312 417.65625 639.704101562 426.657226562 640.713867188 c 0
 430.009437193 641.089801645 705.265863002 669.893578931 763.952148438 636.405273438 c 0
 799.461914062 616.142578125 804.310546875 610.71875 791.270507812 602.072265625 c 0
 788.357421875 600.140625 767.569335938 608.581054688 743.962890625 610.498046875 c 0
 657.365234375 617.529296875 642.249023438 613.11328125 538.657226562 604.713867188 c 0
EndSplineSet
EndChar

StartChar: uni0308
Encoding: 776 776 190
Width: 0
Flags: HW
LayerCount: 2
Fore
SplineSet
72.392578125 723.50390625 m 0
 85.0224609375 749.430664062 92.87109375 753.4296875 114.576171875 745 c 0
 145.445292863 733.012369988 114.359728236 599.734149043 58.2802734375 650.572265625 c 0
 44.2060546875 663.331054688 39.888671875 697.578125 52.3544921875 697.578125 c 0
 56.375 697.578125 65.53515625 709.430664062 72.392578125 723.50390625 c 0
288.12890625 737.037109375 m 0
 293.541992188 751.337890625 328.524414062 753.424804688 341.576171875 740 c 0
 354.293945312 726.918945312 351.87109375 687.5703125 337.797851562 673.49609375 c 0
 323.723632812 659.421875 304.239257812 658.165039062 291.87109375 670.533203125 c 0
 282.552734375 679.8515625 280.82421875 717.739257812 288.12890625 737.037109375 c 0
EndSplineSet
EndChar

StartChar: uni0307
Encoding: 775 775 191
Width: 0
Flags: HW
LayerCount: 2
Fore
SplineSet
55.5537109375 657.962890625 m 0
 43.587890625 679.227539062 49.75390625 717.249023438 60.111328125 726.110351562 c 0
 73.40234375 737.481445312 90.9013671875 736.072265625 106.038085938 723.147460938 c 0
 122.520507812 709.073242188 125.5546875 667.900390625 109.000976562 655 c 0
 94.443359375 643.654296875 62.94921875 644.821289062 55.5537109375 657.962890625 c 0
EndSplineSet
EndChar

StartChar: uni0328
Encoding: 808 808 219
Width: 0
Flags: HW
HStem: -149.677 38.7676<102.815 135.287> -28.8086 37.3516<84.2786 127.656>
VStem: 45 38.5625<-92.6691 -28.6945>
LayerCount: 2
Fore
SplineSet
106.735351562 8.54296875 m 0
 116.045767898 8.54296875 127.665039062 0.208289623035 127.665039062 -10.0205078125 c 0
 127.665039062 -20.40625 115.279296875 -28.80859375 100.701171875 -28.80859375 c 0
 97.8662109375 -28.80859375 96.951171875 -28.4677734375 95.5810546875 -28.4677734375 c 0
 88.826171875 -28.4677734375 83.5625 -46.619140625 83.5625 -52.23046875 c 0
 83.5625 -69.783203125 110.005859375 -110.909179688 129.01953125 -110.909179688 c 0
 131.370117188 -110.909179688 133.359375 -110.337890625 135.381835938 -108.916015625 c 0
 154.096679688 -73.177734375 165.31640625 -71.9970703125 170.2734375 -71.9970703125 c 0
 179.438476562 -71.9970703125 183.024414062 -79.7421875 183.024414062 -86.7431640625 c 0
 183.024414062 -98.1006037639 181.322202673 -101.264274123 163.80859375 -133.814453125 c 0
 156.48828125 -147.413085938 153.120117188 -153.670898438 144.564453125 -153.670898438 c 0
 137.571289062 -153.670898438 137.728515625 -150.221679688 126.299804688 -149.676757812 c 0
 83.259765625 -147.626953125 45 -95.505859375 45 -49.2509765625 c 0
 45 -5.58365666632 67.3428168775 -0.13471236782 94.591796875 6.5107421875 c 0
 98.6240234375 7.49609375 102.188476562 8.54296875 106.735351562 8.54296875 c 0
EndSplineSet
EndChar

StartChar: p
Encoding: 112 112 222
Width: 429
Flags: HW
HStem: -294.148 21G<47.8105 70.6211>
VStem: 35.0654 51.4814<-294.094 -63.4219> 44.6953 51.3047<-282.877 47.7078> 52.4727 43.5273<-41.0981 47.7078 199.613 326.644>
LayerCount: 2
Back
Fore
SplineSet
333.841796875 270 m 0
 326.650390625 300.703125 275.2890625 303.028320312 225.505859375 273.778320312 c 0
 204.890625 261.666015625 210.309570312 267.334960938 179.34765625 230.778320312 c 0
 140.477206259 184.884372338 143.626926737 134.192468776 146 96 c 0
 146.782226562 83.4072265625 181.566194868 33.8318686221 257.841796875 28 c 0
 284 26 317.658203125 79.1845703125 329.139648438 102.147460938 c 0
 346.055664062 135.981445312 346.114304219 217.603526495 333.841796875 270 c 0
258.841796875 322 m 0
 343.979422137 334.889436817 355.358933905 320.889963424 370 296 c 0
 388.9296875 263.819335938 395.930977245 234.962984726 387 172 c 0
 376.228515625 96.0615234375 378.381875414 28.7918737523 274 -6 c 0
 257.701171875 -11.4326171875 190 -1 142 28 c 0
 113.610351562 45.15234375 96 82.389654019 96 36 c 2
 96 -65 l 2
 96 -100.68359375 86.546875 -226.741210938 86.546875 -281.555664062 c 0
 86.546875 -291.270507812 80.62109375 -294.1484375 60.62109375 -294.1484375 c 0
 35 -294.1484375 34.69921875 -293.778320312 35.0654296875 -262.666992188 c 0
 35.7265225835 -206.315179459 54.5056845631 -54.1246877643 52.47265625 166.962890625 c 0
 51.14453125 311.407226562 52.216796875 328.053710938 62.8427734375 327.875976562 c 0
 93.7109375 327.361328125 95.435546875 319.92578125 95.435546875 187.333007812 c 0
 95.435546875 116.962890625 101.30020477 145.276382196 102 150 c 0
 106 177 108.382074192 182.590510344 122 207 c 0
 175 302 206 314 258.841796875 322 c 0
EndSplineSet
EndChar

StartChar: q
Encoding: 113 113 223
Width: 325
Flags: HW
VStem: 215.704 50<113.899 228.314> 228.672 42.0322<-272.241 73.0884 272.298 317.569>
LayerCount: 2
Back
Fore
SplineSet
111.815429688 298.194335938 m 0
 141.983398438 319 173.720703125 313.111328125 199.092773438 282 c 0
 220.840820312 255.333007812 221.453125 255.11328125 221.750976562 273.8515625 c 0
 222.374023438 313.111328125 239.296875 334.244140625 270.704101562 304 c 0
 290.084960938 285.336914062 277.857421875 282.221679688 273.704101562 240 c 0
 271.2265625 214.814453125 265.521484375 170.801757812 265.704101562 154 c 0
 267.900390625 -48.45703125 266.713867188 121.416015625 270.704101562 -68 c 0
 274.07421875 -227.98828125 267.256835938 -251.372070312 276.704101562 -266 c 0
 285.793945312 -280.07421875 286.4140625 -285.938476562 279.682617188 -294.1484375 c 0
 268.749023438 -307.481445312 247.66015625 -308.22265625 237.504882812 -295.629882812 c 0
 217.8686994 -271.280441342 243.112850558 73.111328125 213.296875 73.111328125 c 0
 209.217773438 73.111328125 182.926757812 57.666015625 154.778320312 38.7333984375 c 0
 96.259765625 -0.6279296875 75.3984375 -0.7158203125 51.5126953125 38.296875 c 0
 40.80859375 55.7802734375 37 75.7041015625 37 114.22265625 c 0
 37 159.997070312 40.5673828125 173.8515625 65.8896484375 226.444335938 c 0
 81.9384765625 259.778320312 102.350585938 291.666992188 111.815429688 298.194335938 c 0
179.22265625 105.874023438 m 0
 216.259765625 127.33203125 211.704101562 118 215.704101562 136 c 0
 221.704101562 165 213.704101562 183 202.704101562 210 c 0
 192.704101562 233 185.704101562 247 164.704101562 260 c 0
 151.704101562 268 137.704101562 268 126.704101562 258 c 0
 100.704101562 233 88.7041015625 213 80.7041015625 178 c 0
 70.7041015625 134 70.244140625 80.4990234375 83.619140625 62.7412109375 c 0
 94.611328125 48.1474609375 95.1484375 48.2080078125 119.592773438 66.8154296875 c 0
 133.3203125 77.263671875 159.963867188 94.7158203125 179.22265625 105.874023438 c 0
EndSplineSet
EndChar

StartChar: r
Encoding: 114 114 224
Width: 394
Flags: HW
HStem: -1.36426 323.364
VStem: 38.3057 61.3105<162.062 314.555> 71.2363 46.0811<-0.749902 130.415>
LayerCount: 2
Back
Fore
SplineSet
99.6162109375 162 m 1
 107.944335938 195.340820312 104.107421875 196.340820312 118 228.231445312 c 0
 164.221271225 334.338079508 210.935145659 324.820025167 278.662109375 311.020507812 c 0
 307.224609375 305.17578125 321.166015625 279.745117188 343.372070312 260.4609375 c 0
 367.81333192 239.473360438 349.624790741 212.538051949 327.495117188 211.790039062 c 0
 312.37109375 211.278320312 304.956054688 234.6484375 291.616210938 242 c 0
 276.384765625 250.543945312 268.60546875 258.165039062 251.596679688 264.0546875 c 0
 232.703125 270.596679688 201.013671875 256.28515625 180.674804688 242.119140625 c 0
 166.063476562 231.943359375 165.31640625 218.5078125 159.616210938 202 c 0
 145.5234375 161.190429688 141.594726562 134.619140625 127.600585938 90.9130859375 c 0
 118.868164062 63.6416015625 128.935546875 43.55078125 117.317382812 17.5703125 c 0
 110.9609375 4.130859375 99.2607421875 -2.748046875 85.2939453125 -1.3642578125 c 0
 71.3623046875 0.0166015625 73.0185546875 9.9404296875 71.236328125 29.1708984375 c 0
 65.4091796875 92.0517578125 49.1787109375 127.588867188 47.978515625 189.260742188 c 0
 47.2265625 227.853515625 32.6357421875 250.982421875 38.3056640625 289.452148438 c 0
 41.3896484375 310.376953125 46.5654296875 317.547851562 66.6162109375 322 c 0
 94.8486328125 328.268554688 98.6318359375 177.547851562 99.6162109375 162 c 1
EndSplineSet
EndChar

StartChar: s
Encoding: 115 115 225
Width: 328
Flags: HW
HStem: 11 47.5186<37.0163 209.21> 274.562 40.1943<114.283 212.97>
LayerCount: 2
Back
Fore
SplineSet
159.598632812 314.755859375 m 0
 211.452148438 313.91796875 244.01171875 302.1953125 281.39453125 277.07421875 c 0
 297.0703125 266.1875 285.01171875 251.115234375 271.747070312 238.5546875 c 0
 263.305664062 230.180664062 247.62890625 228.505859375 234.364257812 233.530273438 c 0
 217.482421875 239.391601562 221.099609375 253.626953125 205.423828125 262 c 0
 189.74609375 270.374023438 175.2265625 280.57421875 157.1875 274.561523438 c 0
 127.041015625 264.512695312 126.225585938 272.765625 112.423828125 252 c 0
 97.953125 230.228515625 91.5361328125 211.348632812 107.74609375 190.823242188 c 0
 128.24609375 164.865234375 166.833984375 167.377929688 201.805664062 150.629882812 c 0
 231.953125 136.39453125 264.205078125 133.815429688 275.364257812 109.598632812 c 0
 285.01171875 88.6640625 251.831054688 66.595703125 233.158203125 49.3076171875 c 0
 207.834960938 25.861328125 187.418945312 26.626953125 154.775390625 8.2763671875 c 0
 129.451171875 -5.9599609375 95.916015625 5 67.916015625 11 c 0
 49.9111328125 14.8583984375 38.916015625 19 36.916015625 29 c 0
 34.142578125 42.8671875 31.5048828125 49.0068359375 51.0703125 58.5185546875 c 0
 69.7613712192 67.6052428549 110.135572297 19.3144881394 151.158203125 44.283203125 c 0
 158.768554688 48.9150390625 176.220703125 57.8857421875 194.5703125 70.2421875 c 0
 210.8046875 81.1748046875 239.399414062 93.0029296875 190.953125 117.134765625 c 0
 161.811039499 131.649504234 87.1477750788 132.731059674 71.5693359375 159.00390625 c 0
 53.48046875 190.823242188 49.2890625 212.534179688 55.8935546875 246.927734375 c 0
 60.7158203125 272.049804688 57.0986328125 263.67578125 81.216796875 281.260742188 c 0
 106.540039062 299.682617188 123.422851562 315.592773438 159.598632812 314.755859375 c 0
EndSplineSet
EndChar

StartChar: t
Encoding: 116 116 226
Width: 397
Flags: HW
HStem: 286 46<32.1097 176.432 221.181 345.127>
VStem: 175.181 45<43.3546 284 338 543.577>
LayerCount: 2
Back
Fore
SplineSet
178.180664062 280 m 0
 178.180664062 301.094726562 77.9580078125 278.393554688 58.1806640625 286 c 0
 45.1806640625 291 30.1806640625 298 32.1806640625 312 c 0
 34.1806640625 327 48.9716796875 330.888671875 64.1806640625 334 c 0
 85.1484375 338.2890625 150.180664062 333 175.180664062 332 c 1
 179.180664062 366 183.985351562 559.875976562 196.798828125 576.295898438 c 0
 200.521484375 581.06640625 210.7734375 585.185546875 218.921875 585.185546875 c 0
 232.66796875 585.185546875 233.650390625 581.8515625 229.291992188 550 c 0
 226.627929688 530.536132812 222.84375 386.1484375 220.180664062 338 c 1
 260.180664062 336 284.180664062 340 323.180664062 332 c 0
 354.556757253 326.295255783 349.436799115 293.680494097 328.180664062 289 c 0
 286.438476562 279.806640625 260.180664062 286 221.180664062 284 c 1
 222.541992188 275.34375 217.883789062 149.616210938 225.180664062 66 c 0
 226.595703125 49.783203125 248.180664062 35 265.180664062 38 c 0
 293.034179688 42.9150390625 306.180664062 77 332.180664062 80 c 0
 349.185546875 81.9619140625 361.180664062 75 360.180664062 58 c 0
 358.649414062 31.9677734375 337.180664062 23 318.180664062 6 c 0
 304.180664062 -6 294.180664062 -18 275.180664062 -16 c 0
 253.2109375 -13.6875 216.180664062 -20 196.180664062 10 c 0
 168.180664062 53 176.180664062 89 172.180664062 140 c 0
 170.141601562 165.997070312 179.180664062 253 178.180664062 280 c 0
EndSplineSet
EndChar

StartChar: u
Encoding: 117 117 227
Width: 400
Flags: HW
HStem: -0.852539 51.8525<111.663 172.745>
VStem: 45.2412 42.8184<96.0445 320.75> 302.738 41.9697<1.33945 195.561 227.708 317.958>
LayerCount: 2
Back
Fore
SplineSet
304.72265625 195.555664062 m 0
 296.495788512 195.555664062 218.30292502 -0.8525390625 134.522460938 -0.8525390625 c 0
 115.45703125 -0.8525390625 86.087890625 27.2958984375 69.6005859375 61.3701171875 c 0
 40.0751953125 122.388671875 29.5693359375 223.000976562 45.2412109375 304.666992188 c 0
 49.166015625 325.116210938 65.0673828125 328.353515625 81.8134765625 309.640625 c 0
 90.4833984375 299.952148438 92.115234375 305.185546875 88.0595703125 278.518554688 c 0
 71.05078125 166.666992188 99.48046875 51 139.708007812 51 c 0
 171.766601562 51 279.24609375 186.1484375 302.708007812 278 c 0
 310.465820312 308.370117188 317.166992188 316.459960938 328.48046875 320.2578125 c 0
 351.110351562 327.853515625 357.375976562 317.423828125 347.85546875 177.037109375 c 0
 342.079101562 91.8662109375 340.528320312 81.921875 344.708007812 54 c 0
 351.69140625 7.3330078125 346.045898438 -7.8818359375 324.833984375 0.44140625 c 0
 302.381835938 9.251953125 297.458007812 42.1484375 302.73828125 148.07421875 c 0
 305.5078125 203.629882812 306.953125 195.555664062 304.72265625 195.555664062 c 0
EndSplineSet
EndChar

StartChar: v
Encoding: 118 118 228
Width: 352
Flags: HW
HStem: 0 322
VStem: 36 44.4443<206.476 320.528> 101.852 63.9941<7.19533 103.278>
LayerCount: 2
Back
Fore
SplineSet
101.8515625 55.3330078125 m 0
 101.8515625 93.247763273 36 242.300928869 36 301.259765625 c 0
 36 316.07421875 39.8095703125 322 49.3330078125 322 c 0
 66.697265625 322 80.4443359375 307.92578125 80.4443359375 290.1484375 c 0
 80.4443359375 264.22265625 124.873046875 131.357421875 135.11328125 117.555664062 c 0
 145.137695312 104.043945312 145.866210938 104.221679688 153.333007812 122 c 0
 157.666015625 132.317382812 213.578125 232.098632812 266.301757812 292.333007812 c 0
 279.254882812 307.130859375 313.025390625 334.017578125 316.333007812 316 c 0
 317.102539062 311.809570312 301.627929688 272.592773438 276.227539062 240.741210938 c 0
 250.826171875 208.888671875 223.98828125 172.095703125 217.333007812 160 c 0
 161.088867188 57.77734375 177.458007812 76.0107421875 165.845703125 45.703125 c 0
 158.466796875 26.4443359375 142.3515625 2.30078125 136.333007812 0 c 0
 120.5390625 -6.0390625 101.8515625 29.4072265625 101.8515625 55.3330078125 c 0
EndSplineSet
EndChar

StartChar: w
Encoding: 119 119 229
Width: 461
Flags: HW
HStem: -0.446289 322.153
VStem: 217.884 32.7705<64.2437 227.938>
LayerCount: 2
Back
Fore
SplineSet
40.8544921875 315.60546875 m 0
 53.5263671875 321.495117188 54.6171875 321.036132812 68.09765625 304.147460938 c 0
 90.8965978065 275.580409046 96.0603219343 154.864638904 116.190429688 80.666015625 c 0
 120.852258425 63.4796483723 142.914316003 97.5335006821 143.162109375 103.888671875 c 0
 143.327148438 108.12109375 173.25390625 210.075195312 191.654296875 248 c 0
 209.51171875 284.805664062 220.515625 324.951171875 227.846679688 321.70703125 c 0
 240.03125 316.314453125 250.654296875 258.961914062 250.654296875 228 c 0
 250.654296875 199.8515625 261.182617188 56.4970703125 268.862304688 62.01171875 c 0
 284.119959758 72.9677219679 351.432094554 245.233954001 387.455078125 293.358398438 c 0
 403.654296875 315 426.286132812 329.447265625 425.85546875 308.014648438 c 0
 425.654296875 298 408.809570312 287.399414062 397.654296875 267 c 0
 362.654296875 203 335.032226562 127.545898438 309.654296875 68 c 0
 283.62890625 6.935546875 271.333007812 -1.37109375 255.0625 -0.4462890625 c 0
 241.280273438 0.3369140625 223.002929688 56.037109375 217.883789062 96.1484375 c 0
 215.548828125 114.444335938 217.309570312 226.025390625 214.654296875 227.9375 c 0
 208.857421875 232.112304688 157.830078125 73.62890625 152.516601562 53.92578125 c 0
 145.874023438 29.2958984375 125.024414062 0 112.654296875 0 c 0
 106.140625 0 98.5302734375 8.8876953125 94.6220703125 17.3330078125 c 0
 84.1376953125 39.9873046875 59.1259765625 178.184570312 54.8212890625 223.221679688 c 0
 52.736328125 245.036132812 47.177734375 268.598632812 42.369140625 276 c 0
 31.8544921875 292.184570312 31.1328125 311.087890625 40.8544921875 315.60546875 c 0
EndSplineSet
EndChar

StartChar: x
Encoding: 120 120 230
Width: 392
Flags: HW
VStem: 62.2021 71.2793<251.793 307.987>
LayerCount: 2
Back
Fore
SplineSet
292.22265625 302.165039062 m 0
 325.556640625 323.360351562 356.666992188 327.999023438 356.666992188 314 c 0
 356.666992188 308.6328125 336.666992188 288.140625 311.482421875 267.703125 c 0
 286.522460938 247.44921875 312.296875 269.383789062 269.333984375 227.763671875 c 0
 181.185546875 142.370117188 190.517578125 130.591796875 239.422851562 66.1484375 c 0
 263.594726562 34.296875 273.451171875 18.2578125 266.666992188 10 c 0
 261.799804688 4.07421875 254.021484375 -0.3701171875 248.51953125 -0.3701171875 c 0
 239.458984375 -0.3701171875 225.629882812 14.296875 176.444335938 75.7783203125 c 2
 158.666992188 98 l 1
 125.704101562 65.7783203125 l 2
 107.92578125 48.400390625 92.8642578125 31.5859375 90.6669921875 20 c 0
 88.1376953125 6.6669921875 81.81640625 -1.4814453125 74 -1.4814453125 c 0
 56.962890625 -1.4814453125 34 19.35546875 34 34.8154296875 c 0
 34 41.7568359375 55.931640625 65.408203125 85.3330078125 97.259765625 c 2
 138.666992188 155.037109375 l 1
 109.77734375 211.704101562 l 2
 93.916015625 242.815429688 95.6240234375 238.598632812 82 252.22265625 c 0
 61.3212890625 272.901367188 60.0673828125 270.930664062 62.2021484375 293.125976562 c 0
 65.208984375 324.397460938 85.15625 329.583984375 106.666992188 312 c 0
 115.508789062 304.772460938 111.436523438 312.444335938 133.481445312 266.518554688 c 0
 155.526367188 220.592773438 175.310546875 183.185546875 177.555664062 183.185546875 c 0
 179.796875 183.185546875 210.444335938 230.779296875 257.111328125 274.592773438 c 0
 303.778320312 318.40625 275.046875 291.243164062 292.22265625 302.165039062 c 0
EndSplineSet
EndChar

StartChar: y
Encoding: 121 121 231
Width: 352
Flags: HW
HStem: 302 20G<44.2305 74.1885>
LayerCount: 2
Back
Fore
SplineSet
58.73046875 322 m 0
 89.646484375 322 83.6025390625 276.704101562 87.1357421875 233 c 0
 92.2255859375 170.037109375 129.807617188 51.111328125 144.209960938 46.388671875 c 0
 155.419921875 42.712890625 214.6328125 181.629882812 235.06640625 239.407226562 c 0
 253.666015625 292 277.596679688 322 300.135742188 322 c 0
 324.546875 322 319.296875 299.407226562 271.135742188 192 c 0
 246.556640625 137.184570312 190.135742188 -10.318359375 190.135742188 -14 c 0
 190.135742188 -25.8651758768 112.105878546 -186.576285023 93.1357421875 -234 c 0
 69.1357421875 -294 60.337890625 -306 45.1357421875 -306 c 0
 27.9453125 -306 31.1357421875 -286 51.412109375 -240.666992188 c 0
 59.9160423773 -221.654688614 109.002655642 -100.595698526 109.595703125 -99.185546875 c 0
 142.305664062 -21.408203125 144.119140625 -6.3125 121.987304688 3.962890625 c 0
 113.098632812 8.08984375 104.206054688 15.9462890625 101.237304688 22.2958984375 c 0
 71.5177391911 85.8642350913 8.2833429426 322 58.73046875 322 c 0
EndSplineSet
EndChar

StartChar: z
Encoding: 122 122 232
Width: 414
Flags: HW
HStem: 16 37.4365<119.068 374.017> 270.97 39.792<60.7288 275.659>
LayerCount: 2
Back
Fore
SplineSet
147.088867188 316.641601562 m 0
 219.840002763 332.694761832 347.281365306 305.038565038 353.116210938 292.063476562 c 0
 360.701171875 275.197265625 278.71484375 205.3671875 178.064453125 121.486328125 c 0
 110.733398438 65.373046875 97.8232421875 50.294921875 118.774414062 52.2392578125 c 0
 124.868164062 52.8046875 142.518554688 52.0263671875 158.225585938 50.5009765625 c 0
 200.369027179 46.40930398 361.226057931 68.7472586926 374.86328125 44.880859375 c 0
 382.206054688 32.03125 352.915039062 12.32421875 320.134765625 16 c 0
 301.508789062 18.0888671875 282.952148438 10.7783203125 247.116210938 6.0634765625 c 0
 166.681640625 -4.51953125 79.994140625 0.2783203125 48.021484375 18.033203125 c 0
 28.017578125 29.1416015625 31.7265625 57.0625 54.583984375 67.431640625 c 0
 62.357421875 70.9580078125 82.3818359375 87.3095703125 99.52734375 104.1328125 c 0
 166.762670642 170.087577705 275.773051496 263.834354269 276.404296875 266.1484375 c 0
 279.116210938 276.094726562 204.333007812 275.979492188 155.116210938 270.063476562 c 0
 128.125976562 266.819335938 94.603515625 267.228515625 80.88671875 270.969726562 c 0
 59.4482421875 276.81640625 56.5419921875 280.240234375 60.5517578125 294.94140625 c 0
 64.2939453125 308.663085938 70.1474609375 311.826171875 89.8193359375 310.76171875 c 0
 103.344726562 310.028320312 129.115234375 312.674804688 147.088867188 316.641601562 c 0
EndSplineSet
EndChar

StartChar: braceleft
Encoding: 123 123 233
Width: 397
Flags: HW
VStem: 208.95 42.2754<143.144 303.033>
LayerCount: 2
Back
Fore
SplineSet
192.654296875 713.388671875 m 0
 218.293386725 738.588471286 341.873411134 701.174830522 357.66796875 682.073242188 c 0
 365.764648438 672.283203125 364.505859375 667.831054688 350.431640625 656.47265625 c 0
 328.044921875 638.40625 320.061523438 638.57421875 278.580078125 657.982421875 c 0
 244.505859375 673.92578125 244.505859375 673.92578125 230.061523438 659.110351562 c 0
 216.14453125 644.836914062 215.94140625 640.221679688 224.505859375 532.814453125 c 0
 232.65625 430.591796875 232.287109375 418.41015625 220.061523438 386.147460938 c 2
 206.727539062 350.962890625 l 1
 231.171875 328.740234375 l 2
 255.24609375 306.854492188 255.549804688 305.77734375 251.225585938 257.62890625 c 0
 246.162109375 201.254882812 236.421875 156.888671875 211.709960938 77.62890625 c 0
 184.688476562 -9.037109375 185.9921875 -10.490234375 251.171875 33.654296875 c 0
 311.913085938 74.79296875 324.62890625 52.0458984375 334.119140625 42.5556640625 c 0
 338.16015625 38.5146484375 339.278320312 31.4443359375 336.580078125 27 c 0
 332.725585938 20.6513671875 294.875976562 14.369140625 205.24609375 -39.408203125 c 0
 191.171875 -47.8525390625 183.706054688 -48.6044921875 174.135742188 -42.5439453125 c 0
 125.661290474 -11.8431788755 208.950195312 165.427068348 208.950195312 252.444335938 c 0
 208.950195312 289.481445312 207.005859375 294.837890625 190.801757812 302.444335938 c 0
 176.204101562 309.295898438 165.987304688 307.83984375 138.580078125 295 c 0
 97.0986328125 275.567382812 85.5087890625 275.444335938 54.8759765625 294.116210938 c 0
 27.46875 310.821289062 24.609375 330.557617188 46.7275390625 350.365234375 c 0
 58.9111328125 361.276367188 73.7646484375 364.295898438 115.24609375 364.295898438 c 2
 168.208984375 364.295898438 l 1
 181.026367188 390.221679688 l 2
 194.413085938 417.298828125 193.548828125 476.888671875 178.3515625 574.666015625 c 0
 169.6015625 630.962890625 176.458984375 697.473632812 192.654296875 713.388671875 c 0
EndSplineSet
EndChar

StartChar: bar
Encoding: 124 124 234
Width: 151
Flags: HW
LayerCount: 2
Back
Fore
SplineSet
41.583984375 681.814453125 m 0
 46.3857421875 735.147460938 46.7216796875 735.858398438 66.08203125 733.666015625 c 2
 85.7119140625 731.444335938 l 1
 85.7119140625 575.888671875 l 2
 85.7119140625 284.565210342 130.323615499 -72.2415299085 103.6328125 -89 c 0
 97.16796875 -93.0595703125 86.2255859375 -94.421875 79.55859375 -91.998046875 c 0
 68.9658203125 -88.1455078125 67.3369140625 -72.73828125 67.3369140625 23.5576171875 c 0
 67.3369140625 85.0390625 64.0478515625 143.271484375 59.97265625 153.928710938 c 0
 50.8896484375 177.684570312 34.9150390625 607.740234375 41.583984375 681.814453125 c 0
EndSplineSet
EndChar

StartChar: braceright
Encoding: 125 125 235
Width: 364
Flags: HW
HStem: 322 67.0273<223.894 302.549>
VStem: 32.582 299.782
LayerCount: 2
Back
Fore
SplineSet
103.771484375 659.193359375 m 0
 52.1114077673 690.986333009 147.393944853 763.974948783 203.771484375 724.357421875 c 0
 226.1328125 708.643554688 225.9765625 667 203.36328125 615.888671875 c 0
 168.050160734 536.072448539 179.151779483 450.679090554 195.697265625 417.92578125 c 0
 213.284179688 383.111328125 214.6015625 382.216796875 238.290039062 389.02734375 c 0
 284.215820312 402.231445312 332.364257812 395.98046875 332.364257812 376.814453125 c 0
 332.364257812 361.076171875 279.03125 322 257.549804688 322 c 0
 246.438476562 322 233.502929688 317.061523438 228.444335938 310.888671875 c 0
 215.161132812 294.678710938 195.188476562 165.22265625 205.733398438 133.370117188 c 0
 213.581054688 109.666992188 212.89453125 104.0703125 199.549804688 83 c 0
 159.672851562 20.037109375 127.959960938 -25.4072265625 70.302734375 -25.4072265625 c 0
 39.9326171875 -25.4072265625 37.3603515625 -23.841796875 32.58203125 -2.4443359375 c 0
 26.1318359375 26.4443359375 40.025390625 38.1533203125 62.8955078125 23.1015625 c 0
 91.5458984375 4.24609375 67.4912109375 4.345703125 121.969726562 56.9462890625 c 2
 121.969726562 56.9462890625 153.549804688 75 161.228515625 94.8515625 c 0
 170.549804688 120 161.228515625 163.741210938 161.228515625 163.741210938 c 2
 161.228515625 200.099609375 180.823242188 299.849609375 185.697265625 317.92578125 c 0
 193.288085938 346.07421875 192.86328125 352.8359375 182.787109375 364.221679688 c 0
 145.533203125 406.318359375 130.55859375 511.444335938 146.17578125 561.07421875 c 0
 150.13671875 573.661132812 159.927734375 606.629882812 167.845703125 634.037109375 c 2
 182.290039062 684.037109375 l 1
 166.734375 684.037109375 l 2
 139.346974159 684.037109375 125.620498513 645.748152538 103.771484375 659.193359375 c 0
EndSplineSet
EndChar

StartChar: uni0327
Encoding: 807 807 293
Width: 0
Flags: HW
HStem: -211.543 39.2021<80.1888 147.914> -85.1982 39.5283<110.561 137.911>
VStem: 148.56 42.4844<-172.067 -91.8037>
LayerCount: 2
Fore
SplineSet
140.298828125 -211.54296875 m 0
 132.262769374 -211.54296875 45 -187.897856894 45 -164.446289062 c 0
 45 -162.413085938 45.7509765625 -151.51171875 61.857421875 -151.51171875 c 2
 62.2255859375 -151.51171875 l 2
 83.9951171875 -151.51171875 116.90625 -168.189453125 131.970703125 -172.340820312 c 0
 141.229492188 -172.029296875 148.559570312 -164.4296875 148.559570312 -144.671875 c 0
 148.559570312 -106.442430643 127.049523713 -85.1982421875 111.091796875 -85.1982421875 c 0
 105.311523438 -85.1982421875 99.40234375 -97.83203125 82.2373046875 -97.83203125 c 0
 81.9296875 -97.83203125 81.62109375 -97.8330078125 81.3115234375 -97.8330078125 c 0
 65.41796875 -97.8330078125 64.154296875 -86.1103515625 64.154296875 -82.3798828125 c 0
 64.0439453125 -48 58.0439453125 -25 74.0439453125 5 c 0
 80.0439453125 17 100.043945312 13 109.043945312 3 c 0
 121.043945312 -12 97.0439453125 -46 116.356445312 -45.669921875 c 0
 147.305664062 -45.669921875 191.043945312 -87.166015625 191.043945312 -144 c 0
 191.043945312 -192.521693176 156.124093819 -211.54296875 140.298828125 -211.54296875 c 0
EndSplineSet
EndChar

StartChar: ae
Encoding: 230 230 303
Width: 598
Flags: HW
HStem: 140.055 35<294.564 434.796> 164.26 36.0898<139.337 247.09> 277.25 44<90.6561 243.5>
LayerCount: 2
Fore
SplineSet
288.986328125 259.575195312 m 1
 359.674202834 351.133473538 467.675094363 321.230269324 486.381835938 296.71875 c 0
 513.516601562 261.163085938 533.638671875 225.536132812 514 203 c 0
 504.962890625 192.629882812 499 188 486 176 c 0
 467.151367188 158.6015625 406.88671875 146.943359375 374.564453125 138.0546875 c 0
 329.568359375 125.680664062 318.564453125 140.0546875 292.564453125 140.0546875 c 1
 311.2421875 86.166015625 343.388671875 44.8837890625 385.047851562 35.71875 c 0
 404.18359375 31.5087890625 419.122070312 37.099609375 474.677734375 69.263671875 c 0
 534.677734375 104 562.826171875 111.30859375 562.826171875 92.1484375 c 0
 562.826171875 84.2890625 508.751953125 44.3271484375 458.381835938 14.9619140625 c 0
 421.638671875 -6.458984375 337.280273438 -17.587890625 287.677734375 50.111328125 c 0
 277.41015625 64.125 269.625 87.43359375 264.329101562 110.256835938 c 1
 220.708007812 57.966796875 148.126953125 -2.2197265625 126.376953125 -0.615234375 c 0
 69.25390625 3.59765625 29.9931640625 18.0537109375 42.55859375 99.0947265625 c 0
 47.3310546875 129.875 60.740234375 142.296875 98.8017578125 172.280273438 c 0
 115.637695312 185.54296875 161.58984375 198.7109375 172.96875 200.349609375 c 0
 203.724609375 204.778320312 233 193 256 188 c 1
 254.420898438 214.356445312 264.860351562 236.3046875 240.267578125 259.25 c 0
 215.69921875 282.171875 191.267578125 275.25 159.267578125 277.25 c 0
 139.267578125 278.25 127.807617188 272.387695312 109.657226562 266.552734375 c 0
 91.5078125 260.717773438 85.4580078125 246.129882812 66.09765625 244.184570312 c 0
 54.0302734375 242.973632812 35.84765625 249.047851562 37.0576171875 258.772460938 c 0
 39.3486328125 277.18359375 52.267578125 289.25 70.9375 296.700195312 c 0
 107.982656527 311.483168323 189.197074538 341.147430621 250.267578125 306.25 c 0
 280.154259633 289.172737816 280.154259633 289.172737816 288.986328125 259.575195312 c 1
180.950195312 77 m 0
 197.838867188 92.935546875 190.267578125 82.25 207.267578125 99.25 c 0
 218.778320312 110.760742188 211.267578125 106.25 233.267578125 133.25 c 0
 244.880859375 147.502929688 239 136 248 154 c 1
 234 160 223.2109375 164.259765625 208.856445312 164.259765625 c 0
 183.735351562 164.259765625 171.772460938 158.245117188 155.025390625 152.23046875 c 0
 123.614257812 140.94921875 89.5625 130.2890625 82.267578125 102.25 c 0
 65.14453125 36.4365234375 95.267578125 41.25 112.267578125 41.25 c 0
 127.720703125 41.25 151.831054688 49.5244140625 180.950195312 77 c 0
448 277 m 0
 398.591796875 299.4921875 341.029296875 289.741210938 314 229 c 0
 301.541015625 201.001953125 293.564453125 189.0546875 294.564453125 175.0546875 c 1
 315.564453125 174.0546875 329.564453125 169.0546875 354.564453125 171.0546875 c 0
 388.49609375 173.76953125 491.770507812 201.724609375 483 235 c 0
 480.704101562 243.7109375 458.370117188 272.279296875 448 277 c 0
EndSplineSet
EndChar

StartChar: uni0413
Encoding: 1043 1043 305
Width: 384
Flags: HW
HStem: 595.314 45.6143<63.6399 339.394>
VStem: 24.8613 36.5684<279.618 595.033>
LayerCount: 2
Fore
SplineSet
38.1943359375 6.57421875 m 0
 28.9716796875 12.3994140625 26.7060546875 45.4443359375 24.861328125 201 c 0
 23.640625 303.962890625 23.408203125 484.854492188 22.59375 539.795898438 c 0
 21.111328125 639.795898438 21.1123046875 639.795898438 38.51953125 642.388671875 c 0
 48.1494140625 643.823242188 62.8505859375 640.583007812 71.861328125 640.928710938 c 0
 125.861328125 643 294.404296875 642.698242188 330.861328125 640.451171875 c 0
 357.119140625 638.833007812 368.07421875 626.513671875 357.668945312 609.614257812 c 0
 335.436783035 573.506150659 76.0798080699 599.890335306 68.4541015625 595.314453125 c 0
 48.1267365727 583.116119165 79.9072458723 25.5645324387 67.51953125 10.62890625 c 0
 56.833984375 -2.2529296875 53.0087890625 -2.7822265625 38.1943359375 6.57421875 c 0
EndSplineSet
EndChar

StartChar: uni0304
Encoding: 772 772 307
Width: 0
Flags: HW
HStem: 700.416 43.1475<61.7087 314.004>
LayerCount: 2
Fore
SplineSet
68.3681640625 743.563476562 m 0
 77.359375 746.935546875 101.744140625 750.856445312 196.479492188 746.955078125 c 0
 292.516601562 743 332.006835938 736.490234375 307.516601562 712 c 0
 290.912109375 695.396484375 291.293945312 695.376953125 180.923828125 700.338867188 c 0
 127.590820312 702.736328125 129.79296875 703.903320312 111.331054688 700.416015625 c 0
 35.2107652474 686.035673834 45.4715199066 734.976117004 68.3681640625 743.563476562 c 0
EndSplineSet
EndChar

StartChar: uni0305
Encoding: 773 773 308
Width: 0
Flags: HW
HStem: 701.208 42.3555<58.4094 232.018> 704 46.6162<53.3045 447.043>
LayerCount: 2
Fore
SplineSet
68.3681640625 743.563476562 m 0
 77.359375 746.935546875 155.2578125 750.989257812 250.072265625 750.616210938 c 0
 428.590820312 749.9140625 492.0078125 744.489257812 467.516601562 720 c 0
 435.293349004 687.778642592 179.1310577 713.222882101 111.331054688 700.416015625 c 0
 35.2107652474 686.035673834 45.4715199066 734.976117004 68.3681640625 743.563476562 c 0
EndSplineSet
EndChar

StartChar: uni0306
Encoding: 774 774 309
Width: 0
Flags: HW
HStem: 667 41<120.46 203.305>
LayerCount: 2
Fore
SplineSet
154.647460938 708 m 0
 210.666992188 706.633789062 227.477539062 768.5390625 246.360351562 788.521484375 c 0
 249.647460938 792 261.118164062 793 269.647460938 793 c 0
 289.647460938 793 271.897460938 724.391601562 256.647460938 714 c 0
 249.897460938 709.400390625 242.486328125 702.35546875 231.647460938 695 c 0
 201.647460938 674.639648438 172.317382812 667 147.647460938 667 c 0
 133.348632812 667 91.013671875 690.163085938 78.6474609375 698 c 0
 56.50390625 712.034179688 43.654296875 768.169921875 55.5048828125 786.892578125 c 0
 56.6064453125 788.6328125 67.7451171875 797.626953125 79.6474609375 790 c 0
 99.056640625 777.5625 113.647460938 709 154.647460938 708 c 0
EndSplineSet
EndChar

StartChar: uni031B
Encoding: 795 795 354
Width: 0
Flags: HW
HStem: 548.954 198.808
VStem: 48.7236 37.041<609.447 748.778>
LayerCount: 2
Fore
SplineSet
48.7236328125 747.76171875 m 0
 49.04296875 748.958007812 53.76171875 749.983398438 58.947265625 749.983398438 c 0
 81.7861328125 749.983398438 88.8212890625 732.155273438 85.7646484375 643.31640625 c 0
 84 592.020507812 38.5693359375 552.068359375 23 548.954101562 c 0
 13.904296875 547.134765625 -10.283203125 543.509765625 -13 567.954101562 c 0
 -14.10546875 577.899414062 39.3212890625 601.326171875 45 634 c 0
 52.8564453125 679.205078125 47.1376953125 741.821289062 48.7236328125 747.76171875 c 0
EndSplineSet
EndChar

StartChar: uni030C
Encoding: 780 780 364
Width: 0
Flags: HW
VStem: 42.0928 261.895
LayerCount: 2
Fore
SplineSet
165.400390625 591 m 0
 133.719726562 608.278320312 38.6181640625 770.458984375 42.0927734375 789.610351562 c 0
 43.455078125 797.119140625 49.3134765625 800.443359375 60.400390625 800 c 0
 72.9765625 799.498046875 79.310546875 794.18359375 88.1044921875 776.751953125 c 0
 106.018554688 741.2421875 162.927734375 650.776367188 175.400390625 651 c 0
 182.962890625 651.135742188 202.573242188 673.419921875 211.400390625 687 c 0
 246.37400099 740.805554407 250.746012531 747.531726009 256.473632812 763.530273438 c 0
 267.4296875 794.118164062 300.196289062 813.083984375 303.987304688 791.030273438 c 0
 306.314453125 777.490234375 283.913085938 723.20703125 267.400390625 703 c 0
 258.373046875 691.953125 242.817382812 666.151367188 219.400390625 640.76171875 c 0
 174.506835938 592.0859375 187.111328125 579.159179688 165.400390625 591 c 0
EndSplineSet
EndChar

StartChar: uni0411
Encoding: 1041 1041 371
Width: 404
Flags: HW
HStem: 598 47<67.3701 373.212>
VStem: 25.6602 42.8115<54.2914 278.256>
LayerCount: 2
Fore
SplineSet
104.623046875 54.2470703125 m 0
 149.824411129 51.5631592793 264.509603268 74.9864933118 294.33203125 101.26953125 c 0
 312.219726562 117.03515625 333.415039062 165.403320312 333.694335938 191.095703125 c 0
 334.088867188 227.494140625 304.16015625 257.022460938 280.66015625 280.6640625 c 0
 255.477539062 305.999023438 164.383789062 344.595703125 120.690429688 348.444335938 c 0
 93.20703125 350.864257812 96.9443359375 365.26171875 86.16015625 338.904296875 c 0
 83.759765625 333.0390625 65.0869140625 154.822265625 68.4716796875 72.552734375 c 0
 69.4228515625 49.4296875 86.9541015625 55.2939453125 104.623046875 54.2470703125 c 0
210.224609375 8 m 0
 138.905273438 -10.2978515625 25.66015625 -2.5986328125 25.66015625 22.4521484375 c 2
 23.3740234375 173.967773438 l 1
 33.1748046875 280.985351562 41.6640625 403.453125 30.89453125 494.412109375 c 0
 16.6982421875 614.3125 19.3544921875 625.334960938 28.9677734375 636.864257812 c 0
 35.595703125 644.8125 39.5029296875 647.876953125 45.0322265625 646.728515625 c 0
 47.9669981426 647.406084585 209.113930267 654.455908904 346.224609375 645 c 0
 391.503971382 641.765759857 376.10416794 600.11747241 342.224609375 598 c 0
 235.202148438 588.529296875 189.17578125 591.616210938 67.3701171875 596.216796875 c 1
 70.5547882941 552.09525565 69.4976769776 456.756623576 78.005859375 415.26953125 c 0
 80.6337890625 402.459960938 86.16015625 399.567382812 108.005859375 399.567382812 c 0
 138.811523438 399.567382812 243.262695312 370.850585938 283.479492188 338.47265625 c 0
 510.854492188 155.412109375 281.576171875 26.3056640625 210.224609375 8 c 0
EndSplineSet
EndChar

StartChar: uni042C
Encoding: 1068 1068 372
Width: 404
Flags: HW
VStem: 25.6602 42.8115<55.724 281.189>
LayerCount: 2
Fore
SplineSet
104.623046875 55.6796875 m 0
 149.82441113 52.9957764668 264.509603268 76.4191104995 294.33203125 102.702148438 c 0
 312.219726562 118.467773438 333.415039062 166.8359375 333.694335938 192.528320312 c 0
 334.088867188 228.926757812 304.16015625 258.455078125 280.66015625 282.096679688 c 0
 255.4765625 307.431640625 162.69921875 318.151367188 119.005859375 322 c 0
 91.5224609375 324.419921875 95.259765625 338.817382812 84.4755859375 312.459960938 c 0
 82.0751953125 306.594726562 65.0869140625 156.254882812 68.4716796875 73.9853515625 c 0
 69.4228515625 50.8623046875 86.9541015625 56.7265625 104.623046875 55.6796875 c 0
210.224609375 9.4326171875 m 0
 138.905273438 -8.865234375 25.66015625 -1.166015625 25.66015625 23.884765625 c 2
 23.3740234375 175.400390625 l 1
 33.1748046875 282.41796875 41.6640625 404.885742188 30.89453125 495.844726562 c 0
 16.6982421875 615.745117188 19.3544921875 626.767578125 28.9677734375 638.296875 c 0
 39.2470703125 650.624023438 42.9833984375 651.203125 56.373046875 642.5390625 c 0
 77.2215839988 629.049716415 64.4788546128 446.570568935 76.3212890625 388.825195312 c 0
 78.94921875 376.015625 84.4755859375 373.123046875 106.321289062 373.123046875 c 0
 137.126953125 373.123046875 243.262695312 372.283203125 283.479492188 339.905273438 c 0
 510.856445312 156.84765625 281.576171875 27.73828125 210.224609375 9.4326171875 c 0
EndSplineSet
EndChar

StartChar: uni044C
Encoding: 1100 1100 373
Width: 326
Flags: HW
HStem: 135.504 30.8018<79.9451 190.975>
VStem: 31.6992 39.6826<166.517 309.793>
LayerCount: 2
Fore
SplineSet
99.810546875 27 m 0
 162.522357245 24.7781779026 182.65877604 32.0038181589 232.810546875 50 c 0
 237.848632812 51.8076171875 261.747070312 61.0302734375 262.028320312 76.509765625 c 0
 262.426757812 98.439453125 243.893554688 106.634765625 214.67578125 113.864257812 c 0
 181.420898438 122.09375 158.4296875 133.340820312 114.385742188 135.50390625 c 0
 84.662109375 136.963867188 87.18359375 145.640625 79.5966796875 129.755859375 c 0
 77.84375 126.084960938 60.7216796875 94.1435546875 64.1318359375 44.576171875 c 0
 65.08984375 30.64453125 82.0087890625 27.630859375 99.810546875 27 c 0
217.810546875 0 m 0
 153.909179688 -23.25 21.0947265625 -0.6796875 21 14.390625 c 2
 24.0478515625 65.595703125 l 1
 33.921875 130.073242188 40.5283203125 150.676757812 31.69921875 241.844726562 c 0
 27.810546875 282 25.2958984375 296.8515625 34.9091796875 308.380859375 c 0
 45.1884765625 320.708007812 49.4208984375 318.6640625 62.810546875 310 c 0
 69.5859375 305.616210938 71.27734375 298.6796875 72.810546875 258 c 0
 74.962890625 200.904296875 64.263671875 196.520507812 71.3818359375 175.766601562 c 0
 74.029296875 168.048828125 79.5966796875 166.305664062 101.606445312 166.305664062 c 0
 132.643554688 166.305664062 173.072265625 166.385742188 217.516601562 148.694335938 c 0
 347.109375 97.1083984375 317.197265625 36.1611328125 217.810546875 0 c 0
EndSplineSet
EndChar

StartChar: uni044A
Encoding: 1098 1098 374
Width: 401
Flags: HW
HStem: 135.504 30.8018<155.046 266.076> 284.818 34.1816<23.1224 103.339>
VStem: 106.8 39.6826<166.517 283.859>
LayerCount: 2
Fore
SplineSet
292.911132812 0 m 0
 229.009765625 -23.25 96.1953125 -0.6796875 96.1005859375 14.390625 c 2
 99.1484375 65.595703125 l 1
 109.022460938 130.073242188 115.62890625 150.676757812 106.799804688 241.844726562 c 0
 104.919921875 261.252929688 103.361328125 274.75 103.338867188 284.818359375 c 1
 100.750820012 284.598614716 34.3065343768 279.209196871 21.9111328125 304 c 0
 17.9111328125 311 27.9111328125 319 35.9111328125 319 c 0
 61.8369140625 319 96.5703125 311.21484375 120.661132812 316.83203125 c 0
 125.305664062 317.915039062 130.016601562 315.108398438 137.911132812 310 c 0
 144.686523438 305.616210938 146.377929688 298.6796875 147.911132812 258 c 0
 150.063476562 200.904296875 139.364257812 196.520507812 146.482421875 175.766601562 c 0
 149.129882812 168.048828125 154.697265625 166.305664062 176.70703125 166.305664062 c 0
 207.744140625 166.305664062 248.172851562 166.385742188 292.6171875 148.694335938 c 0
 422.209960938 97.1083984375 392.297851562 36.1611328125 292.911132812 0 c 0
174.911132812 27 m 0
 237.622943185 24.7781779028 257.759361981 32.0038181596 307.911132812 50 c 0
 312.94921875 51.8076171875 336.84765625 61.0302734375 337.12890625 76.509765625 c 0
 337.52734375 98.439453125 318.994140625 106.634765625 289.776367188 113.864257812 c 0
 256.521484375 122.09375 233.530273438 133.340820312 189.486328125 135.50390625 c 0
 159.762695312 136.963867188 162.284179688 145.640625 154.697265625 129.755859375 c 0
 152.944335938 126.084960938 135.822265625 94.1435546875 139.232421875 44.576171875 c 0
 140.190429688 30.64453125 157.109375 27.630859375 174.911132812 27 c 0
EndSplineSet
EndChar

StartChar: uni042A
Encoding: 1066 1066 379
Width: 541
Flags: HW
HStem: 600 44<21.9277 94.5193 139.84 158.066>
VStem: 160.423 45.0977<55.7216 284.293 392.781 603.718>
LayerCount: 2
Fore
SplineSet
347.2734375 9.4326171875 m 0
 275.954101562 -8.865234375 162.708984375 -1.166015625 162.708984375 23.884765625 c 2
 160.422851562 175.400390625 l 1
 170.223632812 282.41796875 178.712890625 404.885742188 167.943359375 495.844726562 c 0
 161.259765625 552.291015625 158.311523438 584.606445312 158.06640625 604.205078125 c 1
 124.440429688 596.485351562 82.22265625 598.303710938 44.0546875 600 c 0
 13.632209416 600 11.6259204414 633.59178084 48.0546875 644 c 0
 103.399262172 658.190916582 175.787171215 648.145695567 177.05859375 647.923828125 c 0
 181.37890625 649.375976562 185.862304688 647.430664062 193.421875 642.5390625 c 0
 214.270425765 629.049707589 201.52850019 446.566582918 213.370117188 388.825195312 c 0
 215.998046875 376.015625 221.524414062 373.123046875 243.370117188 373.123046875 c 0
 274.17578125 373.123046875 380.311523438 372.283203125 420.528320312 339.905273438 c 0
 647.905273438 156.84765625 418.625 27.73828125 347.2734375 9.4326171875 c 0
241.671875 55.6796875 m 0
 286.873239251 52.9957764667 401.558431393 76.4191104988 431.380859375 102.702148438 c 0
 449.268554688 118.467773438 470.463867188 166.8359375 470.743164062 192.528320312 c 0
 471.137695312 228.926757812 441.208984375 258.455078125 417.708984375 282.096679688 c 0
 392.526367188 307.431640625 299.748046875 318.151367188 256.0546875 322 c 0
 228.571289062 324.419921875 232.30859375 338.817382812 221.524414062 312.459960938 c 0
 219.124023438 306.594726562 202.135742188 156.254882812 205.520507812 73.9853515625 c 0
 206.471679688 50.8623046875 224.002929688 56.7265625 241.671875 55.6796875 c 0
EndSplineSet
EndChar

StartChar: uni042F
Encoding: 1071 1071 380
Width: 383
Flags: HW
HStem: 562.658 56.252<100.812 303.639>
VStem: 293.669 62.3262<338.754 371.644> 306.068 49.9268<339.268 562.423>
LayerCount: 2
Fore
SplineSet
98.1435546875 540 m 0
 72.1435546875 517 80.1435546875 483.764648438 80.1435546875 474 c 0
 80.1435546875 389 136.143554688 376 162.143554688 361 c 0
 203.825195312 336.953125 209.66796875 341.154296875 250.46875 339.98828125 c 2
 293.668945312 338.75390625 l 1
 299.668945312 371.643554688 l 2
 304.194450199 396.458654814 309.306059703 469.790141902 304.143554688 524 c 0
 302.143554688 545 310.143554688 561 294.143554688 562 c 0
 277.92578125 563.013671875 252.143554688 563 232.068359375 562.658203125 c 0
 194.149414062 562.012695312 155.3671875 590.62109375 98.1435546875 540 c 0
263.143554688 610 m 0
 287.943359375 606.284179688 307.544921875 610.05859375 326.143554688 605 c 0
 357.53515625 596.461914062 362.04296875 600.501953125 358.974609375 511.420898438 c 0
 355.998046875 425.010742188 360.942382812 422.7890625 355.995117188 351.087890625 c 0
 353.634765625 316.885742188 358.143554688 236.677734375 352.639648438 162.676757812 c 0
 343.344726562 37.7001953125 342.421875 20.728515625 324.943359375 6.5869140625 c 0
 314.54296875 -1.828125 300.78125 -6.5576171875 294.143554688 -4 c 0
 280.766601562 1.15625 279.715820312 9.3330078125 296.30859375 108 c 0
 309.444335938 186.110351562 296.155273438 270.961914062 284.868164062 275.012695312 c 0
 270.669921875 280.108398438 258.477539062 266.38671875 220.143554688 222 c 0
 158.677191261 150.828421295 150.896577805 141.819289924 89.95703125 45.8505859375 c 0
 80.9535068895 31.6711363305 53.8252118225 -11.052610219 31.3115234375 -2.0791015625 c 0
 19.310546875 2.703125 17.2958984375 25.705078125 27.8564453125 37.353515625 c 0
 31.931640625 41.84765625 34.279296875 43.2197265625 47.8369140625 76.9306640625 c 0
 61.39453125 110.641601562 82.43359375 132.046875 101.836914062 163.510742188 c 0
 156.598632812 252.310546875 209.143554688 280.116210938 209.143554688 288 c 0
 209.143554688 291.654296875 184.30859375 292.618164062 172.30859375 300 c 0
 126.708007812 328.05078125 41.1025390625 380.315429688 33.1435546875 441 c 0
 25.1435546875 502 45.66796875 610.123046875 164.068359375 618.91015625 c 0
 212.068359375 622.47265625 231.419921875 614.752929688 263.143554688 610 c 0
EndSplineSet
EndChar

StartChar: uni044F
Encoding: 1103 1103 381
Width: 306
Flags: HW
HStem: 1.30469 21G<31.3838 46.6055> 138.197 28.543<127.45 145.012 194.124 219.081> 278.788 41.2266<89.5585 230.794>
VStem: 32.5674 44.418<193.926 266.772> 232.05 47.6348<16.2939 137.447 165.777 278.424>
LayerCount: 2
Fore
SplineSet
227.1484375 96.1787109375 m 0
 227.1484375 96.6112571253 226.511840512 138.197265625 216.881835938 138.197265625 c 0
 212.666015625 138.197265625 205.934570312 133.630859375 192.922851562 123.212890625 c 0
 180.989257812 113.658203125 178.224609375 111.569335938 162.122070312 99.6015625 c 0
 78.6568391277 37.5717202335 71.3778056043 1.3046875 37.0107421875 1.3046875 c 0
 25.7568359375 1.3046875 21 9.4111328125 21 15.7177734375 c 0
 21 19.373046875 22.3193359375 24.6650390625 28.66015625 28.9892578125 c 0
 30.7890625 30.4404296875 31.9970703125 30.7392578125 41.40625 45.447265625 c 0
 51.84765625 61.771484375 67.435546875 71.6787109375 81.58984375 86.109375 c 0
 103.340820312 108.284179688 115.950195312 117.655273438 145.01171875 139.252929688 c 1
 143.641330424 139.260001646 41.7241142758 174.787352013 33.751953125 219.26171875 c 0
 32.9912109375 223.50390625 32.5673828125 228.107421875 32.5673828125 232.953125 c 0
 32.5673828125 255.206991519 41.8994131194 320.014648438 150.611328125 320.014648438 c 0
 157.882209387 320.014648438 255.096876945 311.280842059 256.135742188 311.075195312 c 0
 274.90234375 307.475585938 281.0234375 304.958007812 281.0234375 277.138671875 c 0
 281.0234375 262.7421875 279.684570312 249.91796875 279.684570312 228.336914062 c 0
 279.684570312 226.14453125 279.962890625 204.3203125 279.962890625 204.078125 c 0
 279.962890625 202.8188515 276.055555974 100.021767315 273.487304688 78.3173828125 c 0
 267.177734375 24.9765625 266.459960938 14.056640625 250.95703125 6.1767578125 c 0
 244.020507812 2.6513671875 235.748046875 0.4326171875 229.240234375 0.4326171875 c 0
 223.69921875 0.4326171875 213.635742188 2.2333984375 213.635742188 15.3134765625 c 0
 213.635742188 36.1845703125 227.1484375 59.83984375 227.1484375 96.1787109375 c 0
230.793945312 276.104492188 m 0
 230.793945312 278.461665449 230.793945312 278.788085938 200.677734375 278.788085938 c 0
 191.715820312 278.788085938 182.47265625 278.66796875 182.2890625 278.66796875 c 0
 167.509765625 278.66796875 153.146484375 282.772460938 137.16796875 282.772460938 c 0
 118.307509906 282.772460938 76.9853515625 272.320791018 76.9853515625 245.764648438 c 0
 76.9853515625 241.227539062 77.8291015625 237.7578125 77.8291015625 235.063476562 c 0
 77.8291015625 198.5625 104.192382812 188.962890625 124.860351562 181.387695312 c 0
 164.450828321 166.889296029 164.450828321 166.889296029 184.640625 166.740234375 c 0
 192.1328125 166.685546875 192.1328125 166.685546875 224.065429688 165.997070312 c 1
 224.065429688 160.997070312 227.479492188 175.12109375 227.479492188 180.12109375 c 0
 231.583984375 197.106445312 232.049804688 225.154296875 232.049804688 235.583007812 c 0
 232.049804688 253.16015625 230.337890625 266.431640625 230.337890625 266.743164062 c 0
 230.337890625 270.510742188 230.793945312 273.827148438 230.793945312 276.104492188 c 0
EndSplineSet
EndChar

StartChar: uni0432
Encoding: 1074 1074 386
Width: 355
Flags: HW
HStem: -0.386719 31.6982<67.6175 172.881> 146.186 41.5938<70.1671 193.399> 283.96 41.7451<79.4676 251.22>
VStem: 22 47.2363<31.3117 146.185 194.688 277.529> 262.32 49.8154<71.0037 114.275> 282.563 50.1191<231.932 274.909>
LayerCount: 2
Fore
SplineSet
242.0546875 113.525390625 m 0
 236.7447594 116.180184256 123.16732004 146.185546875 76.3251953125 146.185546875 c 0
 71.056640625 146.185546875 67.07421875 145.638671875 65.1279296875 145.140625 c 0
 67.55078125 129.357421875 65.3388671875 47.2490234375 69.236328125 31.638671875 c 0
 70.630859375 31.494140625 73.048828125 31.3115234375 75.7197265625 31.3115234375 c 0
 109.873103063 31.3115234375 159.090911909 42.9911940708 197.649414062 54.20703125 c 0
 228.985351562 63.322265625 238.889648438 66.009765625 256.595703125 85.3720703125 c 0
 261.15234375 90.35546875 262.3203125 93.9765625 262.3203125 96.38671875 c 0
 262.3203125 103.392578125 251.830078125 108.637695312 242.0546875 113.525390625 c 0
131.083007812 187.779296875 m 0
 186.436908218 187.779296875 282.563476562 233.749246421 282.563476562 257.318359375 c 0
 282.563476562 257.701171875 281.260742188 266.762695312 251.344726562 279.391601562 c 0
 249.487304688 280.17578125 195.413085938 283.959960938 148.794921875 283.959960938 c 0
 118.416992188 283.959960938 90.09765625 282.122070312 80.6982421875 279.288085938 c 1
 74.564453125 241.818359375 70.1357421875 200.290039062 69.9150390625 198.643554688 c 0
 69.9150390625 196.78515625 70.0322265625 195.372070312 70.1669921875 194.653320312 c 2
 70.1669921875 194.653320312 70.3095703125 193.889648438 70.3046875 193.845703125 c 0
 70.53515625 192.573242188 71.0478515625 189.848632812 71.4931640625 187.497070312 c 0
 105.842773438 188.041015625 105.842773438 188.041015625 108.657226562 188.041015625 c 0
 116.856445312 188.041015625 124.078125 187.779296875 131.083007812 187.779296875 c 0
47.7705078125 0.1357421875 m 0
 41.6884765625 0.1357421875 37.1171875 -0.6162109375 33.314453125 -0.6162109375 c 0
 30.791015625 -0.6162109375 22 -0.6162109375 22 10.4501953125 c 0
 22 11.4140625 24.2314453125 20.41796875 24.2861328125 106.865234375 c 0
 24.333984375 181.250976562 24.783203125 247.602539062 36.7890625 313.984375 c 1
 48.7324375601 322.480061342 97.0018707849 325.705078125 179.908203125 325.705078125 c 0
 211.989473728 325.705078125 276.840014038 322.916639943 298.9609375 301.37109375 c 0
 313.110351562 287.58984375 332.682617188 260.255859375 332.682617188 247.350585938 c 0
 332.682617188 228.928710938 274.274414062 194.301757812 233.100585938 178.934570312 c 0
 221.025390625 174.427734375 209.791992188 169.629882812 202.979492188 166.453125 c 1
 208.17578125 164.624023438 215.688476562 162.338867188 223.76171875 160.294921875 c 0
 245.615847941 154.761754477 312.135742188 127.758055152 312.135742188 101.358398438 c 0
 312.135742188 95.0244140625 308.077148438 55.2421875 210.157226562 16.84375 c 0
 168.196289062 0.3896484375 159.092773438 0 108.286132812 0 c 0
 101.668945312 0 67.8134765625 -0.38671875 67.4052734375 -0.38671875 c 0
 59.1630859375 -0.38671875 47.966796875 0.1357421875 47.7705078125 0.1357421875 c 0
EndSplineSet
EndChar

StartChar: uni0433
Encoding: 1075 1075 387
Width: 360
Flags: HW
HStem: 277.314 45.6143<66.1648 337.278>
VStem: 30.4316 38.4297<3.28395 277.016>
LayerCount: 2
Fore
SplineSet
41.7646484375 7.7412109375 m 0
 32.5419921875 13.56640625 31.0888671875 44.7958984375 30.431640625 125.166992188 c 0
 30.2548828125 146.797851562 24.408203125 166.854492188 23.59375 221.795898438 c 0
 22.111328125 321.795898438 22.1123046875 321.795898438 39.51953125 324.388671875 c 0
 49.1494140625 325.823242188 63.8505859375 322.583007812 72.861328125 322.928710938 c 0
 126.861328125 325 267.596679688 322.083984375 304.053710938 319.836914062 c 0
 330.311523438 318.21875 347.736328125 299.446289062 330.861328125 289 c 0
 294.45654577 266.463706161 70.1734077105 277.746080041 69.4541015625 277.314453125 c 0
 61.1611328125 272.337890625 71.29296875 178.166992188 68.861328125 136 c 0
 65.8466796875 83.7197265625 81.3369140625 24.1484375 71.08984375 11.7958984375 c 0
 60.404296875 -1.0859375 56.5791015625 -1.615234375 41.7646484375 7.7412109375 c 0
EndSplineSet
EndChar

StartChar: uni0490
Encoding: 1168 1168 388
Width: 418
Flags: HW
HStem: 595.314 45.6143<85.6399 340.339>
VStem: 46.8613 36.5684<279.618 595.033> 341.322 42.6776<640.966 735.945>
LayerCount: 2
Fore
SplineSet
60.1943359375 6.57421875 m 0
 50.9716796875 12.3994140625 48.7060546875 45.4443359375 46.861328125 201 c 0
 45.640625 303.962890625 45.408203125 484.854492188 44.59375 539.795898438 c 0
 43.111328125 639.795898438 43.1123046875 639.795898438 60.51953125 642.388671875 c 0
 70.1494140625 643.823242188 84.8505859375 640.583007812 93.861328125 640.928710938 c 0
 143.419932706 642.829640486 289.454485198 642.731827124 341.322405993 640.965906813 c 1
 336.958103789 659.99728542 332.751131405 733.750087031 362 736 c 0
 373 737 378 725 380 714 c 0
 387 683 384 664 384 634 c 0
 384 624 389 613 379.668945312 609.614257812 c 1
 357.436783035 573.506150659 98.0798080699 599.890335306 90.4541015625 595.314453125 c 0
 70.1267365727 583.116119165 101.907245872 25.5645324387 89.51953125 10.62890625 c 0
 78.833984375 -2.2529296875 75.0087890625 -2.7822265625 60.1943359375 6.57421875 c 0
EndSplineSet
EndChar

StartChar: uni0491
Encoding: 1169 1169 389
Width: 352
Flags: HW
HStem: 277.314 45.6143<68.3035 295.595>
VStem: 32.5703 38.4297<3.28378 277.016> 301 38.6084<321.796 488.898>
LayerCount: 2
Fore
SplineSet
43.9033203125 7.7412109375 m 0
 34.6806640625 13.56640625 33.2270695503 44.7958945995 32.5703125 125.166992188 c 0
 32.3935546875 146.797851562 26.546875 166.854492188 25.732421875 221.795898438 c 0
 24.25 321.795898438 24.2509765625 321.795898438 41.658203125 324.388671875 c 0
 51.2880859375 325.823242188 65.9892548921 322.583083941 75 322.928710938 c 0
 125.479994288 324.86498242 251.756150985 322.442955362 297.786629296 320.28330248 c 1
 293.754913356 351.916453982 296.837890625 424.376953125 301 461 c 0
 304.148325621 501.928233075 332.249802255 494.126087597 337 468 c 0
 348.207854066 404.95582088 342.548911976 310.744755312 339.608374031 300.011297544 c 1
 343.999431982 260.995616551 74.557535615 279.093488603 71.5927734375 277.314453125 c 0
 63.2998046875 272.337890625 73.4314846856 178.16700118 71 136 c 0
 67.9853515625 83.7197265625 83.4753254741 24.1488200898 73.228515625 11.7958984375 c 0
 62.54296875 -1.0859375 58.7174893052 -1.61568423844 43.9033203125 7.7412109375 c 0
EndSplineSet
EndChar

StartChar: uni043A
Encoding: 1082 1082 390
Width: 272
Flags: HW
HStem: 1.22168 318.741
VStem: 26.1357 33.1201<1.22299 116.651> 30.3008 41.8516<180.882 301.994>
LayerCount: 2
Fore
SplineSet
195.669921875 280.370117188 m 0
 211.422851562 305.5859375 217.912109375 319.962890625 231.744140625 319.962890625 c 0
 256.553710938 319.962890625 255.752929688 291.926757812 235.15234375 259.333007812 c 0
 225.025390625 243.310546875 230.264648438 253.860351562 212.15234375 233.333007812 c 0
 197.15234375 216.333007812 183.018554688 202.327148438 159.15234375 176.333007812 c 2
 137.3203125 152.5546875 l 1
 149.541992188 131.814453125 l 2
 163.348513461 108.386953931 169.922768215 84.1902932717 187.8046875 61.2958984375 c 0
 203.947265625 40.62890625 231.947265625 35.62890625 213.947265625 8.62890625 c 0
 202.228515625 -8.94921875 189.751953125 8.6796875 157.84375 41.9619140625 c 0
 139.947265625 60.62890625 136.8046875 64.2958984375 124.8046875 85.2958984375 c 0
 112.325195312 107.135742188 114.151367188 98.33203125 84.15234375 124.333007812 c 0
 67.6611328125 138.625976562 67.634765625 81.2216796875 59.255859375 36 c 0
 51.0478515625 -8.30078125 53.2294921875 1.2216796875 36.1357421875 1.2216796875 c 0
 18.111328125 1.2216796875 18.1162109375 2.744140625 26.1357421875 56.2216796875 c 0
 30.634765625 86.2216796875 26.7568359375 65 31.7568359375 106 c 0
 39.1259765625 166.4296875 30.15234375 166.333007812 30.30078125 228 c 0
 30.4736328125 299.704101562 42.0341796875 321.704101562 50.5400390625 321.704101562 c 0
 56.34765625 321.704101562 64.90234375 313.075195312 71.5400390625 302.704101562 c 0
 81.5400390625 287.079101562 71.5400390625 302.704101562 72.15234375 241.333007812 c 0
 72.802734375 176.135742188 70.505859375 161.443359375 72.134765625 161.443359375 c 0
 73.1605798516 161.443359375 131.027351617 217.576777824 146.950195312 231.625976562 c 0
 168.15234375 250.333007812 183.15234375 260.333007812 195.669921875 280.370117188 c 0
EndSplineSet
EndChar

StartChar: uni043C
Encoding: 1084 1084 391
Width: 436
Flags: HW
VStem: 25.4531 38.0137<-4.2982 213.515> 360.467 1.52832<198 204.983>
LayerCount: 2
Fore
SplineSet
67.0927734375 83 m 0
 60.16015625 33.5126953125 64.28125 29.4892578125 63.466796875 20 c 0
 61.6572265625 -1.0927734375 42.6962890625 -12.697265625 31.8642578125 0.6572265625 c 0
 18.9912109375 16.529296875 26.939453125 74.5390625 25.453125 104.315429688 c 0
 22.6240234375 160.98828125 24.923828125 253.311523438 24.2333984375 283.907226562 c 0
 23.857421875 300.578125 24.35546875 302.305664062 31.8662109375 313.879882812 c 0
 42.919921875 330.9140625 49.25390625 334.62890625 58.466796875 316 c 0
 75.640625 281.2734375 122.466796875 219 147.466796875 162 c 0
 189.220703125 66.80078125 204.4140625 51.1787109375 211.466796875 52 c 0
 215.46875 52.4658203125 223.084960938 63.6083984375 232.578125 90.0703125 c 0
 253.254714871 147.707253497 309.420057301 255.859781277 312.466796875 265 c 0
 320.466796875 289 323.98828125 282.71484375 350.466796875 315 c 0
 386.412109375 358.828125 389.654296875 327.67578125 392.466796875 282 c 0
 392.59088384 279.984856723 411.466796875 104.346207301 411.466796875 81 c 0
 411.466796875 52.6357421875 420.466796875 1 400.466796875 3 c 0
 380.493164062 4.9970703125 378.466796875 22 374.529296875 66.8623046875 c 0
 366.23046875 161.419921875 361.995117188 204.983398438 361.995117188 204.983398438 c 1
 360.466796875 198 l 1
 353.677734375 265.536132812 l 1
 353.677734375 265.536132812 312.004882812 193.662109375 283.466796875 118 c 0
 225.212890625 -36.4462890625 202.743164062 -20.6953125 171.466796875 26 c 0
 161.841796875 40.3701171875 129.40625 84.349609375 121.466796875 114 c 0
 113.444335938 143.9609375 104.604492188 155.873046875 90.466796875 197 c 0
 79.4658203125 229 53.1025390625 324.051757812 63.1708984375 221.37109375 c 0
 65.3837890625 198.802734375 70.4912109375 107.260742188 67.0927734375 83 c 0
EndSplineSet
EndChar

StartChar: uni043D
Encoding: 1085 1085 392
Width: 346
Flags: HW
HStem: 295.593 20G<285.995 308.77>
VStem: 27.2656 40.9922<-4.52361 78.0654 182.983 285.547 285.556 291.515> 260.085 34<11.3884 145.297> 273.085 45<199.876 315.584>
LayerCount: 2
Fore
SplineSet
250.084960938 146 m 0
 240.6484375 158.686523438 234.084960938 152 209.084960938 153 c 0
 207.773716354 153.05241957 96.3342586114 146.497046998 78.5244140625 139.76953125 c 0
 61.3154296875 133.268554688 78.2578125 79.5556640625 72.2578125 46.5556640625 c 0
 67.2490234375 19.0068359375 55.39453125 -19.021484375 33.2578125 -0.4443359375 c 0
 20.125 10.5771484375 28.2578125 44.5556640625 29.154296875 73.962890625 c 0
 30.427734375 115.73828125 29.2578125 222.555664062 27.265625 248.592773438 c 0
 24.5205078125 284.46484375 22.869140625 266.283203125 22.28515625 276.629882812 c 0
 19.1552734375 332.069335938 42.283203125 329.923828125 69.2578125 285.555664062 c 1
 69.2578125 285.555664062 68.2578125 273.276367188 68.2578125 238.555664062 c 0
 68.2578125 189.555664062 80.5390625 179.900390625 96.2578125 183.555664062 c 0
 105.106445312 185.61328125 131.857421875 188.135742188 168.89453125 191.825195312 c 0
 245.19140625 199.42578125 252.563476562 190.926757812 264.856445312 214.147460938 c 0
 285.233221391 252.638352609 256.596538322 315.592773438 293.807617188 315.592773438 c 0
 323.732421875 315.592773438 329.77734375 314.803710938 318.084960938 253 c 0
 297.191791243 142.56467447 294.084960938 87.7654571037 294.084960938 35 c 0
 294.084960938 0 262.084960938 -7 260.084960938 20 c 0
 258.306640625 44.01171875 260.379882812 132.159179688 250.084960938 146 c 0
EndSplineSet
EndChar

StartChar: uni0418
Encoding: 1048 1048 393
Width: 402
Flags: HW
VStem: 52.5205 30<448.635 639.634> 311.944 38.71<13.3555 213.472> 326.578 41.0244<52.6612 445.357>
LayerCount: 2
Fore
SplineSet
350.654296875 9 m 0
 346.62890625 -8 300.59375 8 311.944335938 47 c 0
 324.188476562 89.068359375 331.1171875 166 326.578125 240 c 0
 323.53125 289 329.814453125 443 338.39453125 519 c 0
 342.987304688 562 324.625 556 289.430664062 503 c 0
 261.958984375 462 131.505859375 148.338867188 93.546875 57 c 0
 63.255859375 -15.8896484375 31.3896484375 -21.08984375 23.3662109375 54 c 0
 20.9052734375 77.025390625 22.5205078125 105 22.5205078125 158 c 0
 22.5205078125 246.080078125 53.7939453125 621.068359375 52.5205078125 633 c 0
 51.61328125 641.495117188 78.48828125 645.124023438 82.5205078125 634 c 0
 87.642578125 619.866210938 33.4404296875 105 67.3203125 103 c 0
 77.29296875 102.411132812 88.2236328125 118 97.1533203125 150 c 0
 105.9609375 180 263.78125 542 301.614257812 589 c 0
 324.2109375 617.073242188 338.520507812 641.024414062 351.520507812 641 c 0
 387.59375 640.931640625 379.305664062 626.490234375 377.85546875 597.4296875 c 0
 358.416679633 207.946120906 379.894762163 120.329136962 350.654296875 9 c 0
EndSplineSet
EndChar

